<svg width="240" height="180" viewBox="0 0 240 180" fill="none" xmlns="http://www.w3.org/2000/svg">
<path d="M231.066 135.203H204.319V170.627H231.066V135.203Z" fill="#F5F5F5"/>
<path d="M231.066 135.203H218.525V170.627H231.066V135.203Z" fill="#EBEBEB"/>
<path d="M212.331 139.998H209.925V145.865H212.331V139.998Z" fill="#EBEBEB"/>
<path d="M212.331 162.96H209.925V168.827H212.331V162.96Z" fill="#EBEBEB"/>
<path d="M218.525 148.164C218.525 148.215 215.345 148.255 211.425 148.255C207.505 148.255 204.319 148.215 204.319 148.164C204.319 148.114 207.5 148.074 211.425 148.074C215.35 148.074 218.525 148.114 218.525 148.164Z" fill="#EBEBEB"/>
<path d="M212.331 151.565H209.925V157.432H212.331V151.565Z" fill="#EBEBEB"/>
<path d="M218.525 159.736C218.525 159.787 215.345 159.827 211.425 159.827C207.505 159.827 204.319 159.787 204.319 159.736C204.319 159.686 207.5 159.641 211.425 159.641C215.35 159.641 218.525 159.686 218.525 159.736Z" fill="#EBEBEB"/>
<path d="M223.592 139.998H221.187V145.865H223.592V139.998Z" fill="#E0E0E0"/>
<path d="M228.811 139.998H226.406V145.865H228.811V139.998Z" fill="#E0E0E0"/>
<path d="M223.592 151.131H221.187V156.998H223.592V151.131Z" fill="#E0E0E0"/>
<path d="M228.811 151.131H226.406V156.998H228.811V151.131Z" fill="#E0E0E0"/>
<path d="M223.592 162.263H221.187V168.13H223.592V162.263Z" fill="#E0E0E0"/>
<path d="M228.811 162.263H226.406V168.13H228.811V162.263Z" fill="#E0E0E0"/>
<path d="M233.074 133.964H202.307V135.243H233.074V133.964Z" fill="#E0E0E0"/>
<path d="M231.252 135.364C231.252 135.414 225.274 135.455 217.901 135.455C210.529 135.455 204.551 135.414 204.551 135.364C204.551 135.314 210.529 135.273 217.901 135.273C225.274 135.273 231.252 135.314 231.252 135.364Z" fill="#F5F5F5"/>
<path d="M174.634 45.7126H126.948V171.046H174.634V45.7126Z" fill="#EBEBEB"/>
<path d="M174.629 45.7126H150.786V171.046H174.629V45.7126Z" fill="#E0E0E0"/>
<path d="M149.231 30.8154H132.394V45.7127H149.231V30.8154Z" fill="#EBEBEB"/>
<path d="M149.226 30.8154H145.215V45.7127H149.226V30.8154Z" fill="#E0E0E0"/>
<path d="M176.023 44.8435H122.973V45.7127H176.023V44.8435Z" fill="#E0E0E0"/>
<path d="M140.395 52.2114H136.359V60.7567H140.395V52.2114Z" fill="white"/>
<path d="M150.786 64.1121C150.786 64.203 145.452 64.2738 138.87 64.2738C132.287 64.2738 126.948 64.203 126.948 64.1121C126.948 64.0211 132.282 63.9453 138.87 63.9453C145.457 63.9453 150.786 64.0161 150.786 64.1121Z" fill="#E0E0E0"/>
<path d="M164.444 52.2114H160.408V60.7567H164.444V52.2114Z" fill="#F5F5F5"/>
<path d="M174.835 64.1121C174.835 64.203 169.501 64.2738 162.919 64.2738C156.337 64.2738 150.998 64.203 150.998 64.1121C150.998 64.0211 156.332 63.9453 162.919 63.9453C169.506 63.9453 174.835 64.0161 174.835 64.1121Z" fill="#EBEBEB"/>
<path d="M164.444 69.1753H160.408V77.7205H164.444V69.1753Z" fill="#F5F5F5"/>
<path d="M174.835 81.0763C174.835 81.1672 169.501 81.243 162.919 81.243C156.337 81.243 150.998 81.1672 150.998 81.0763C150.998 80.9853 156.332 80.9146 162.919 80.9146C169.506 80.9146 174.835 80.9903 174.835 81.0763Z" fill="#EBEBEB"/>
<path d="M164.444 86.6548H160.408V95.2H164.444V86.6548Z" fill="#F5F5F5"/>
<path d="M174.835 98.5558C174.835 98.6467 169.501 98.7225 162.919 98.7225C156.337 98.7225 150.998 98.6467 150.998 98.5558C150.998 98.4648 156.332 98.394 162.919 98.394C169.506 98.394 174.835 98.4698 174.835 98.5558Z" fill="#EBEBEB"/>
<path d="M164.444 104.14H160.408V112.685H164.444V104.14Z" fill="#F5F5F5"/>
<path d="M174.835 116.035C174.835 116.126 169.501 116.202 162.919 116.202C156.337 116.202 150.998 116.126 150.998 116.035C150.998 115.944 156.332 115.874 162.919 115.874C169.506 115.874 174.835 115.949 174.835 116.035Z" fill="#EBEBEB"/>
<path d="M164.444 121.119H160.408V129.664H164.444V121.119Z" fill="#F5F5F5"/>
<path d="M174.835 133.019C174.835 133.105 169.501 133.181 162.919 133.181C156.337 133.181 150.998 133.105 150.998 133.019C150.998 132.933 156.332 132.853 162.919 132.853C169.506 132.853 174.835 132.928 174.835 133.019Z" fill="#EBEBEB"/>
<path d="M164.444 138.164H160.408V146.709H164.444V138.164Z" fill="#F5F5F5"/>
<path d="M164.444 155.436H160.408V163.981H164.444V155.436Z" fill="#F5F5F5"/>
<path d="M174.835 150.065C174.835 150.156 169.501 150.231 162.919 150.231C156.337 150.231 150.998 150.156 150.998 150.065C150.998 149.974 156.332 149.903 162.919 149.903C169.506 149.903 174.835 149.974 174.835 150.065Z" fill="#EBEBEB"/>
<path d="M140.395 69.438H136.359V77.9832H140.395V69.438Z" fill="white"/>
<path d="M150.786 81.3386C150.786 81.4245 145.452 81.5003 138.87 81.5003C132.287 81.5003 126.948 81.4245 126.948 81.3386C126.948 81.2527 132.282 81.1719 138.87 81.1719C145.457 81.1719 150.786 81.2477 150.786 81.3386Z" fill="#E0E0E0"/>
<path d="M140.395 86.665H136.359V95.2103H140.395V86.665Z" fill="white"/>
<path d="M150.786 98.5657C150.786 98.6516 145.452 98.7274 138.87 98.7274C132.287 98.7274 126.948 98.6516 126.948 98.5657C126.948 98.4798 132.282 98.3989 138.87 98.3989C145.457 98.3989 150.786 98.4747 150.786 98.5657Z" fill="#E0E0E0"/>
<path d="M140.395 103.892H136.359V112.437H140.395V103.892Z" fill="white"/>
<path d="M150.786 115.793C150.786 115.879 145.452 115.954 138.87 115.954C132.287 115.954 126.948 115.879 126.948 115.793C126.948 115.707 132.282 115.626 138.87 115.626C145.457 115.626 150.786 115.702 150.786 115.793Z" fill="#E0E0E0"/>
<path d="M140.395 121.119H136.359V129.664H140.395V121.119Z" fill="white"/>
<path d="M150.786 133.019C150.786 133.105 145.452 133.181 138.87 133.181C132.287 133.181 126.948 133.105 126.948 133.019C126.948 132.933 132.282 132.853 138.87 132.853C145.457 132.853 150.786 132.928 150.786 133.019Z" fill="#E0E0E0"/>
<path d="M140.395 138.346H136.359V146.891H140.395V138.346Z" fill="white"/>
<path d="M150.786 150.246C150.786 150.332 145.452 150.408 138.87 150.408C132.287 150.408 126.948 150.332 126.948 150.246C126.948 150.16 132.282 150.08 138.87 150.08C145.457 150.08 150.786 150.155 150.786 150.246Z" fill="#E0E0E0"/>
<path d="M140.395 155.573H136.359V164.118H140.395V155.573Z" fill="white"/>
<path d="M108.183 122.397H71.6191V170.829H108.183V122.397Z" fill="#EBEBEB"/>
<path d="M108.183 122.397H91.0386V170.829H108.183V122.397Z" fill="#E0E0E0"/>
<path d="M82.5693 128.952H79.2832V136.971H82.5693V128.952Z" fill="#F5F5F5"/>
<path d="M82.5693 160.348H79.2832V168.368H82.5693V160.348Z" fill="#F5F5F5"/>
<path d="M91.0386 140.125C91.0386 140.211 86.6907 140.286 81.3263 140.286C75.962 140.286 71.6191 140.211 71.6191 140.125C71.6191 140.039 75.967 139.958 81.3263 139.958C86.6857 139.958 91.0386 140.034 91.0386 140.125Z" fill="#F5F5F5"/>
<path d="M82.5693 144.769H79.2832V152.788H82.5693V144.769Z" fill="#F5F5F5"/>
<path d="M91.0386 155.937C91.0386 156.028 86.6907 156.103 81.3263 156.103C75.962 156.103 71.6191 156.028 71.6191 155.937C71.6191 155.846 75.967 155.775 81.3263 155.775C86.6857 155.775 91.0386 155.851 91.0386 155.937Z" fill="#F5F5F5"/>
<path d="M97.9628 128.952H94.6768V136.971H97.9628V128.952Z" fill="#F5F5F5"/>
<path d="M105.099 128.952H101.812V136.971H105.099V128.952Z" fill="#F5F5F5"/>
<path d="M97.9628 144.172H94.6768V152.192H97.9628V144.172Z" fill="#F5F5F5"/>
<path d="M105.099 144.172H101.812V152.192H105.099V144.172Z" fill="#F5F5F5"/>
<path d="M97.9628 159.393H94.6768V167.413H97.9628V159.393Z" fill="#F5F5F5"/>
<path d="M105.099 159.393H101.812V167.413H105.099V159.393Z" fill="#F5F5F5"/>
<path d="M110.936 120.709H68.8716V122.458H110.936V120.709Z" fill="#E0E0E0"/>
<path d="M108.44 122.635C108.44 122.726 100.268 122.802 90.1881 122.802C80.1085 122.802 71.9312 122.726 71.9312 122.635C71.9312 122.544 80.1035 122.473 90.1881 122.473C100.273 122.473 108.44 122.534 108.44 122.635Z" fill="#EBEBEB"/>
<path d="M186.103 62.3433L218.495 62.5C218.495 62.5 215.425 55.4253 208.868 55.4253C203.871 55.4253 203.65 58.5483 200.646 59.4427C197.641 60.3372 191.321 54.8694 186.103 62.3433Z" fill="#EBEBEB"/>
<path d="M46.2515 27.7076L103.216 27.9451C103.216 27.9451 97.8219 15.5492 86.293 15.5442C77.5067 15.5442 77.1142 21.0372 71.8404 22.6189C66.5666 24.2006 55.4504 14.5638 46.2515 27.7076Z" fill="#F5F5F5"/>
<path d="M160.503 9.16679L203.423 9.34366C203.423 9.34366 199.372 0.00505336 190.672 0C184.049 0 183.757 4.1387 179.782 5.32119C175.806 6.50367 167.418 -0.737791 160.503 9.16679Z" fill="#FAFAFA"/>
<path d="M236.284 170.641C236.284 170.717 183.385 170.772 118.147 170.772C52.909 170.772 0 170.717 0 170.641C0 170.566 52.8839 170.51 118.147 170.51C183.41 170.51 236.284 170.571 236.284 170.641Z" fill="#373737"/>
<path d="M212.089 97.2925H184.206V170.581H212.089V97.2925Z" fill="#8E8E8E"/>
<path d="M212.084 97.2925H198.145V170.581H212.084V97.2925Z" fill="#373737"/>
<path d="M197.239 88.5806H187.391V97.2926H197.239V88.5806Z" fill="#8E8E8E"/>
<path d="M197.234 88.5806H194.889V97.2926H197.234V88.5806Z" fill="#373737"/>
<path d="M212.904 96.7822H181.88V97.2926H212.904V96.7822Z" fill="#8E8E8E"/>
<path d="M192.071 101.092H189.71V106.09H192.071V101.092Z" fill="#373737"/>
<path d="M198.145 108.051C198.145 108.101 195.025 108.146 191.175 108.146C187.326 108.146 184.206 108.101 184.206 108.051C184.206 108 187.326 107.955 191.175 107.955C195.025 107.955 198.145 107.98 198.145 108.051Z" fill="#373737"/>
<path d="M206.131 101.092H203.771V106.09H206.131V101.092Z" fill="#8E8E8E"/>
<path d="M212.21 108.051C212.21 108.101 209.09 108.146 205.24 108.146C201.391 108.146 198.271 108.101 198.271 108.051C198.271 108 201.391 107.955 205.24 107.955C209.09 107.955 212.21 107.98 212.21 108.051Z" fill="#8E8E8E"/>
<path d="M206.131 111.012H203.771V116.01H206.131V111.012Z" fill="#8E8E8E"/>
<path d="M212.21 117.97C212.21 118.025 209.09 118.066 205.24 118.066C201.391 118.066 198.271 118.025 198.271 117.97C198.271 117.915 201.391 117.875 205.24 117.875C209.09 117.875 212.21 117.92 212.21 117.97Z" fill="#8E8E8E"/>
<path d="M206.131 121.235H203.771V126.233H206.131V121.235Z" fill="#8E8E8E"/>
<path d="M212.21 128.193C212.21 128.244 209.09 128.289 205.24 128.289C201.391 128.289 198.271 128.244 198.271 128.193C198.271 128.143 201.391 128.098 205.24 128.098C209.09 128.098 212.21 128.138 212.21 128.193Z" fill="#8E8E8E"/>
<path d="M206.131 131.453H203.771V136.451H206.131V131.453Z" fill="#8E8E8E"/>
<path d="M212.21 138.411C212.21 138.467 209.09 138.507 205.24 138.507C201.391 138.507 198.271 138.467 198.271 138.411C198.271 138.356 201.391 138.321 205.24 138.321C209.09 138.321 212.21 138.361 212.21 138.411Z" fill="#8E8E8E"/>
<path d="M206.131 141.383H203.771V146.381H206.131V141.383Z" fill="#8E8E8E"/>
<path d="M212.21 148.341C212.21 148.397 209.09 148.437 205.24 148.437C201.391 148.437 198.271 148.397 198.271 148.341C198.271 148.286 201.391 148.246 205.24 148.246C209.09 148.246 212.21 148.291 212.21 148.341Z" fill="#8E8E8E"/>
<path d="M206.131 151.353H203.771V156.351H206.131V151.353Z" fill="#8E8E8E"/>
<path d="M206.131 161.455H203.771V166.453H206.131V161.455Z" fill="#8E8E8E"/>
<path d="M212.21 158.311C212.21 158.367 209.09 158.407 205.24 158.407C201.391 158.407 198.271 158.367 198.271 158.311C198.271 158.256 201.391 158.216 205.24 158.216C209.09 158.216 212.21 158.261 212.21 158.311Z" fill="#8E8E8E"/>
<path d="M192.071 111.164H189.71V116.162H192.071V111.164Z" fill="#373737"/>
<path d="M198.145 118.122C198.145 118.172 195.025 118.218 191.175 118.218C187.326 118.218 184.206 118.172 184.206 118.122C184.206 118.072 187.326 118.026 191.175 118.026C195.025 118.026 198.145 118.087 198.145 118.122Z" fill="#373737"/>
<path d="M192.071 121.235H189.71V126.233H192.071V121.235Z" fill="#373737"/>
<path d="M198.145 128.194C198.145 128.249 195.025 128.289 191.175 128.289C187.326 128.289 184.206 128.249 184.206 128.194C184.206 128.138 187.326 128.103 191.175 128.103C195.025 128.103 198.145 128.143 198.145 128.194Z" fill="#373737"/>
<path d="M192.071 131.312H189.71V136.309H192.071V131.312Z" fill="#373737"/>
<path d="M198.145 138.27C198.145 138.32 195.025 138.366 191.175 138.366C187.326 138.366 184.206 138.32 184.206 138.27C184.206 138.22 187.326 138.174 191.175 138.174C195.025 138.174 198.145 138.215 198.145 138.27Z" fill="#373737"/>
<path d="M192.071 141.383H189.71V146.381H192.071V141.383Z" fill="#373737"/>
<path d="M198.145 148.341C198.145 148.397 195.025 148.437 191.175 148.437C187.326 148.437 184.206 148.397 184.206 148.341C184.206 148.286 187.326 148.246 191.175 148.246C195.025 148.246 198.145 148.291 198.145 148.341Z" fill="#373737"/>
<path d="M192.071 151.459H189.71V156.457H192.071V151.459Z" fill="#373737"/>
<path d="M198.145 158.417C198.145 158.468 195.025 158.513 191.175 158.513C187.326 158.513 184.206 158.468 184.206 158.417C184.206 158.367 187.326 158.322 191.175 158.322C195.025 158.322 198.145 158.362 198.145 158.417Z" fill="#373737"/>
<path d="M192.071 161.531H189.71V166.529H192.071V161.531Z" fill="#373737"/>
<path d="M142.266 71.1011H104.962V170.612H142.266V71.1011Z" fill="#8E8E8E"/>
<path d="M142.272 71.1011H127.955V170.612H142.272V71.1011Z" fill="#373737"/>
<path d="M136.53 78.9536H133.697V84.957H136.53V78.9536Z" fill="#8E8E8E"/>
<path d="M136.53 89.4849H133.697V95.4883H136.53V89.4849Z" fill="#8E8E8E"/>
<path d="M136.53 101.28H133.697V107.283H136.53V101.28Z" fill="#8E8E8E"/>
<path d="M136.53 112.548H133.697V118.552H136.53V112.548Z" fill="#8E8E8E"/>
<path d="M136.53 123.823H133.697V129.826H136.53V123.823Z" fill="#8E8E8E"/>
<path d="M136.53 135.091H133.697V141.095H136.53V135.091Z" fill="#8E8E8E"/>
<path d="M136.53 146.366H133.697V152.369H136.53V146.366Z" fill="#8E8E8E"/>
<path d="M136.53 158.756H133.697V164.76H136.53V158.756Z" fill="#8E8E8E"/>
<path d="M144.129 70.4741H101.717V71.6364H144.129V70.4741Z" fill="#373737"/>
<path d="M135.116 63.4702H120.014V71.0553H135.116V63.4702Z" fill="#373737"/>
<path d="M127.955 63.4702H120.014V70.4742H127.955V63.4702Z" fill="#8E8E8E"/>
<path d="M113.105 78.7061H110.272V84.7094H113.105V78.7061Z" fill="#373737"/>
<path d="M120.653 78.7061H117.82V84.7094H120.653V78.7061Z" fill="#373737"/>
<path d="M113.105 90.1421H110.272V96.1455H113.105V90.1421Z" fill="#373737"/>
<path d="M120.653 90.1421H117.82V96.1455H120.653V90.1421Z" fill="#373737"/>
<path d="M113.105 101.578H110.272V107.581H113.105V101.578Z" fill="#373737"/>
<path d="M120.653 101.578H117.82V107.581H120.653V101.578Z" fill="#373737"/>
<path d="M113.105 113.014H110.272V119.017H113.105V113.014Z" fill="#373737"/>
<path d="M120.653 113.014H117.82V119.017H120.653V113.014Z" fill="#373737"/>
<path d="M113.105 124.449H110.272V130.453H113.105V124.449Z" fill="#373737"/>
<path d="M120.653 124.449H117.82V130.453H120.653V124.449Z" fill="#373737"/>
<path d="M113.105 135.885H110.272V141.888H113.105V135.885Z" fill="#373737"/>
<path d="M120.653 135.885H117.82V141.888H120.653V135.885Z" fill="#373737"/>
<path d="M113.105 147.321H110.272V153.324H113.105V147.321Z" fill="#373737"/>
<path d="M120.653 147.321H117.82V153.324H120.653V147.321Z" fill="#373737"/>
<path d="M113.105 158.756H110.272V164.76H113.105V158.756Z" fill="#373737"/>
<path d="M120.653 158.756H117.82V164.76H120.653V158.756Z" fill="#373737"/>
<path d="M127.955 87.0646C127.955 87.1656 122.807 87.2465 116.461 87.2465C110.115 87.2465 104.962 87.1656 104.962 87.0646C104.962 86.9635 110.11 86.8877 116.461 86.8877C122.812 86.8877 127.955 86.9686 127.955 87.0646Z" fill="#373737"/>
<path d="M127.955 98.5406C127.955 98.6417 122.807 98.7226 116.461 98.7226C110.115 98.7226 104.962 98.6417 104.962 98.5406C104.962 98.4396 110.11 98.3638 116.461 98.3638C122.812 98.3638 127.955 98.4446 127.955 98.5406Z" fill="#373737"/>
<path d="M127.955 110.158C127.955 110.254 122.807 110.335 116.461 110.335C110.115 110.335 104.962 110.254 104.962 110.158C104.962 110.062 110.11 109.977 116.461 109.977C122.812 109.977 127.955 110.057 127.955 110.158Z" fill="#373737"/>
<path d="M127.955 121.69C127.955 121.786 122.807 121.867 116.461 121.867C110.115 121.867 104.962 121.786 104.962 121.69C104.962 121.594 110.11 121.508 116.461 121.508C122.812 121.508 127.955 121.589 127.955 121.69Z" fill="#373737"/>
<path d="M127.955 133.055C127.955 133.151 122.807 133.232 116.461 133.232C110.115 133.232 104.962 133.151 104.962 133.055C104.962 132.959 110.11 132.873 116.461 132.873C122.812 132.873 127.955 132.954 127.955 133.055Z" fill="#373737"/>
<path d="M127.955 144.112C127.955 144.208 122.807 144.288 116.461 144.288C110.115 144.288 104.962 144.208 104.962 144.112C104.962 144.016 110.11 143.93 116.461 143.93C122.812 143.93 127.955 144.011 127.955 144.112Z" fill="#373737"/>
<path d="M127.955 156.366C127.955 156.462 122.807 156.543 116.461 156.543C110.115 156.543 104.962 156.462 104.962 156.366C104.962 156.27 110.11 156.184 116.461 156.184C122.812 156.184 127.955 156.265 127.955 156.366Z" fill="#373737"/>
<path d="M142.106 87.0646C142.106 87.1656 139.041 87.2465 135.262 87.2465C131.483 87.2465 128.418 87.1656 128.418 87.0646C128.418 86.9635 131.478 86.8877 135.262 86.8877C139.046 86.8877 142.106 86.9686 142.106 87.0646Z" fill="#8E8E8E"/>
<path d="M142.106 98.5406C142.106 98.6417 139.041 98.7226 135.262 98.7226C131.483 98.7226 128.418 98.6417 128.418 98.5406C128.418 98.4396 131.478 98.3638 135.262 98.3638C139.046 98.3638 142.106 98.4446 142.106 98.5406Z" fill="#8E8E8E"/>
<path d="M142.106 110.002C142.106 110.103 139.041 110.183 135.262 110.183C131.483 110.183 128.418 110.118 128.418 110.002C128.418 109.885 131.478 109.825 135.262 109.825C139.046 109.825 142.106 109.921 142.106 110.002Z" fill="#8E8E8E"/>
<path d="M141.955 121.69C141.955 121.786 138.89 121.867 135.111 121.867C131.332 121.867 128.267 121.786 128.267 121.69C128.267 121.594 131.332 121.508 135.111 121.508C138.89 121.508 141.955 121.589 141.955 121.69Z" fill="#8E8E8E"/>
<path d="M141.955 133.055C141.955 133.151 138.89 133.232 135.111 133.232C131.332 133.232 128.267 133.151 128.267 133.055C128.267 132.959 131.332 132.873 135.111 132.873C138.89 132.873 141.955 132.954 141.955 133.055Z" fill="#8E8E8E"/>
<path d="M141.955 144.42C141.955 144.516 138.89 144.597 135.111 144.597C131.332 144.597 128.267 144.516 128.267 144.42C128.267 144.324 131.332 144.238 135.111 144.238C138.89 144.238 141.955 144.319 141.955 144.42Z" fill="#8E8E8E"/>
<path d="M141.955 156.366C141.955 156.462 138.89 156.543 135.111 156.543C131.332 156.543 128.267 156.462 128.267 156.366C128.267 156.27 131.332 156.184 135.111 156.184C138.89 156.184 141.955 156.265 141.955 156.366Z" fill="#8E8E8E"/>
<path d="M149.15 135.981H134.109V170.642H149.15V135.981Z" fill="#BF5F82"/>
<path opacity="0.2" d="M149.15 135.981H134.109V170.642H149.15V135.981Z" fill="#373737"/>
<path d="M130.591 135.839H167.704L174.639 125.955L181.905 136.122L190.45 135.986L181.241 123.529L139.861 123.706L130.591 135.839Z" fill="#BF5F82"/>
<path opacity="0.2" d="M130.591 135.839H167.704L174.639 125.955L181.905 136.122L190.45 135.986L181.241 123.529L139.861 123.706L130.591 135.839Z" fill="white"/>
<path d="M149.15 135.986V170.642H186.213V135.986H181.961L174.639 125.955L167.679 135.829L149.15 135.986Z" fill="#BF5F82"/>
<g opacity="0.2">
<path opacity="0.2" d="M154.389 170.642V155.618H163.055V170.642" fill="#373737"/>
</g>
<path opacity="0.7" d="M181.91 155.194H168.253V163.689H181.91V155.194Z" fill="white"/>
<path opacity="0.7" d="M181.91 138.194H168.253V146.689H181.91V138.194Z" fill="white"/>
<path opacity="0.7" d="M162.149 138.27H153.539V146.456H162.149V138.27Z" fill="white"/>
<path d="M172.259 155.194H172.133V163.769H172.259V155.194Z" fill="#BF5F82"/>
<path d="M177.935 155.194H177.809V163.769H177.935V155.194Z" fill="#BF5F82"/>
<path d="M177.869 159.676H172.193V159.802H177.869V159.676Z" fill="#BF5F82"/>
<path d="M172.259 138.194H172.133V146.77H172.259V138.194Z" fill="#BF5F82"/>
<path d="M177.935 138.194H177.809V146.77H177.935V138.194Z" fill="#BF5F82"/>
<path d="M177.869 142.677H172.193V142.803H177.869V142.677Z" fill="#BF5F82"/>
<path d="M157.907 138.27H157.781V146.456H157.907V138.27Z" fill="#BF5F82"/>
<path d="M162.149 142.5H153.539V142.626H162.149V142.5Z" fill="#BF5F82"/>
<path opacity="0.7" d="M176.445 132.57C176.445 132.933 176.338 133.287 176.138 133.589C175.937 133.891 175.652 134.126 175.318 134.264C174.984 134.403 174.617 134.44 174.262 134.369C173.908 134.298 173.582 134.123 173.327 133.867C173.072 133.61 172.898 133.283 172.827 132.928C172.757 132.572 172.793 132.203 172.931 131.868C173.069 131.533 173.303 131.246 173.604 131.044C173.904 130.843 174.257 130.735 174.619 130.735C175.103 130.737 175.567 130.93 175.909 131.274C176.251 131.618 176.444 132.084 176.445 132.57Z" fill="white"/>
<path d="M161.59 130.321L163.895 127.466V120.599H159.069V130.372L161.59 130.321Z" fill="#BF5F82"/>
<path opacity="0.2" d="M161.59 130.321V120.599H163.895V127.466L161.59 130.321Z" fill="#373737"/>
<path d="M164.222 119.588H158.531V120.599H164.222V119.588Z" fill="#BF5F82"/>
<path d="M149.578 151.146H121.161V170.647H149.578V151.146Z" fill="#BF5F82"/>
<path opacity="0.2" d="M138.683 151.146H121.161V170.647H138.683V151.146Z" fill="#373737"/>
<path d="M134.995 170.612C134.976 170.529 134.967 170.444 134.969 170.359C134.969 170.162 134.969 169.919 134.969 169.626C134.969 168.949 134.969 168.029 134.929 166.882C134.929 164.507 134.899 161.228 134.879 157.433L135.02 157.574H124.618L124.754 157.433C124.754 161.228 124.719 164.507 124.704 166.882C124.704 168.029 124.673 168.949 124.663 169.626C124.663 169.919 124.663 170.162 124.638 170.359C124.647 170.443 124.647 170.528 124.638 170.612C124.616 170.529 124.607 170.444 124.613 170.359C124.613 170.162 124.613 169.919 124.613 169.626C124.613 168.949 124.613 168.029 124.573 166.882C124.573 164.512 124.543 161.228 124.522 157.433V157.291H135.181V157.433C135.156 161.228 135.14 164.507 135.125 166.882C135.125 168.029 135.095 168.949 135.085 169.626C135.085 169.919 135.085 170.162 135.085 170.359C135.063 170.446 135.033 170.531 134.995 170.612Z" fill="#373737"/>
<path opacity="0.2" d="M148.26 156.932H140.877V158.822H148.26V156.932Z" fill="#373737"/>
<path d="M130.591 135.839V136.845H167.679V135.829L130.591 135.839Z" fill="#BF5F82"/>
<path d="M167.679 136.845L174.619 127.067L174.639 125.955L167.704 135.839L167.679 136.845Z" fill="#BF5F82"/>
<path d="M190.269 135.981H181.961V136.628H190.269V135.981Z" fill="#BF5F82"/>
<path d="M160.101 153.314H157.036V154.486H160.101V153.314Z" fill="#373737"/>
<path opacity="0.3" d="M130.591 135.839V136.845H167.679V135.829L130.591 135.839Z" fill="#373737"/>
<path opacity="0.3" d="M167.679 136.845L174.619 127.067L174.639 125.955L167.704 135.839L167.679 136.845Z" fill="#373737"/>
<path opacity="0.3" d="M190.269 135.981H181.961V136.628H190.269V135.981Z" fill="#373737"/>
<path d="M162.355 163.198C162.33 163.198 162.355 163.006 162.129 162.86C162.071 162.821 162.005 162.796 161.936 162.788C161.867 162.78 161.796 162.789 161.731 162.814C161.655 162.845 161.59 162.899 161.544 162.967C161.498 163.035 161.474 163.116 161.474 163.198C161.474 163.281 161.498 163.362 161.544 163.43C161.59 163.498 161.655 163.552 161.731 163.583C161.796 163.608 161.867 163.617 161.936 163.609C162.005 163.601 162.071 163.576 162.129 163.537C162.335 163.391 162.33 163.193 162.355 163.198C162.381 163.204 162.441 163.416 162.204 163.638C162.132 163.698 162.045 163.738 161.953 163.755C161.86 163.772 161.765 163.764 161.676 163.734C161.565 163.696 161.468 163.624 161.4 163.528C161.331 163.432 161.294 163.317 161.294 163.198C161.294 163.08 161.331 162.965 161.4 162.869C161.468 162.773 161.565 162.701 161.676 162.663C161.765 162.632 161.86 162.625 161.953 162.642C162.045 162.659 162.132 162.699 162.204 162.759C162.441 162.986 162.37 163.214 162.355 163.198Z" fill="#373737"/>
<path d="M91.8081 113.205C91.8081 113.205 84.0031 143.02 73.5108 148.619C66.5965 152.308 60.4924 147.907 56.4012 140.933L41.6064 117.021C41.2293 115.658 41.3837 114.202 42.0382 112.95C42.6926 111.697 43.7979 110.742 45.129 110.28L57.463 105.959L69.7518 127.956L85.4775 108.753" fill="#EB996E"/>
<path d="M15.011 115.282C15.2827 117.223 20.1489 131.488 20.1489 131.488C20.1489 131.488 42.2304 125.217 41.9989 124.116C41.8077 123.221 38.3555 109.011 33.746 101.002C32.8819 99.4575 31.67 98.1378 30.2073 97.1481C28.7446 96.1583 27.0716 95.5259 25.322 95.3014C24.3458 95.1902 22.1769 96.0998 21.578 96.3979C16.8779 98.7579 12.9075 100.294 15.011 115.282Z" fill="#8E8E8E"/>
<path d="M49.6328 94.3362C58.1122 96.7062 58.4946 100.577 62.7418 107.404L69.4297 119.633L58.2883 126.764L56.2452 131.362L55.1431 170.91L10.2505 170.687L18.3021 138.674L15.0915 117.652C14.7946 114.337 13.8435 108.142 14.86 104.943C18.0454 94.9477 29.9266 93.8814 37.2334 92.3654C38.7431 92.0521 40.1974 92.5322 41.4252 92.9061" fill="#8E8E8E"/>
<path d="M56.1343 133.394C56.0994 133.058 56.0893 132.72 56.1041 132.383C56.1041 131.675 56.1041 130.736 56.1394 129.604V129.578C56.7007 128.577 57.19 127.537 57.6037 126.465C58.1198 125.194 58.2494 123.798 57.9761 122.453C57.6138 120.937 56.7784 119.664 56.2199 118.41C55.7127 117.287 55.3735 116.095 55.2134 114.873C55.1081 114.057 55.0862 113.232 55.148 112.412C55.148 112.119 55.2034 111.907 55.2285 111.745C55.2335 111.667 55.2522 111.59 55.2839 111.518C55.3016 111.817 55.3016 112.118 55.2839 112.417C55.2633 113.229 55.3155 114.04 55.4399 114.843C55.6229 116.032 55.9736 117.189 56.4815 118.279C57.0351 119.512 57.8906 120.806 58.273 122.372C58.5611 123.772 58.4225 125.227 57.8755 126.546C57.452 127.624 56.9473 128.668 56.3658 129.669V129.619C56.3104 130.751 56.2702 131.691 56.235 132.398C56.231 132.732 56.1974 133.065 56.1343 133.394Z" fill="#373737"/>
<path d="M49.9849 92.9465C50.0234 93.0437 50.0487 93.1457 50.0604 93.2497C50.1147 93.5451 50.1483 93.844 50.161 94.1441C50.2013 95.2563 50.0164 96.3652 49.6175 97.4035C49.0264 98.9549 48.0069 100.305 46.6787 101.295C45.0143 102.485 42.9743 103.024 40.9419 102.811C39.8975 102.703 38.8775 102.425 37.9226 101.987C37.0399 101.57 36.2295 101.014 35.5222 100.34C34.3394 99.1897 33.4385 97.7799 32.8904 96.2211C32.5192 95.1776 32.3071 94.0839 32.2613 92.9768C32.2423 92.6773 32.2423 92.3768 32.2613 92.0773C32.258 91.9737 32.2682 91.87 32.2915 91.769C32.3267 91.769 32.2915 92.1986 32.362 92.9717C32.4515 94.059 32.6903 95.1287 33.0715 96.1503C33.6313 97.6654 34.53 99.0312 35.6983 100.142C36.3863 100.793 37.1749 101.327 38.0333 101.724C38.9566 102.147 39.9425 102.415 40.952 102.518C42.9074 102.731 44.8737 102.227 46.4875 101.098C47.5725 100.299 48.4562 99.2565 49.0679 98.0535C49.6796 96.8504 50.0023 95.5202 50.01 94.1694C50.0453 93.376 49.9497 92.9515 49.9849 92.9465Z" fill="#373737"/>
<path d="M67.3963 115.939C66.978 116.253 66.5336 116.53 66.0678 116.768C65.2374 117.273 64.08 117.92 62.8219 118.683C61.5639 119.446 60.4417 120.159 59.6265 120.674C59.2015 120.978 58.7502 121.244 58.2778 121.467C58.6585 121.106 59.0731 120.783 59.5158 120.502C60.3008 119.941 61.4129 119.198 62.676 118.43C63.9391 117.662 65.1116 117.025 65.9721 116.586C66.4234 116.322 66.9007 116.105 67.3963 115.939Z" fill="#373737"/>
<path d="M16.3899 116.465C16.3899 116.465 16.4201 116.556 16.4754 116.732L16.6868 117.521L17.4768 120.553C18.1461 123.181 19.1023 126.93 20.2647 131.473L20.1188 131.392L40.8818 124.878L41.385 124.692L41.2894 124.858C40.2904 120.189 38.9241 115.606 37.2032 111.154C35.5929 107.07 33.7461 103.528 31.6678 100.976C30.7414 99.8148 29.6313 98.8144 28.3817 98.0148C27.4435 97.4042 26.374 97.0266 25.2617 96.9132C25.0487 96.8782 24.8334 96.8596 24.6176 96.8576L24.0439 96.8879C23.8678 96.8879 23.7068 96.8879 23.5407 96.9233L23.1482 97.0092L22.6047 97.1204C22.5433 97.1341 22.4811 97.1442 22.4185 97.1507C22.4747 97.1239 22.5338 97.1035 22.5946 97.0901L23.1331 96.9536L23.5306 96.8526C23.6816 96.8222 23.8477 96.8222 24.0339 96.802L24.6126 96.7616C24.8312 96.7589 25.0497 96.7707 25.2668 96.797C26.4004 96.8954 27.4943 97.2644 28.4572 97.8733C29.726 98.6666 30.8551 99.6655 31.7986 100.83C33.9474 103.392 35.8244 106.944 37.4498 111.037C39.189 115.501 40.569 120.097 41.5763 124.782V124.909L41.4555 124.949L40.9523 125.136C33.1674 127.617 25.9562 129.806 20.154 131.599L20.0383 131.635L20.0081 131.519C18.8859 126.971 17.965 123.206 17.3158 120.573C17.0038 119.274 16.7623 118.254 16.5912 117.541L16.41 116.748C16.3914 116.655 16.3847 116.559 16.3899 116.465Z" fill="#373737"/>
<path d="M40.6702 122.018C40.6702 122.099 35.8997 123.489 29.9666 125.131C24.0336 126.774 19.2178 128.037 19.2178 127.961C19.2178 127.885 23.9833 126.491 29.9163 124.848C35.8493 123.206 40.6451 121.943 40.6702 122.018Z" fill="#373737"/>
<path d="M38.8433 57.3303C37.4695 54.3387 33.6903 52.9288 30.5049 53.7222C27.3195 54.5156 24.8034 57.1282 23.4597 60.1248C22.1161 63.1214 21.7588 66.492 21.7337 69.7868C21.7337 71.5302 21.8092 73.2939 21.4569 75.0019C21.1047 76.7099 20.2693 78.3977 18.8099 79.3478C17.6626 80.0957 16.2536 80.318 15.0207 80.9143C13.7878 81.5106 12.6555 82.779 12.9625 84.1232C13.3248 85.7251 15.3276 86.2052 16.9531 86.3719C16.9804 87.3606 17.2854 88.3214 17.8331 89.1434C18.3808 89.9654 19.1488 90.6152 20.0484 91.0177C20.948 91.4203 21.9427 91.5593 22.9176 91.4186C23.8924 91.2779 24.8079 90.8633 25.5582 90.2226C25.055 92.2439 26.8314 94.3259 28.8744 94.5685C30.9175 94.8111 32.9002 93.5275 34.0375 91.7891C35.1748 90.0508 35.4969 87.9284 35.5824 85.8615C35.668 83.7947 35.522 81.7026 35.7233 79.6813" fill="#373737"/>
<path d="M62.0274 61.0951C62.0274 61.0951 63.5371 50.9379 49.6179 50.7509C34.0481 50.5437 31.2401 63.8897 33.9072 70.9189L41.6468 63.2176L62.0274 61.0951Z" fill="#373737"/>
<path d="M49.8138 94.3361C49.9698 91.6325 50.0855 89.4293 50.0855 89.4293C50.0855 89.4293 58.0566 89.6163 59.2291 82.678C60.4016 75.7397 61.7452 59.5791 61.7452 59.5791C58.2634 57.318 54.1908 56.1473 50.045 56.2157C45.8991 56.2841 41.867 57.5885 38.461 59.9631L37.8068 60.418L32.7746 92.5017C32.4157 94.7512 32.9586 97.0519 34.2845 98.9005C35.6105 100.749 37.6115 101.995 39.8499 102.366C41.0392 102.563 42.2564 102.506 43.4224 102.199C44.5883 101.892 45.6768 101.342 46.6168 100.584C47.5569 99.8269 48.3274 98.8789 48.8782 97.8023C49.4291 96.7257 49.7478 95.5447 49.8138 94.3361Z" fill="#FFBE9D"/>
<path d="M58.9022 71.8943C58.8756 72.0643 58.7998 72.2228 58.6844 72.35C58.5689 72.4772 58.4188 72.5676 58.2526 72.61C58.0865 72.6523 57.9116 72.6448 57.7497 72.5882C57.5878 72.5317 57.4459 72.4287 57.3418 72.292C57.2376 72.1552 57.1757 71.9908 57.1638 71.8191C57.1518 71.6474 57.1903 71.4759 57.2744 71.326C57.3586 71.176 57.4848 71.0541 57.6373 70.9755C57.7898 70.8969 57.9619 70.8649 58.1323 70.8836C58.2495 70.8979 58.3627 70.9355 58.4652 70.9944C58.5677 71.0532 58.6574 71.132 58.7292 71.2262C58.8009 71.3203 58.8532 71.4279 58.8829 71.5427C58.9126 71.6574 58.9192 71.777 58.9022 71.8943Z" fill="#373737"/>
<path d="M59.5465 71.0605C59.4207 71.1666 58.842 70.5551 57.911 70.3783C56.98 70.2014 56.2302 70.6107 56.1497 70.4743C56.0692 70.3378 56.2453 70.2115 56.5775 70.0245C57.0161 69.7934 57.5189 69.7152 58.0066 69.8022C58.4968 69.8858 58.946 70.1291 59.2848 70.4945C59.5415 70.7825 59.6069 71.015 59.5465 71.0605Z" fill="#373737"/>
<path d="M49.5575 70.9948C49.5538 71.1159 49.5253 71.2349 49.4737 71.3444C49.4221 71.4539 49.3485 71.5515 49.2576 71.6311C49.1666 71.7107 49.0603 71.7706 48.9452 71.8069C48.8301 71.8433 48.7088 71.8554 48.5889 71.8425C48.4689 71.8296 48.3529 71.7919 48.2482 71.7319C48.1434 71.6718 48.0521 71.5907 47.9801 71.4935C47.908 71.3964 47.8567 71.2853 47.8294 71.1673C47.8021 71.0493 47.7993 70.9269 47.8213 70.8078C47.825 70.6867 47.8535 70.5677 47.9051 70.4582C47.9567 70.3487 48.0303 70.2511 48.1212 70.1715C48.2122 70.0919 48.3185 70.032 48.4336 69.9957C48.5487 69.9593 48.67 69.9472 48.7899 69.9601C48.9099 69.973 49.0259 70.0107 49.1306 70.0707C49.2354 70.1308 49.3267 70.2119 49.3988 70.3091C49.4708 70.4062 49.5221 70.5173 49.5494 70.6353C49.5767 70.7533 49.5795 70.8757 49.5575 70.9948Z" fill="#373737"/>
<path d="M50.0202 70.2062C49.8994 70.3123 49.3156 69.6756 48.3897 69.524C47.4638 69.3724 46.7089 69.7565 46.6234 69.615C46.5831 69.5543 46.724 69.3522 47.0562 69.1703C47.4947 68.9387 47.9976 68.8605 48.4853 68.9479C48.9758 69.0308 49.4252 69.2742 49.7635 69.6402C50.0151 69.9232 50.0805 70.1607 50.0202 70.2062Z" fill="#373737"/>
<path d="M51.2227 77.4326C51.7403 77.4006 52.2598 77.438 52.7676 77.5438C53.0091 77.5792 53.2406 77.5893 53.3211 77.4276C53.3926 77.1714 53.3926 76.9005 53.3211 76.6443C53.2456 75.9773 53.1701 75.2799 53.0896 74.5472C52.7927 71.5657 52.6417 69.1451 52.7525 69.13C52.8632 69.1148 53.1953 71.5202 53.4972 74.5017C53.5627 75.2344 53.6281 75.9318 53.6885 76.5988C53.761 76.9394 53.7203 77.2944 53.5727 77.6095C53.5201 77.6865 53.4505 77.7503 53.3694 77.7959C53.2882 77.8415 53.1976 77.8676 53.1047 77.8723C52.9675 77.8747 52.8305 77.8594 52.6971 77.8268C52.19 77.7636 51.6939 77.631 51.2227 77.4326Z" fill="#373737"/>
<path d="M50.1107 89.4292C46.8927 88.9322 43.8885 87.5046 41.4653 85.3208C41.4653 85.3208 43.1562 90.8391 49.9849 91.2939L50.1107 89.4292Z" fill="#EB996E"/>
<path d="M50.3122 80.1869C50.2922 79.8849 50.1987 79.5924 50.0399 79.3351C49.8811 79.0778 49.6619 78.8636 49.4014 78.7113C49.2213 78.6036 49.0202 78.5361 48.8118 78.5134C48.6034 78.4907 48.3926 78.5134 48.1937 78.5799C47.9973 78.6533 47.8273 78.7839 47.7054 78.955C47.5834 79.126 47.5152 79.3298 47.5093 79.54C47.5383 79.7731 47.6342 79.9927 47.7852 80.1721C47.9361 80.3515 48.1357 80.4831 48.3597 80.5507C48.8152 80.6764 49.2919 80.7039 49.7587 80.6316C49.8888 80.6277 50.017 80.5986 50.1361 80.5457C50.1942 80.517 50.2431 80.4723 50.2769 80.4168C50.3108 80.3614 50.3283 80.2974 50.3273 80.2324" fill="#EB996E"/>
<path d="M48.2793 77.6602C48.2139 77.6602 48.0629 77.8926 48.0377 78.3525C48.0196 78.9627 48.2222 79.559 48.6079 80.0309C48.9937 80.5028 49.5366 80.8185 50.1362 80.9196C50.5941 80.9853 50.8659 80.8842 50.8608 80.8135C50.8608 80.6568 49.7839 80.6012 49.0341 79.6815C48.2843 78.7618 48.4303 77.6854 48.2793 77.6602Z" fill="#373737"/>
<path d="M36.8307 69.4687C36.725 69.3929 32.8653 67.7203 31.7632 72.2834C30.6612 76.8466 35.935 76.3817 35.9752 76.2503C36.0155 76.1189 36.8307 69.4687 36.8307 69.4687Z" fill="#FFBE9D"/>
<path d="M34.8931 74.3349C34.8931 74.3349 34.7975 74.3703 34.6365 74.4006C34.4175 74.4383 34.1923 74.3953 34.0024 74.2793C33.5294 73.9913 33.2828 73.1373 33.4589 72.3085C33.5386 71.9115 33.7111 71.5391 33.9622 71.2221C34.0462 71.0861 34.1612 70.9722 34.2977 70.8896C34.4342 70.807 34.5882 70.7582 34.7472 70.747C34.8473 70.7421 34.9461 70.7714 35.0274 70.8302C35.1087 70.8889 35.1679 70.9736 35.1951 71.0705C35.2303 71.212 35.1951 71.2979 35.1951 71.313C35.1951 71.3282 35.3158 71.2574 35.3259 71.0604C35.3233 70.941 35.2788 70.8264 35.2001 70.7369C35.0869 70.6113 34.9304 70.5336 34.7623 70.5196C34.5585 70.5111 34.3557 70.5527 34.1715 70.6408C33.9874 70.7288 33.8274 70.8607 33.7055 71.025C33.4067 71.3705 33.1991 71.7857 33.1016 72.2327C32.9104 73.1625 33.2023 74.1277 33.8615 74.4663C33.9853 74.5292 34.1208 74.5658 34.2594 74.5736C34.3979 74.5814 34.5366 74.5604 34.6667 74.5118C34.8579 74.4411 34.9082 74.345 34.8931 74.3349Z" fill="#EB996E"/>
<path d="M60.1654 56.3802C60.9654 56.9616 61.5663 57.7776 61.8853 58.7161C62.2044 59.6546 62.2258 60.6693 61.9468 61.6206C61.2624 63.8036 59.2344 66.1686 53.5983 66.0928L54.8815 64.6627C53.6134 65.6342 52.1314 66.2854 50.5603 66.5615C48.9892 66.8377 47.375 66.7306 45.8537 66.2494L47.4338 63.177C47.4338 63.177 40.3081 70.7621 36.3276 71.0906L36.8309 63.0052C37.792 55.3746 41.0479 53.0854 45.9744 52.6761C47.8043 52.5091 49.6467 52.5413 51.4697 52.7721C54.6252 53.2178 57.6169 54.4592 60.1654 56.3802Z" fill="#373737"/>
<path d="M32.3019 49.7705C32.6771 49.862 33.0331 50.0194 33.3537 50.2354C34.9721 51.1848 36.2573 52.6149 37.0323 54.3286C37.2124 54.6708 37.3316 55.0419 37.3845 55.4252C37.299 55.4656 36.7354 53.7728 35.2911 52.1911C33.8468 50.6094 32.2516 49.8665 32.3019 49.7705Z" fill="#373737"/>
<path d="M17.9548 75.6386C17.9548 75.6386 17.8592 75.5376 17.6428 75.4011C17.3218 75.2066 16.9506 75.1116 16.576 75.1283C16.2859 75.1355 16.0008 75.2056 15.7402 75.3338C15.4796 75.462 15.2498 75.6453 15.0663 75.8711C14.8445 76.1871 14.7056 76.5542 14.6625 76.9385C14.6194 77.3227 14.6735 77.7116 14.8197 78.0693C14.9983 78.499 15.2861 78.8741 15.6543 79.157C16.0226 79.4399 16.4584 79.6207 16.9182 79.6813C17.4505 79.7626 17.9941 79.7255 18.5106 79.5727C19.0271 79.4199 19.5039 79.1551 19.9073 78.797C20.8329 78.0182 21.4724 76.9509 21.724 75.765C21.8574 75.1455 21.8574 74.5046 21.724 73.8851C21.5721 73.2426 21.3457 72.6202 21.0496 72.0305C20.7678 71.4191 20.4659 70.8177 20.2294 70.1861C19.9979 69.5647 19.8474 68.9158 19.7815 68.2557C19.6744 67.0063 19.8199 65.7481 20.2093 64.5566C20.8838 62.5523 22.0564 60.7538 23.6161 59.3315C24.6414 58.3681 25.7533 57.502 26.9374 56.7441C27.355 56.4763 27.6872 56.2742 27.9136 56.1428C28.0257 56.0709 28.1436 56.0083 28.2659 55.9558C28.1672 56.0462 28.0592 56.1258 27.9438 56.1933L27.0028 56.8401C25.8465 57.6234 24.7574 58.5024 23.7469 59.4679C22.2408 60.888 21.1084 62.6606 20.4508 64.6274C20.0829 65.7851 19.9478 67.0047 20.0533 68.2153C20.1239 68.8501 20.2691 69.4744 20.486 70.0749C20.7175 70.6864 21.0195 71.2776 21.3063 71.8992C21.6101 72.5082 21.8415 73.151 21.9957 73.8144C22.1366 74.4722 22.1366 75.1526 21.9957 75.8105C21.7238 77.0558 21.0433 78.1734 20.0633 78.984C19.6303 79.3627 19.1194 79.641 18.5672 79.7991C18.0149 79.9572 17.4347 79.9912 16.8679 79.8986C16.3674 79.8274 15.8947 79.6237 15.4985 79.3084C15.1024 78.9932 14.7969 78.5777 14.6134 78.1047C14.4617 77.7156 14.4103 77.2944 14.464 76.8801C14.5177 76.4658 14.6746 76.0718 14.9204 75.7347C15.1216 75.4942 15.3738 75.3018 15.6585 75.1715C15.9431 75.0413 16.2531 74.9764 16.5659 74.9817C16.9574 74.9743 17.3413 75.091 17.6629 75.3152C17.7808 75.4023 17.8801 75.5123 17.9548 75.6386Z" fill="#373737"/>
<path d="M36.1867 60.3876C36.0279 60.1141 35.9317 59.8086 35.9049 59.4932C35.7865 58.7418 35.8156 57.9745 35.9904 57.2343C36.1606 56.4924 36.4753 55.7917 36.9163 55.1725C37.2585 54.7026 37.5403 54.4752 37.5605 54.5004C37.5806 54.5257 36.6496 55.6172 36.2722 57.3C35.8948 58.9828 36.2772 60.3724 36.1867 60.3876Z" fill="#373737"/>
<path d="M32.03 75.1333C31.7629 75.3668 31.5558 75.6615 31.4262 75.9924C31.371 76.1665 31.3507 76.3499 31.3662 76.532C31.3817 76.7141 31.4329 76.8914 31.5167 77.0536C31.6345 77.2433 31.7943 77.4032 31.9837 77.5207C32.1732 77.6381 32.3871 77.71 32.6087 77.7307C32.829 77.7657 33.0543 77.7512 33.2684 77.6883C33.4824 77.6253 33.6799 77.5156 33.8467 77.3669C34.1072 77.1057 34.2539 76.7512 34.2543 76.3815C34.2385 76.0218 34.1273 75.6729 33.9322 75.3708C33.9322 75.3708 34.0429 75.4112 34.1687 75.5679C34.3442 75.7944 34.4461 76.0696 34.4606 76.3562C34.475 76.5727 34.4449 76.7898 34.3722 76.9941C34.2995 77.1984 34.1857 77.3855 34.0379 77.5438C33.844 77.7277 33.6109 77.8648 33.3562 77.9445C33.1015 78.0242 32.8321 78.0444 32.5685 78.0036C32.3085 77.9789 32.0579 77.8934 31.8368 77.7538C31.6157 77.6143 31.4302 77.4247 31.2953 77.2001C31.2005 77.0043 31.1475 76.7908 31.1397 76.5733C31.1319 76.3557 31.1695 76.1389 31.25 75.9368C31.3491 75.6698 31.5241 75.4378 31.7533 75.2697C31.9143 75.1586 32.025 75.1333 32.03 75.1333Z" fill="#8E8E8E"/>
<path d="M63.1846 63.4196C63.1293 63.4196 63.3507 62.6414 63.3558 61.3983C63.3721 59.7493 62.9385 58.1272 62.102 56.7081C61.2654 55.289 60.0579 54.1271 58.6103 53.3483C57.5083 52.7469 56.7283 52.5751 56.7434 52.5195C56.9305 52.5228 57.1158 52.5569 57.2919 52.6206C57.7799 52.7556 58.2535 52.9384 58.706 53.1664C60.222 53.9205 61.4878 55.1001 62.3497 56.5621C63.2116 58.0241 63.6328 59.7058 63.5621 61.4033C63.5428 61.9139 63.4754 62.4215 63.3608 62.9193C63.3254 63.0935 63.2661 63.2619 63.1846 63.4196Z" fill="#373737"/>
<path d="M50.4682 68.4278C50.438 68.4631 50.2468 68.2812 49.8996 68.069C49.4533 67.7928 48.9513 67.6202 48.4302 67.5636C47.907 67.5109 47.3787 67.5782 46.8853 67.7607C46.4978 67.8972 46.2764 68.0336 46.2512 67.9932C46.2261 67.9528 46.4173 67.7658 46.8048 67.5687C47.3174 67.3138 47.8915 67.2104 48.4604 67.2706C49.0283 67.333 49.5682 67.5515 50.0204 67.9022C50.3575 68.1751 50.4984 68.4076 50.4682 68.4278Z" fill="#373737"/>
<path d="M59.345 69.2815C58.7484 69.3787 58.1401 69.3787 57.5435 69.2815C56.9404 69.2839 56.3408 69.1901 55.7671 69.0036C56.3621 68.9077 56.9686 68.9077 57.5636 69.0036C58.1684 69.0002 58.7698 69.094 59.345 69.2815Z" fill="#373737"/>
<path d="M91.8082 113.205C91.8082 113.205 94.6615 106.398 90.8018 107.141C84.8889 108.273 85.7695 114.049 85.7695 114.049L91.8082 113.205Z" fill="#EB996E"/>
<path d="M97.3036 82.6729C96.8066 82.4957 96.2858 82.3952 95.7587 82.3747C98.9693 84.77 99.8399 90.9351 97.5905 97.1608C95.3964 103.225 90.958 107.364 87.0228 107.333L86.7108 107.252C83.5857 104.802 82.7605 98.7122 84.9797 92.5572C87.1989 86.4022 91.7732 82.1978 95.7537 82.3747C95.3495 82.0699 94.9038 81.8248 94.4302 81.647C90.173 80.0906 84.6375 84.5173 82.1214 91.5314C79.6606 98.3433 80.9388 105.074 84.9344 106.878H84.8539L76.9834 127.092C76.8153 127.521 76.8239 128 77.0075 128.424C77.191 128.847 77.5345 129.179 77.9622 129.348C78.39 129.517 78.867 129.508 79.2884 129.324C79.7097 129.14 80.0409 128.795 80.2091 128.365L88.1601 108.071C92.4324 109.622 97.9478 105.201 100.479 98.1867C103.01 91.1726 101.576 84.2293 97.3036 82.6729Z" fill="#373737"/>
<path d="M93.7505 100.956C93.8067 100.742 93.8878 100.535 93.992 100.339L94.7267 98.7071C95.562 96.9258 96.2129 95.0631 96.6692 93.1484C97.1065 91.2395 97.1065 89.2559 96.6692 87.3471C96.4483 86.5657 96.169 85.8022 95.8338 85.063C95.9809 85.2296 96.1029 85.4169 96.1962 85.6189C96.4803 86.1498 96.7048 86.7108 96.8654 87.2915C97.3723 89.2277 97.4017 91.2588 96.951 93.209C96.4926 95.1362 95.8084 97.0021 94.9129 98.7677C94.5758 99.4448 94.294 99.9906 94.0927 100.36C94.0056 100.573 93.8905 100.773 93.7505 100.956Z" fill="#373737"/>
<path d="M92.9254 102.573C92.9807 102.634 92.7392 102.972 92.3768 103.331C92.0145 103.69 91.6824 103.933 91.627 103.877C91.5717 103.821 91.8132 103.483 92.1755 103.124C92.5379 102.765 92.87 102.518 92.9254 102.573Z" fill="#373737"/>
<path d="M84.3402 110.163C83.7313 109.006 83.0217 107.409 81.9498 106.661C80.878 105.913 79.3884 105.049 78.1304 106.156C79.7127 108.424 81.1789 110.772 82.5235 113.19L84.3402 110.163Z" fill="#EB996E"/>
<path d="M92.7236 108.117C92.7236 108.117 92.4871 106.772 90.5245 107.364C88.562 107.955 82.4126 109.244 83.6002 110.557C84.7878 111.871 86.8862 111.28 86.8862 111.28C86.8862 111.28 83.4693 112.023 83.7964 112.74C84.1235 113.458 84.6922 114.701 86.1465 113.923C87.6008 113.145 91.6367 111.826 91.6367 111.826L92.7236 108.117Z" fill="#EB996E"/>
<path d="M92.5024 111.118C92.5024 111.118 92.5024 110.987 92.5024 110.78C92.4976 110.64 92.4508 110.506 92.3681 110.394C92.2854 110.282 92.1708 110.198 92.0395 110.153C91.6024 110.103 91.1599 110.169 90.7562 110.345L89.1208 110.785C87.9583 111.093 86.9015 111.351 86.1316 111.522C85.7218 111.644 85.2999 111.721 84.8735 111.75C85.2587 111.563 85.6639 111.42 86.0813 111.325C86.8361 111.098 87.8828 110.82 89.0453 110.507L90.6858 110.087C91.1378 109.906 91.6325 109.86 92.1099 109.956C92.2704 110.023 92.4056 110.139 92.496 110.288C92.5864 110.437 92.6274 110.611 92.6131 110.785C92.598 111.012 92.5125 111.123 92.5024 111.118Z" fill="#373737"/>
<path d="M40.0263 125.425L45.9644 136.481L75.4432 121.574C75.4432 121.574 79.781 113.205 80.5006 113.312C81.2203 113.418 84.4107 114.797 84.4107 114.797C84.4107 114.797 88.9397 112.341 89.916 113.008C90.8922 113.675 92.2107 121.761 91.3552 124.262C90.4997 126.764 81.5474 131.802 81.5474 131.802C81.5474 131.802 57.3926 147.73 46.8903 153.324C39.976 157.013 33.8769 152.612 29.7807 145.638L22.7959 130.796" fill="#FFBE9D"/>
</svg>
