<svg width="240" height="180" viewBox="0 0 240 180" fill="none" xmlns="http://www.w3.org/2000/svg">
<path d="M240 158.181H0V158.302H240V158.181Z" fill="#E6E6E6"/>
<path d="M181.277 163.298H164.765V163.419H181.277V163.298Z" fill="#E6E6E6"/>
<path d="M53.2991 163.355H44.0063V163.476H53.2991V163.355Z" fill="#E6E6E6"/>
<path d="M120.48 163.076H101.645V163.196H120.48V163.076Z" fill="#E6E6E6"/>
<path d="M101.165 161.355H92.7456V161.476H101.165V161.355Z" fill="#E6E6E6"/>
<path d="M203.789 161.418H178.354V161.539H203.789V161.418Z" fill="#E6E6E6"/>
<path d="M113.76 136.633H21.0768C20.3507 136.632 19.6548 136.341 19.1419 135.823C18.6289 135.306 18.3408 134.605 18.3408 133.874V2.73459C18.3471 2.00796 18.638 1.31317 19.1503 0.801158C19.6626 0.289141 20.3549 0.00124477 21.0768 0H113.76C114.487 0 115.184 0.290653 115.698 0.808019C116.212 1.32539 116.501 2.02708 116.501 2.75875V133.874C116.501 134.606 116.212 135.308 115.698 135.825C115.184 136.342 114.487 136.633 113.76 136.633ZM21.0768 0.0966291C20.3826 0.097909 19.7172 0.3764 19.2267 0.870976C18.7363 1.36555 18.4608 2.0358 18.4608 2.73459V133.874C18.4608 134.573 18.7363 135.243 19.2267 135.738C19.7172 136.232 20.3826 136.511 21.0768 136.512H113.76C114.455 136.511 115.121 136.233 115.612 135.738C116.103 135.244 116.38 134.574 116.381 133.874V2.73459C116.38 2.03535 116.103 1.36512 115.612 0.870681C115.121 0.376243 114.455 0.0979063 113.76 0.0966291H21.0768Z" fill="#E6E6E6"/>
<path d="M217.589 136.633H124.901C124.174 136.632 123.478 136.341 122.964 135.824C122.451 135.307 122.161 134.606 122.16 133.874V2.73459C122.168 2.00752 122.46 1.31274 122.973 0.800855C123.486 0.288972 124.179 0.00123119 124.901 0H217.589C218.31 0.00251452 219.001 0.290973 219.512 0.802853C220.024 1.31473 220.314 2.00879 220.32 2.73459V133.874C220.32 134.604 220.033 135.305 219.521 135.822C219.009 136.339 218.314 136.63 217.589 136.633ZM124.901 0.0966291C124.206 0.0979063 123.54 0.376243 123.049 0.870681C122.558 1.36512 122.281 2.03535 122.28 2.73459V133.874C122.281 134.574 122.558 135.244 123.049 135.738C123.54 136.233 124.206 136.511 124.901 136.512H217.589C218.284 136.511 218.95 136.233 219.441 135.738C219.932 135.244 220.208 134.574 220.21 133.874V2.73459C220.208 2.03535 219.932 1.36512 219.441 0.870681C218.95 0.376243 218.284 0.0979063 217.589 0.0966291H124.901Z" fill="#E6E6E6"/>
<path d="M203.055 9.00098H137.64V85.7242H203.055V9.00098Z" fill="#E0E0E0"/>
<path d="M204.831 9.00098H138.471V85.7242H204.831V9.00098Z" fill="#F5F5F5"/>
<path d="M203.055 85.7241H137.64V90.0241H203.055V85.7241Z" fill="#E0E0E0"/>
<path d="M212.962 85.7241H150.49V90.0241H212.962V85.7241Z" fill="#F5F5F5"/>
<path d="M202.344 82.4677V12.2524L140.962 12.2524V82.4677H202.344Z" fill="#FAFAFA"/>
<path d="M149.789 82.4678L164.4 12.2573H183.552L168.941 82.4678H149.789Z" fill="white"/>
<path d="M172.042 82.4678L186.648 12.2573H195.297L180.691 82.4678H172.042Z" fill="white"/>
<path d="M135.773 8.88984V36.2068H142.973C142.973 36.2068 155.871 27.7373 158.813 10.3103C158.883 9.89525 158.862 9.46993 158.752 9.06386C158.642 8.6578 158.445 8.28074 158.175 7.95889C157.906 7.63705 157.57 7.37814 157.191 7.20016C156.812 7.02218 156.399 6.9294 155.981 6.92828H137.741C137.484 6.92637 137.228 6.97566 136.99 7.07332C136.752 7.17099 136.535 7.31509 136.352 7.49737C136.169 7.67964 136.024 7.89649 135.924 8.13546C135.825 8.37442 135.774 8.63079 135.773 8.88984Z" fill="#E0E0E0"/>
<path d="M135.773 79.9941V38.4099H142.973C142.973 38.4099 147.101 46.8069 151.215 56.4602C152.309 59.0285 152.752 61.8301 152.506 64.6136C152.259 67.3971 151.329 70.0753 149.801 72.4081C148.272 74.7408 146.192 76.6551 143.747 77.9791C141.302 79.3032 138.569 79.9955 135.792 79.9941H135.773Z" fill="#E0E0E0"/>
<path d="M142.742 36.2068H136.037C135.639 36.2068 135.317 36.5313 135.317 36.9315V37.6852C135.317 38.0855 135.639 38.4099 136.037 38.4099H142.742C143.14 38.4099 143.462 38.0855 143.462 37.6852V36.9315C143.462 36.5313 143.14 36.2068 142.742 36.2068Z" fill="#F5F5F5"/>
<path d="M206.88 8.88988V36.2068H199.68C199.68 36.2068 186.778 27.7373 183.84 10.3103C183.77 9.89569 183.791 9.47078 183.901 9.06506C184.011 8.65934 184.207 8.28253 184.476 7.96077C184.745 7.63901 185.08 7.38001 185.459 7.20172C185.837 7.02344 186.25 6.93014 186.667 6.92832H204.907C205.165 6.92577 205.421 6.97459 205.66 7.07196C205.899 7.16934 206.116 7.31335 206.299 7.49568C206.483 7.67802 206.629 7.89509 206.728 8.13437C206.828 8.37365 206.879 8.63043 206.88 8.88988Z" fill="#E0E0E0"/>
<path d="M206.928 80.0038V38.4197H199.728C199.728 38.4197 195.6 46.8119 191.482 56.4699C190.395 59.0391 189.957 61.8391 190.208 64.62C190.458 67.401 191.389 70.0762 192.917 72.4069C194.444 74.7375 196.522 76.6511 198.963 77.9768C201.405 79.3024 204.135 79.9988 206.909 80.0038H206.928Z" fill="#E0E0E0"/>
<path d="M199.896 38.4099H206.601C206.999 38.4099 207.321 38.0854 207.321 37.6852V36.9315C207.321 36.5312 206.999 36.2068 206.601 36.2068H199.896C199.498 36.2068 199.176 36.5312 199.176 36.9315V37.6852C199.176 38.0854 199.498 38.4099 199.896 38.4099Z" fill="#F5F5F5"/>
<path d="M96.4272 42.8018H67.6128V74.5491H96.4272V42.8018Z" fill="#E0E0E0"/>
<path d="M100.478 42.8018H69.1729V74.5491H100.478V42.8018Z" fill="#FAFAFA"/>
<path d="M97.248 71.3072V46.0581H72.3985V71.3072H97.248Z" fill="white"/>
<path d="M78.2397 58.6778C78.241 57.0961 78.8661 55.5797 79.9777 54.4618C81.0893 53.3438 82.5964 52.7158 84.1677 52.7158H85.5021C87.0727 52.7171 88.5785 53.3457 89.6891 54.4635C90.7996 55.5813 91.4241 57.097 91.4253 58.6778C91.4253 59.4608 91.2721 60.236 90.9745 60.9594C90.6768 61.6827 90.2405 62.34 89.6905 62.8936C89.1405 63.4472 88.4875 63.8864 87.7689 64.186C87.0502 64.4856 86.28 64.6398 85.5021 64.6398H84.1677C83.3895 64.6404 82.6188 64.4867 81.8996 64.1874C81.1804 63.888 80.5268 63.449 79.9763 62.8953C79.4258 62.3416 78.989 61.6841 78.6911 60.9605C78.3931 60.2368 78.2397 59.4612 78.2397 58.6778Z" fill="#F5F5F5"/>
<path d="M44.2753 50.3775C40.2652 50.3775 36.4194 48.7741 33.5838 45.92C30.7483 43.0658 29.1553 39.1948 29.1553 35.1585C29.1553 31.1221 30.7483 27.2511 33.5838 24.397C36.4194 21.5429 40.2652 19.9395 44.2753 19.9395H47.0065V50.3775H44.2753Z" fill="#E0E0E0"/>
<path d="M47.0064 50.3775C55.3516 50.3775 62.1168 43.568 62.1168 35.1681C62.1168 26.7682 55.3516 19.9587 47.0064 19.9587C38.6612 19.9587 31.896 26.7682 31.896 35.1681C31.896 43.568 38.6612 50.3775 47.0064 50.3775Z" fill="#FAFAFA"/>
<path d="M47.006 46.6379C53.2994 46.6379 58.4012 41.5027 58.4012 35.1681C58.4012 28.8335 53.2994 23.6982 47.006 23.6982C40.7126 23.6982 35.6108 28.8335 35.6108 35.1681C35.6108 41.5027 40.7126 46.6379 47.006 46.6379Z" fill="white"/>
<path d="M51.7008 39.4583L46.104 35.5304L47.88 26.8386L49.464 27.1672L47.904 34.8057L52.6272 38.12L51.7008 39.4583Z" fill="#E0E0E0"/>
<path d="M169.123 103.876H148.526V159.892H169.123V103.876Z" fill="#E0E0E0"/>
<path d="M163.623 159.892H169.124V150.615H157.858L163.623 159.892Z" fill="#FAFAFA"/>
<path d="M45.6432 103.876H25.0464V159.892H45.6432V103.876Z" fill="#E0E0E0"/>
<path d="M169.128 103.876H40.8433V156.698H169.128V103.876Z" fill="#FAFAFA"/>
<path d="M46.3441 159.892H40.8433V150.615H52.1089L46.3441 159.892Z" fill="#FAFAFA"/>
<path d="M164.861 108.417H45.1104V127.859H164.861V108.417Z" fill="#F0F0F0"/>
<path d="M164.861 132.56H45.1104V152.002H164.861V132.56Z" fill="#F0F0F0"/>
<path d="M147.302 108.417H45.1104V127.859H147.302V108.417Z" fill="#E0E0E0"/>
<path d="M76.5795 111.041H70.3635C70.3635 111.041 71.4435 114.795 71.4435 117.003C71.4435 119.211 66.7155 127.864 73.4739 127.864C80.2323 127.864 75.4995 119.211 75.4995 117.003C75.4995 114.795 76.5795 111.041 76.5795 111.041Z" fill="#FAFAFA"/>
<path d="M52.1089 117.563V120.979C52.1089 124.767 55.7473 127.864 60.1921 127.864H64.2001C68.6449 127.864 72.2833 124.767 72.2833 120.979V117.563H52.1089Z" fill="#F0F0F0"/>
<path d="M147.302 132.56H45.1104V152.002H147.302V132.56Z" fill="#E0E0E0"/>
<path d="M102.504 151.654H112.075V135.609H102.504V151.654Z" fill="white"/>
<path d="M110.583 151.9H111.235V135.855H110.583V151.9Z" fill="#E6E6E6"/>
<path d="M111.283 152.021H112.954C113.081 152.021 113.184 151.917 113.184 151.789V135.961C113.184 135.833 113.081 135.729 112.954 135.729H111.283C111.156 135.729 111.053 135.833 111.053 135.961V151.789C111.053 151.917 111.156 152.021 111.283 152.021Z" fill="#EBEBEB"/>
<path d="M111.053 143.257H113.184V139.45H111.053V143.257Z" fill="white"/>
<path d="M111.053 146.784H113.184V144.436H111.053V146.784Z" fill="white"/>
<path d="M102.015 152.021H110.64C110.767 152.021 110.871 151.917 110.871 151.789V135.961C110.871 135.833 110.767 135.729 110.64 135.729H102.015C101.887 135.729 101.784 135.833 101.784 135.961V151.789C101.784 151.917 101.887 152.021 102.015 152.021Z" fill="#EBEBEB"/>
<path d="M97.8336 151.61H108.394V133.908H97.8336V151.61Z" fill="white"/>
<path d="M106.757 151.891H107.472V134.188H106.757V151.891Z" fill="#E6E6E6"/>
<path d="M107.524 152.026H109.368C109.508 152.026 109.622 151.911 109.622 151.77V134.309C109.622 134.168 109.508 134.053 109.368 134.053H107.524C107.384 134.053 107.27 134.168 107.27 134.309V151.77C107.27 151.911 107.384 152.026 107.524 152.026Z" fill="#F0F0F0"/>
<path d="M107.27 140.392H109.622V139.779H107.27V140.392Z" fill="white"/>
<path d="M107.27 142.165H109.622V141.551H107.27V142.165Z" fill="white"/>
<path d="M107.27 143.938H109.622V143.324H107.27V143.938Z" fill="white"/>
<path d="M97.3009 152.026H106.814C106.955 152.026 107.069 151.911 107.069 151.77V134.309C107.069 134.168 106.955 134.053 106.814 134.053H97.3009C97.1604 134.053 97.0464 134.168 97.0464 134.309V151.77C97.0464 151.911 97.1604 152.026 97.3009 152.026Z" fill="#F0F0F0"/>
<path d="M84.8255 145.856C84.8265 146.395 84.6685 146.923 84.3716 147.372C84.0747 147.82 83.6523 148.17 83.1577 148.377C82.6631 148.584 82.1186 148.639 81.5931 148.534C81.0677 148.43 80.5848 148.171 80.2058 147.79C79.8267 147.409 79.5684 146.923 79.4635 146.395C79.3587 145.866 79.412 145.318 79.6167 144.819C79.8215 144.321 80.1685 143.895 80.6138 143.596C81.0591 143.296 81.5827 143.136 82.1183 143.136C82.8355 143.136 83.5233 143.423 84.0309 143.933C84.5385 144.443 84.8243 145.134 84.8255 145.856Z" fill="#FAFAFA"/>
<path d="M80.2131 147.156C80.2131 147.577 80.0889 147.989 79.8563 148.34C79.6237 148.69 79.2932 148.963 78.9064 149.125C78.5196 149.286 78.0939 149.328 77.6833 149.246C77.2727 149.164 76.8955 148.961 76.5995 148.663C76.3035 148.365 76.1018 147.985 76.0202 147.572C75.9385 147.158 75.9804 146.73 76.1406 146.341C76.3008 145.951 76.5722 145.619 76.9203 145.384C77.2684 145.15 77.6776 145.025 78.0963 145.025C78.6573 145.027 79.195 145.252 79.5917 145.651C79.9884 146.05 80.2118 146.591 80.2131 147.156Z" fill="#FAFAFA"/>
<path d="M89.4579 147.156C89.4579 147.695 89.2991 148.222 89.0016 148.67C88.7041 149.118 88.2813 149.467 87.7867 149.674C87.292 149.88 86.7477 149.934 86.2225 149.829C85.6974 149.724 85.215 149.464 84.8364 149.083C84.4578 148.702 84.1999 148.216 84.0955 147.688C83.991 147.159 84.0446 146.611 84.2495 146.113C84.4544 145.615 84.8014 145.19 85.2466 144.89C85.6918 144.591 86.2152 144.431 86.7507 144.431C87.4683 144.432 88.1561 144.72 88.6635 145.231C89.171 145.741 89.4566 146.434 89.4579 147.156Z" fill="#FAFAFA"/>
<path d="M93.8929 146.359C93.8929 146.898 93.7341 147.424 93.4367 147.873C93.1392 148.321 92.7164 148.67 92.2217 148.876C91.727 149.082 91.1827 149.136 90.6576 149.031C90.1324 148.926 89.65 148.667 89.2714 148.286C88.8928 147.904 88.635 147.419 88.5305 146.89C88.4261 146.362 88.4797 145.814 88.6846 145.316C88.8895 144.818 89.2365 144.392 89.6817 144.093C90.1269 143.794 90.6503 143.634 91.1857 143.634C91.9037 143.634 92.5923 143.921 93.1 144.432C93.6077 144.943 93.8929 145.636 93.8929 146.359Z" fill="#FAFAFA"/>
<path d="M70.6465 146.711C70.6465 146.711 71.0161 152.026 85.2577 152.026C99.4993 152.026 99.8689 146.711 99.8689 146.711H70.6465Z" fill="#F5F5F5"/>
<path d="M110.582 122.549C110.582 122.549 111.172 127.864 133.742 127.864C156.312 127.864 156.897 122.549 156.897 122.549H110.582Z" fill="white"/>
<path d="M120 180C171.399 180 213.067 177.551 213.067 174.531C213.067 171.51 171.399 169.062 120 169.062C68.6002 169.062 26.9326 171.51 26.9326 174.531C26.9326 177.551 68.6002 180 120 180Z" fill="#F5F5F5"/>
<path d="M70.5225 102.101C80.6749 91.8817 80.6749 75.3136 70.5225 65.0948C60.3702 54.8759 43.9099 54.8759 33.7575 65.0948C23.6051 75.3136 23.6051 91.8817 33.7575 102.101C43.9099 112.319 60.3702 112.319 70.5225 102.101Z" fill="#BF5F82"/>
<path opacity="0.4" d="M70.5225 102.101C80.6749 91.8817 80.6749 75.3136 70.5225 65.0948C60.3702 54.8759 43.9099 54.8759 33.7575 65.0948C23.6051 75.3136 23.6051 91.8817 33.7575 102.101C43.9099 112.319 60.3702 112.319 70.5225 102.101Z" fill="#373737"/>
<path opacity="0.2" d="M73.662 87.2924C75.6893 75.3296 67.698 63.9777 55.8131 61.9372C43.9282 59.8966 32.6501 67.9402 30.6228 79.903C28.5956 91.8657 36.5868 103.218 48.4717 105.258C60.3567 107.299 71.6347 99.2552 73.662 87.2924Z" fill="#373737"/>
<path d="M74.7053 85.7019C75.5155 74.052 66.7896 63.9467 55.2155 63.1313C43.6413 62.3158 33.6019 71.0988 32.7917 82.7487C31.9815 94.3986 40.7074 104.504 52.2815 105.319C63.8556 106.135 73.8951 97.3518 74.7053 85.7019Z" fill="#BF5F82"/>
<path opacity="0.4" d="M74.7053 85.7019C75.5155 74.052 66.7896 63.9467 55.2155 63.1313C43.6413 62.3158 33.6019 71.0988 32.7917 82.7487C31.9815 94.3986 40.7074 104.504 52.2815 105.319C63.8556 106.135 73.8951 97.3518 74.7053 85.7019Z" fill="#373737"/>
<path d="M60.7733 81.5835L62.1413 87.5504C62.1994 87.7782 62.2097 88.0156 62.1717 88.2477C62.1337 88.4798 62.0482 88.7013 61.9205 88.8983C61.7965 89.0997 61.6336 89.274 61.4415 89.4109C61.2494 89.5478 61.032 89.6446 60.8021 89.6955L55.5893 90.9082L56.5493 95.1067C56.6058 95.3336 56.6145 95.5699 56.5748 95.8004C56.5351 96.0309 56.448 96.2505 56.3189 96.445C56.1949 96.6431 56.0316 96.8131 55.8391 96.9445C55.6466 97.0759 55.4292 97.1657 55.2005 97.2084C54.9715 97.2661 54.7332 97.2771 54.4999 97.2406C54.2666 97.2041 54.0429 97.1208 53.8421 96.9958C53.6421 96.8773 53.4687 96.7182 53.3332 96.5285C53.1977 96.3388 53.1029 96.1228 53.0549 95.8942L52.0949 91.6474L46.9253 92.8504C46.7025 92.9046 46.4712 92.9128 46.2451 92.8746C46.0191 92.8364 45.8031 92.7526 45.6101 92.6282C45.4095 92.5097 45.2356 92.3507 45.0993 92.1611C44.9629 91.9715 44.8672 91.7554 44.8181 91.5266C44.7635 91.3009 44.755 91.0663 44.7929 90.8371C44.8309 90.6079 44.9145 90.3889 45.0389 90.1931C45.1576 89.9931 45.3161 89.8198 45.5044 89.6843C45.6927 89.5488 45.9068 89.4539 46.1333 89.4056L58.2293 86.5986L57.6629 84.12L45.6005 86.9174C45.3772 86.9748 45.1447 86.9859 44.917 86.9502C44.6893 86.9145 44.4711 86.8327 44.2757 86.7097C44.0754 86.5886 43.9023 86.4269 43.7676 86.2347C43.6329 86.0425 43.5394 85.8242 43.4933 85.5936L42.1301 79.651C42.0252 79.1941 42.1048 78.7141 42.3514 78.3164C42.5981 77.9186 42.9915 77.6358 43.4453 77.53L48.5909 76.3366L47.6309 72.1332C47.5753 71.911 47.5644 71.6797 47.599 71.4532C47.6337 71.2267 47.7131 71.0094 47.8325 70.8143C47.9591 70.6029 48.1291 70.4211 48.3311 70.2811C48.533 70.1412 48.7624 70.0462 49.0037 70.0026C49.2257 69.9483 49.4563 69.94 49.6816 69.9782C49.9069 70.0164 50.1221 70.1003 50.3141 70.2248C50.5112 70.3468 50.6818 70.5078 50.8154 70.6979C50.949 70.8881 51.043 71.1035 51.0917 71.3312L52.0517 75.5297L57.3317 74.3122C57.5601 74.2565 57.7974 74.248 58.0292 74.287C58.261 74.326 58.4825 74.4118 58.6805 74.5393C58.8808 74.6552 59.055 74.8116 59.1922 74.9987C59.3293 75.1858 59.4264 75.3996 59.4773 75.6264C59.5785 76.0936 59.494 76.5822 59.2419 76.9876C58.9899 77.3929 58.5902 77.683 58.1285 77.7957L46.0325 80.6027L46.5605 83.0668L58.6133 80.2694C58.8417 80.2137 59.079 80.2051 59.3108 80.2442C59.5426 80.2832 59.7641 80.369 59.9621 80.4965C60.1656 80.6101 60.3431 80.7656 60.4828 80.953C60.6226 81.1403 60.7216 81.3551 60.7733 81.5835Z" fill="#BF5F82"/>
<g opacity="0.7">
<path opacity="0.7" d="M60.7733 81.5835L62.1413 87.5504C62.1994 87.7782 62.2097 88.0156 62.1717 88.2477C62.1337 88.4798 62.0482 88.7013 61.9205 88.8983C61.7965 89.0997 61.6336 89.274 61.4415 89.4109C61.2494 89.5478 61.032 89.6446 60.8021 89.6955L55.5893 90.9082L56.5493 95.1067C56.6058 95.3336 56.6145 95.5699 56.5748 95.8004C56.5351 96.0309 56.448 96.2505 56.3189 96.445C56.1949 96.6431 56.0316 96.8131 55.8391 96.9445C55.6466 97.0759 55.4292 97.1657 55.2005 97.2084C54.9715 97.2661 54.7332 97.2771 54.4999 97.2406C54.2666 97.2041 54.0429 97.1208 53.8421 96.9958C53.6421 96.8773 53.4687 96.7182 53.3332 96.5285C53.1977 96.3388 53.1029 96.1228 53.0549 95.8942L52.0949 91.6474L46.9253 92.8504C46.7025 92.9046 46.4712 92.9128 46.2451 92.8746C46.0191 92.8364 45.8031 92.7526 45.6101 92.6282C45.4095 92.5097 45.2356 92.3507 45.0993 92.1611C44.9629 91.9715 44.8672 91.7554 44.8181 91.5266C44.7635 91.3009 44.755 91.0663 44.7929 90.8371C44.8309 90.6079 44.9145 90.3889 45.0389 90.1931C45.1576 89.9931 45.3161 89.8198 45.5044 89.6843C45.6927 89.5488 45.9068 89.4539 46.1333 89.4056L58.2293 86.5986L57.6629 84.12L45.6005 86.9174C45.3772 86.9748 45.1447 86.9859 44.917 86.9502C44.6893 86.9145 44.4711 86.8327 44.2757 86.7097C44.0754 86.5886 43.9023 86.4269 43.7676 86.2347C43.6329 86.0425 43.5394 85.8242 43.4933 85.5936L42.1301 79.651C42.0252 79.1941 42.1048 78.7141 42.3514 78.3164C42.5981 77.9186 42.9915 77.6358 43.4453 77.53L48.5909 76.3366L47.6309 72.1332C47.5753 71.911 47.5644 71.6797 47.599 71.4532C47.6337 71.2267 47.7131 71.0094 47.8325 70.8143C47.9591 70.6029 48.1291 70.4211 48.3311 70.2811C48.533 70.1412 48.7624 70.0462 49.0037 70.0026C49.2257 69.9483 49.4563 69.94 49.6816 69.9782C49.9069 70.0164 50.1221 70.1003 50.3141 70.2248C50.5112 70.3468 50.6818 70.5078 50.8154 70.6979C50.949 70.8881 51.043 71.1035 51.0917 71.3312L52.0517 75.5297L57.3317 74.3122C57.5601 74.2565 57.7974 74.248 58.0292 74.287C58.261 74.326 58.4825 74.4118 58.6805 74.5393C58.8808 74.6552 59.055 74.8116 59.1922 74.9987C59.3293 75.1858 59.4264 75.3996 59.4773 75.6264C59.5785 76.0936 59.494 76.5822 59.2419 76.9876C58.9899 77.3929 58.5902 77.683 58.1285 77.7957L46.0325 80.6027L46.5605 83.0668L58.6133 80.2694C58.8417 80.2137 59.079 80.2051 59.3108 80.2442C59.5426 80.2832 59.7641 80.369 59.9621 80.4965C60.1656 80.6101 60.3431 80.7656 60.4828 80.953C60.6226 81.1403 60.7216 81.3551 60.7733 81.5835Z" fill="white"/>
</g>
<path d="M107.616 62.7883C114.084 55.0844 113.122 43.5616 105.469 37.0513C97.8149 30.5411 86.3671 31.5087 79.8992 39.2125C73.4313 46.9164 74.3926 58.4392 82.0463 64.9495C89.7 71.4598 101.148 70.4922 107.616 62.7883Z" fill="#BF5F82"/>
<path opacity="0.4" d="M107.616 62.7883C114.084 55.0844 113.122 43.5616 105.469 37.0513C97.8149 30.5411 86.3671 31.5087 79.8992 39.2125C73.4313 46.9164 74.3926 58.4392 82.0463 64.9495C89.7 71.4598 101.148 70.4922 107.616 62.7883Z" fill="#373737"/>
<path opacity="0.2" d="M105.501 60.7575C110.862 54.2299 109.951 44.5637 103.466 39.1675C96.9807 33.7712 87.3774 34.6884 82.0163 41.2159C76.6551 47.7435 77.5663 57.4097 84.0514 62.8059C90.5365 68.2022 100.14 67.285 105.501 60.7575Z" fill="#373737"/>
<path d="M105.961 60.9177C110.866 54.4579 109.639 45.2189 103.222 40.2818C96.8039 35.3448 87.625 36.5791 82.7201 43.0389C77.8151 49.4987 79.0415 58.7376 85.4592 63.6747C91.8769 68.6118 101.056 67.3774 105.961 60.9177Z" fill="#BF5F82"/>
<path opacity="0.4" d="M105.961 60.9177C110.866 54.4579 109.639 45.2189 103.222 40.2818C96.8039 35.3448 87.625 36.5791 82.7201 43.0389C77.8151 49.4987 79.0415 58.7376 85.4592 63.6747C91.8769 68.6118 101.056 67.3774 105.961 60.9177Z" fill="#373737"/>
<path d="M99.7539 52.4983L98.7219 56.6437C98.6844 56.8013 98.6147 56.9494 98.5172 57.0783C98.4197 57.2073 98.2965 57.3143 98.1555 57.3926C98.0131 57.4797 97.8546 57.5371 97.6897 57.5612C97.5247 57.5853 97.3566 57.5756 97.1955 57.5327L93.6003 56.6195L92.8707 59.5184C92.8336 59.6768 92.764 59.8256 92.6665 59.9554C92.569 60.0852 92.4456 60.1931 92.3043 60.2721C92.1681 60.3572 92.0162 60.4135 91.8578 60.4376C91.6993 60.4616 91.5377 60.453 91.3827 60.4122C91.223 60.3744 91.0724 60.305 90.9397 60.2079C90.807 60.1109 90.6949 59.9881 90.6099 59.8469C90.5232 59.709 90.4657 59.5546 90.441 59.3934C90.4162 59.2321 90.4247 59.0675 90.4659 58.9096L91.2003 55.9625L87.6003 55.0783C87.4443 55.0407 87.2975 54.9717 87.1688 54.8754C87.0401 54.779 86.9321 54.6574 86.8515 54.5179C86.7647 54.3809 86.7071 54.2273 86.6823 54.0668C86.6575 53.9063 86.6661 53.7424 86.7075 53.5854C86.7433 53.4265 86.8113 53.2768 86.9071 53.1455C87.0029 53.0142 87.1244 52.9041 87.2643 52.822C87.4023 52.7372 87.556 52.6815 87.7161 52.6583C87.8762 52.635 88.0392 52.6447 88.1955 52.6868L96.5955 54.8078L97.0275 53.0878L88.6515 50.9716C88.4946 50.9362 88.3467 50.8686 88.217 50.773C88.0873 50.6774 87.9787 50.5559 87.8979 50.416C87.8109 50.2782 87.754 50.1234 87.7308 49.9618C87.7077 49.8003 87.7188 49.6356 87.7635 49.4787L88.7907 45.3478C88.8293 45.1903 88.8986 45.0422 88.9945 44.9118C89.0905 44.7815 89.2111 44.6716 89.3495 44.5885C89.4878 44.5054 89.6412 44.4507 89.8007 44.4276C89.9602 44.4045 90.1226 44.4135 90.2787 44.454L93.8403 45.3526L94.5699 42.4538C94.6052 42.2901 94.6737 42.1356 94.7712 42C94.8688 41.8644 94.9931 41.7505 95.1365 41.6656C95.2799 41.5808 95.4392 41.5267 95.6044 41.5068C95.7696 41.487 95.9371 41.5018 96.0963 41.5503C96.251 41.5864 96.3966 41.6544 96.5238 41.75C96.651 41.8456 96.7572 41.9668 96.8355 42.1059C96.9204 42.2437 96.9765 42.3974 97.0005 42.5577C97.0244 42.718 97.0156 42.8816 96.9747 43.0384L96.2451 45.9372L99.8931 46.86C100.053 46.8985 100.204 46.9693 100.336 47.0681C100.468 47.167 100.578 47.2918 100.661 47.435C100.749 47.5707 100.807 47.7231 100.834 47.8827C100.86 48.0423 100.854 48.2057 100.815 48.3626C100.775 48.5236 100.703 48.6749 100.604 48.8076C100.505 48.9403 100.381 49.0519 100.239 49.1356C100.097 49.2244 99.9386 49.2831 99.7736 49.308C99.6085 49.3329 99.4401 49.3236 99.2787 49.2806L90.8739 47.1596L90.4515 48.8699L98.8227 50.9813C98.9827 51.0197 99.1333 51.0905 99.2653 51.1894C99.3973 51.2882 99.508 51.413 99.5907 51.5562C99.6832 51.6924 99.7456 51.8469 99.7737 52.0095C99.8019 52.172 99.7951 52.3387 99.7539 52.4983Z" fill="#BF5F82"/>
<g opacity="0.7">
<path opacity="0.7" d="M99.7539 52.4983L98.7219 56.6437C98.6844 56.8013 98.6147 56.9494 98.5172 57.0783C98.4197 57.2073 98.2965 57.3143 98.1555 57.3926C98.0131 57.4797 97.8546 57.5371 97.6897 57.5612C97.5247 57.5853 97.3566 57.5756 97.1955 57.5327L93.6003 56.6195L92.8707 59.5184C92.8336 59.6768 92.764 59.8256 92.6665 59.9554C92.569 60.0852 92.4456 60.1931 92.3043 60.2721C92.1681 60.3572 92.0162 60.4135 91.8578 60.4376C91.6993 60.4616 91.5377 60.453 91.3827 60.4122C91.223 60.3744 91.0724 60.305 90.9397 60.2079C90.807 60.1109 90.6949 59.9881 90.6099 59.8469C90.5232 59.709 90.4657 59.5546 90.441 59.3934C90.4162 59.2321 90.4247 59.0675 90.4659 58.9096L91.2003 55.9625L87.6003 55.0783C87.4443 55.0407 87.2975 54.9717 87.1688 54.8754C87.0401 54.779 86.9321 54.6574 86.8515 54.5179C86.7647 54.3809 86.7071 54.2273 86.6823 54.0668C86.6575 53.9063 86.6661 53.7424 86.7075 53.5854C86.7433 53.4265 86.8113 53.2768 86.9071 53.1455C87.0029 53.0142 87.1244 52.9041 87.2643 52.822C87.4023 52.7372 87.556 52.6815 87.7161 52.6583C87.8762 52.635 88.0392 52.6447 88.1955 52.6868L96.5955 54.8078L97.0275 53.0878L88.6515 50.9716C88.4946 50.9362 88.3467 50.8686 88.217 50.773C88.0873 50.6774 87.9787 50.5559 87.8979 50.416C87.8109 50.2782 87.754 50.1234 87.7308 49.9618C87.7077 49.8003 87.7188 49.6356 87.7635 49.4787L88.7907 45.3478C88.8293 45.1903 88.8986 45.0422 88.9945 44.9118C89.0905 44.7815 89.2111 44.6716 89.3495 44.5885C89.4878 44.5054 89.6412 44.4507 89.8007 44.4276C89.9602 44.4045 90.1226 44.4135 90.2787 44.454L93.8403 45.3526L94.5699 42.4538C94.6052 42.2901 94.6737 42.1356 94.7712 42C94.8688 41.8644 94.9931 41.7505 95.1365 41.6656C95.2799 41.5808 95.4392 41.5267 95.6044 41.5068C95.7696 41.487 95.9371 41.5018 96.0963 41.5503C96.251 41.5864 96.3966 41.6544 96.5238 41.75C96.651 41.8456 96.7572 41.9668 96.8355 42.1059C96.9204 42.2437 96.9765 42.3974 97.0005 42.5577C97.0244 42.718 97.0156 42.8816 96.9747 43.0384L96.2451 45.9372L99.8931 46.86C100.053 46.8985 100.204 46.9693 100.336 47.0681C100.468 47.167 100.578 47.2918 100.661 47.435C100.749 47.5707 100.807 47.7231 100.834 47.8827C100.86 48.0423 100.854 48.2057 100.815 48.3626C100.775 48.5236 100.703 48.6749 100.604 48.8076C100.505 48.9403 100.381 49.0519 100.239 49.1356C100.097 49.2244 99.9386 49.2831 99.7736 49.308C99.6085 49.3329 99.4401 49.3236 99.2787 49.2806L90.8739 47.1596L90.4515 48.8699L98.8227 50.9813C98.9827 51.0197 99.1333 51.0905 99.2653 51.1894C99.3973 51.2882 99.508 51.413 99.5907 51.5562C99.6832 51.6924 99.7456 51.8469 99.7737 52.0095C99.8019 52.172 99.7951 52.3387 99.7539 52.4983Z" fill="white"/>
</g>
<path d="M49.565 161.355H49.085V166.81H49.565V161.355Z" fill="#BF5F82"/>
<path opacity="0.1" d="M49.565 161.355H49.085V166.81H49.565V161.355Z" fill="#373737"/>
<path d="M190.916 118.143H190.436V125.617H190.916V118.143Z" fill="#BF5F82"/>
<path d="M190.916 129.536H190.436V133.589H190.916V129.536Z" fill="#BF5F82"/>
<path opacity="0.1" d="M190.916 118.143H190.436V125.617H190.916V118.143Z" fill="#373737"/>
<path opacity="0.1" d="M190.916 129.536H190.436V133.589H190.916V129.536Z" fill="#373737"/>
<path d="M182.016 85.729H57.9891C53.9994 85.729 50.7651 88.9845 50.7651 93.0003V166.076C50.7651 170.092 53.9994 173.347 57.9891 173.347H182.016C186.006 173.347 189.24 170.092 189.24 166.076V93.0003C189.24 88.9845 186.006 85.729 182.016 85.729Z" fill="#BF5F82"/>
<path opacity="0.2" d="M182.016 85.729H57.9891C53.9994 85.729 50.7651 88.9845 50.7651 93.0003V166.076C50.7651 170.092 53.9994 173.347 57.9891 173.347H182.016C186.006 173.347 189.24 170.092 189.24 166.076V93.0003C189.24 88.9845 186.006 85.729 182.016 85.729Z" fill="#373737"/>
<path opacity="0.2" d="M166.824 116.24C171.774 116.24 175.786 112.201 175.786 107.22C175.786 102.238 171.774 98.1992 166.824 98.1992C161.875 98.1992 157.863 102.238 157.863 107.22C157.863 112.201 161.875 116.24 166.824 116.24Z" fill="#373737"/>
<path d="M155.256 116.24C160.205 116.24 164.218 112.201 164.218 107.22C164.218 102.238 160.205 98.1992 155.256 98.1992C150.307 98.1992 146.294 102.238 146.294 107.22C146.294 112.201 150.307 116.24 155.256 116.24Z" fill="#BF5F82"/>
<path d="M88.6752 116.239H67.3296C65.6118 116.239 64.2192 117.641 64.2192 119.37V133.415C64.2192 135.144 65.6118 136.546 67.3296 136.546H88.6752C90.3931 136.546 91.7856 135.144 91.7856 133.415V119.37C91.7856 117.641 90.3931 116.239 88.6752 116.239Z" fill="#BF5F82"/>
<path opacity="0.3" d="M88.6752 116.239H67.3296C65.6118 116.239 64.2192 117.641 64.2192 119.37V133.415C64.2192 135.144 65.6118 136.546 67.3296 136.546H88.6752C90.3931 136.546 91.7856 135.144 91.7856 133.415V119.37C91.7856 117.641 90.3931 116.239 88.6752 116.239Z" fill="white"/>
<path d="M103.445 95.9863H66.4224C65.2057 95.9863 64.2192 96.9781 64.2192 98.2015C64.2192 99.425 65.2057 100.417 66.4224 100.417H103.445C104.662 100.417 105.648 99.425 105.648 98.2015C105.648 96.9781 104.662 95.9863 103.445 95.9863Z" fill="#BF5F82"/>
<path opacity="0.3" d="M103.445 95.9863H66.4224C65.2057 95.9863 64.2192 96.9781 64.2192 98.2015C64.2192 99.425 65.2057 100.417 66.4224 100.417H103.445C104.662 100.417 105.648 99.425 105.648 98.2015C105.648 96.9781 104.662 95.9863 103.445 95.9863Z" fill="white"/>
<path d="M84.1008 146.625H67.4496C65.6655 146.625 64.2192 148.08 64.2192 149.876V152.915C64.2192 154.711 65.6655 156.167 67.4496 156.167H84.1008C85.8849 156.167 87.3312 154.711 87.3312 152.915V149.876C87.3312 148.08 85.8849 146.625 84.1008 146.625Z" fill="#BF5F82"/>
<path opacity="0.3" d="M84.1008 146.625H67.4496C65.6655 146.625 64.2192 148.08 64.2192 149.876V152.915C64.2192 154.711 65.6655 156.167 67.4496 156.167H84.1008C85.8849 156.167 87.3312 154.711 87.3312 152.915V149.876C87.3312 148.08 85.8849 146.625 84.1008 146.625Z" fill="white"/>
<path d="M113.583 146.625H96.9316C95.1475 146.625 93.7012 148.08 93.7012 149.876V152.915C93.7012 154.711 95.1475 156.167 96.9316 156.167H113.583C115.367 156.167 116.813 154.711 116.813 152.915V149.876C116.813 148.08 115.367 146.625 113.583 146.625Z" fill="#BF5F82"/>
<path opacity="0.3" d="M113.583 146.625H96.9316C95.1475 146.625 93.7012 148.08 93.7012 149.876V152.915C93.7012 154.711 95.1475 156.167 96.9316 156.167H113.583C115.367 156.167 116.813 154.711 116.813 152.915V149.876C116.813 148.08 115.367 146.625 113.583 146.625Z" fill="white"/>
<path d="M143.069 146.625H126.418C124.634 146.625 123.188 148.08 123.188 149.876V152.915C123.188 154.711 124.634 156.167 126.418 156.167H143.069C144.853 156.167 146.299 154.711 146.299 152.915V149.876C146.299 148.08 144.853 146.625 143.069 146.625Z" fill="#BF5F82"/>
<path opacity="0.3" d="M143.069 146.625H126.418C124.634 146.625 123.188 148.08 123.188 149.876V152.915C123.188 154.711 124.634 156.167 126.418 156.167H143.069C144.853 156.167 146.299 154.711 146.299 152.915V149.876C146.299 148.08 144.853 146.625 143.069 146.625Z" fill="white"/>
<path d="M172.551 146.625H155.899C154.115 146.625 152.669 148.08 152.669 149.876V152.915C152.669 154.711 154.115 156.167 155.899 156.167H172.551C174.335 156.167 175.781 154.711 175.781 152.915V149.876C175.781 148.08 174.335 146.625 172.551 146.625Z" fill="#BF5F82"/>
<path opacity="0.3" d="M172.551 146.625H155.899C154.115 146.625 152.669 148.08 152.669 149.876V152.915C152.669 154.711 154.115 156.167 155.899 156.167H172.551C174.335 156.167 175.781 154.711 175.781 152.915V149.876C175.781 148.08 174.335 146.625 172.551 146.625Z" fill="white"/>
<path d="M140.64 54.0251C139.502 57.2573 138.24 60.3832 136.901 63.5092C135.545 66.688 133.99 69.7767 132.245 72.7565C132.009 73.1382 131.765 73.5199 131.51 73.9016L131.323 74.1866L131.069 74.5393C130.896 74.7616 130.733 74.9548 130.589 75.1433C129.984 75.8219 129.343 76.467 128.669 77.0758C127.387 78.2692 126.081 79.3514 124.761 80.4192C122.112 82.5354 119.405 84.5163 116.601 86.3957L114.926 84.3037L121.982 77.3029C123.149 76.1385 124.305 74.9645 125.385 73.7905C125.918 73.2059 126.437 72.6068 126.864 72.056C126.969 71.9207 127.061 71.7854 127.142 71.6695L127.243 71.5052L127.382 71.254C127.569 70.9206 127.766 70.5969 127.949 70.2538C129.417 67.4758 130.713 64.4561 131.961 61.393C133.209 58.3299 134.409 55.2426 135.561 52.1794L140.64 54.0251Z" fill="#E4897B"/>
<path d="M141.989 51.6964C143.078 54.9044 136.675 64.3402 136.675 64.3402L130.56 60.9147C131.602 57.9706 132.833 55.0979 134.246 52.3148C136.387 48.2371 140.794 48.1742 141.989 51.6964Z" fill="#BF5F82"/>
<path opacity="0.7" d="M141.989 51.6964C143.078 54.9044 136.675 64.3402 136.675 64.3402L130.56 60.9147C131.602 57.9706 132.833 55.0979 134.246 52.3148C136.387 48.2371 140.794 48.1742 141.989 51.6964Z" fill="white"/>
<path opacity="0.31" d="M142.08 52.0973C140.707 51.4353 139.128 51.991 137.462 54.6386C135.797 57.2862 134.381 61.707 134.227 62.968L136.68 64.3353C136.68 64.3353 142.589 55.6194 142.08 52.0973Z" fill="#BF5F82"/>
<path d="M137.846 49.2419C137.846 49.2419 133.276 60.0595 136.569 80.2018H155.601C155.836 77.2594 154.492 62.9149 157.79 49.0583C155.695 48.6478 153.575 48.3766 151.444 48.2466C148.751 48.0919 146.05 48.0919 143.356 48.2466C141.497 48.4367 139.655 48.7694 137.846 49.2419Z" fill="#BF5F82"/>
<path opacity="0.7" d="M137.846 49.2419C137.846 49.2419 133.276 60.0595 136.569 80.2018H155.601C155.836 77.2594 154.492 62.9149 157.79 49.0583C155.695 48.6478 153.575 48.3766 151.444 48.2466C148.751 48.0919 146.05 48.0919 143.356 48.2466C141.497 48.4367 139.655 48.7694 137.846 49.2419Z" fill="white"/>
<path d="M162.341 166.023L159.523 168.564L154.152 162.935L156.974 160.394L162.341 166.023Z" fill="#E4897B"/>
<path d="M152.678 171.308H149.121L148.661 163.018H152.217L152.678 171.308Z" fill="#E4897B"/>
<path d="M154.157 162.935L156.922 165.839L159.744 163.293L156.979 160.394L154.157 162.935Z" fill="#CE6F64"/>
<path d="M152.217 163.018H148.661L148.901 167.293H152.457L152.217 163.018Z" fill="#CE6F64"/>
<path d="M136.57 80.202C136.57 80.202 132.821 106.321 131.544 120.535C130.517 131.942 155.021 165.95 155.021 165.95L159.759 161.462C159.759 161.462 141.864 130.971 143.242 118.274C144.576 105.978 149.098 80.1875 149.098 80.1875L136.57 80.202Z" fill="#BF5F82"/>
<path opacity="0.7" d="M136.57 80.202C136.57 80.202 132.821 106.321 131.544 120.535C130.517 131.942 155.021 165.95 155.021 165.95L159.759 161.462C159.759 161.462 141.864 130.971 143.242 118.274C144.576 105.978 149.098 80.1875 149.098 80.1875L136.57 80.202Z" fill="#373737"/>
<path opacity="0.2" d="M143.242 118.288C143.928 111.954 145.464 102.03 146.784 93.9034C146.093 92.541 144.154 89.7822 144.154 89.7822C142.416 95.8264 138.639 118.611 144.029 149.383C149.645 158.495 155.021 165.964 155.021 165.964L155.755 154.214C150.567 144.387 142.287 127.066 143.242 118.288Z" fill="#373737"/>
<path d="M143.337 80.2017C143.337 80.2017 143.001 107.572 143.577 117.829C144.206 129.057 147.374 166.264 147.374 166.264H153.892C153.892 166.264 153.696 129.965 154.08 118.853C154.507 106.775 155.611 80.2017 155.611 80.2017H143.337Z" fill="#BF5F82"/>
<path opacity="0.7" d="M143.337 80.2017C143.337 80.2017 143.001 107.572 143.577 117.829C144.206 129.057 147.374 166.264 147.374 166.264H153.892C153.892 166.264 153.696 129.965 154.08 118.853C154.507 106.775 155.611 80.2017 155.611 80.2017H143.337Z" fill="#373737"/>
<path d="M148.934 170.898H152.932C152.999 170.895 153.064 170.919 153.114 170.964C153.163 171.009 153.193 171.072 153.196 171.139L153.393 174.323C153.394 174.406 153.378 174.489 153.347 174.566C153.316 174.643 153.27 174.713 153.213 174.772C153.155 174.831 153.086 174.878 153.01 174.911C152.934 174.943 152.852 174.96 152.769 174.961C151.377 174.937 150.71 174.855 148.953 174.855C147.873 174.855 143.275 174.971 141.782 174.971C140.289 174.971 140.342 173.482 140.961 173.347C143.798 172.743 147.317 171.898 148.325 171.115C148.498 170.977 148.713 170.9 148.934 170.898Z" fill="#373737"/>
<path d="M158.745 167.544L162.173 165.22C162.228 165.176 162.298 165.151 162.369 165.151C162.441 165.151 162.51 165.176 162.566 165.22L165.187 167.882C165.238 167.941 165.276 168.01 165.297 168.085C165.319 168.16 165.324 168.238 165.312 168.315C165.3 168.392 165.272 168.466 165.229 168.53C165.185 168.595 165.128 168.649 165.062 168.689C162.873 170.385 161.294 171.665 160.046 173.076C158.606 174.724 157.829 174.961 154.469 174.961C152.913 174.961 152.035 173.642 152.669 173.439C158.265 171.656 156.768 170.878 158.131 168.264C158.273 167.977 158.484 167.729 158.745 167.544Z" fill="#373737"/>
<path d="M115.733 83.8545L112.022 83.9849L112.8 86.9128C112.8 86.9128 116.678 87.2607 117.024 86.0818L115.733 83.8545Z" fill="#E4897B"/>
<path d="M108.019 85.729L110.621 87.2557L112.8 86.9127L112.022 83.9849L108.019 85.729Z" fill="#E4897B"/>
<path opacity="0.31" d="M153.537 52.4788C153.144 54.7592 153.667 60.2091 155.611 66.5189C155.763 61.1129 156.388 55.7308 157.478 50.4351V50.4061C156.23 50.2805 153.916 50.3385 153.537 52.4788Z" fill="#BF5F82"/>
<path d="M150.96 39.0767C150.36 41.6953 149.683 46.4977 151.44 48.2564C151.44 48.2564 150.681 50.4257 145.843 50.4257C140.525 50.4257 143.352 48.2564 143.352 48.2564C146.28 47.5607 146.28 45.3913 145.843 43.3573L150.96 39.0767Z" fill="#E4897B"/>
<path d="M145.709 50.416L144.269 51.9572L144.974 53.4453L146.121 53.4985L147.101 52.078L145.709 50.416Z" fill="#BF5F82"/>
<path d="M148.876 40.8208L145.848 43.3428C145.957 43.8191 146.024 44.3041 146.049 44.7922C147.163 44.6328 148.728 43.4056 148.886 42.2364C148.971 41.7681 148.968 41.2879 148.876 40.8208Z" fill="#CE6F64"/>
<path d="M144.648 30.1964C142.828 30.8197 141.374 35.6753 143.496 36.9604C145.617 38.2456 148.104 29.0127 144.648 30.1964Z" fill="#373737"/>
<path d="M152.097 36.3324C151.013 39.7144 150.552 41.7581 148.363 43.1448C147.657 43.6016 146.84 43.8553 146.001 43.8786C145.162 43.9019 144.333 43.6939 143.603 43.277C142.873 42.86 142.27 42.2501 141.859 41.5132C141.449 40.7763 141.246 39.9404 141.273 39.096C141.317 35.8445 143.083 30.8391 146.803 30.211C147.605 30.0552 148.433 30.1142 149.205 30.382C149.977 30.6498 150.666 31.1171 151.202 31.7369C151.738 32.3568 152.103 33.1076 152.26 33.9142C152.417 34.7207 152.361 35.5546 152.097 36.3324Z" fill="#E4897B"/>
<path d="M154.785 30.6795C153.7 33.3175 156.225 31.1144 155.572 34.2451C155.15 36.284 151.492 41.1686 150.081 40.7241C148.67 40.2796 148.684 36.8154 150.484 34.3659C151.521 32.96 149.28 31.3656 144.244 31.5347C139.209 31.7038 136.166 28.8532 142.857 26.7612C142.857 26.7612 140.39 28.2107 141.854 28.6938C143.928 29.4717 156.96 25.3939 154.785 30.6795Z" fill="#373737"/>
<path d="M153.825 31.8874C153.773 31.8874 154.953 31.5927 155.582 29.4717C155.582 29.5055 155.376 32.6314 153.825 31.8874Z" fill="#373737"/>
<path d="M144.403 27.2297C141.307 28.196 142.589 29.2831 143.87 29.5537L146.808 28.3941C142.344 28.9884 144.403 27.2297 144.403 27.2297Z" fill="#373737"/>
<path d="M152.693 40.4631C152.049 41.0928 151.19 41.4507 150.293 41.4632C149.107 41.4632 148.853 40.3327 149.491 39.3857C150.057 38.5354 151.353 37.5111 152.4 37.9701C153.446 38.4291 153.48 39.6852 152.693 40.4631Z" fill="#E4897B"/>
<path d="M146.63 36.1439C146.558 36.4241 146.352 36.6271 146.15 36.5788C145.949 36.5304 145.877 36.2744 145.949 35.9941C146.021 35.7139 146.227 35.511 146.429 35.5641C146.63 35.6173 146.702 35.8637 146.63 36.1439Z" fill="#373737"/>
<path d="M143.462 35.4433C143.39 35.7236 143.184 35.9265 142.982 35.8782C142.781 35.8299 142.709 35.5786 142.781 35.2984C142.853 35.0182 143.054 34.8153 143.261 34.8636C143.467 34.9119 143.52 35.1631 143.462 35.4433Z" fill="#373737"/>
<path d="M144.432 35.8057C143.886 36.5879 143.24 37.2945 142.512 37.9073C142.672 38.0866 142.869 38.2284 143.09 38.3227C143.311 38.4171 143.549 38.4616 143.789 38.4533L144.432 35.8057Z" fill="#DE5753"/>
<path d="M144.96 39.4728C144.761 39.4726 144.563 39.4499 144.369 39.4052C144.348 39.3995 144.33 39.3858 144.318 39.3669C144.307 39.3481 144.303 39.3255 144.307 39.3037C144.313 39.2823 144.326 39.2639 144.345 39.2522C144.364 39.2405 144.386 39.2365 144.408 39.2409C144.761 39.3202 145.128 39.3179 145.48 39.2342C145.833 39.1505 146.162 38.9876 146.443 38.7578C146.459 38.7421 146.481 38.7334 146.503 38.7334C146.525 38.7334 146.547 38.7421 146.563 38.7578C146.578 38.774 146.587 38.7956 146.587 38.8182C146.587 38.8407 146.578 38.8624 146.563 38.8786C146.117 39.2648 145.548 39.4758 144.96 39.4728Z" fill="#373737"/>
<path d="M147.888 35.337C147.855 35.3376 147.823 35.3282 147.795 35.3101C147.768 35.292 147.747 35.266 147.734 35.2356C147.655 35.0417 147.531 34.8699 147.373 34.7345C147.214 34.5991 147.025 34.5041 146.822 34.4577C146.8 34.4547 146.779 34.4474 146.759 34.436C146.74 34.4246 146.723 34.4095 146.71 34.3915C146.696 34.3735 146.687 34.353 146.681 34.3312C146.676 34.3094 146.675 34.2867 146.678 34.2644C146.685 34.22 146.709 34.18 146.745 34.153C146.781 34.1259 146.826 34.1139 146.87 34.1195C147.129 34.1725 147.371 34.2883 147.575 34.4567C147.779 34.625 147.939 34.841 148.041 35.0858C148.051 35.106 148.056 35.1279 148.057 35.1503C148.058 35.1726 148.054 35.1948 148.046 35.2156C148.038 35.2364 148.025 35.2554 148.01 35.2712C147.994 35.2871 147.976 35.2997 147.955 35.308C147.935 35.3225 147.912 35.3324 147.888 35.337Z" fill="#373737"/>
<path d="M142.392 34.0568C142.353 34.0565 142.316 34.0429 142.286 34.0182C142.252 33.989 142.23 33.9474 142.225 33.9023C142.221 33.8572 142.234 33.812 142.262 33.7766C142.431 33.5648 142.647 33.395 142.891 33.2802C143.136 33.1654 143.404 33.1088 143.673 33.1147C143.696 33.1165 143.717 33.1227 143.737 33.1329C143.756 33.1432 143.774 33.1572 143.788 33.1743C143.803 33.1914 143.813 33.2111 143.82 33.2324C143.827 33.2536 143.829 33.276 143.827 33.2983C143.826 33.3207 143.82 33.3427 143.81 33.3629C143.8 33.383 143.786 33.4009 143.769 33.4154C143.752 33.4299 143.732 33.4407 143.711 33.4472C143.689 33.4536 143.667 33.4556 143.645 33.4529C143.429 33.4506 143.215 33.4982 143.021 33.592C142.826 33.6858 142.655 33.8233 142.521 33.994C142.506 34.0137 142.486 34.0297 142.464 34.0405C142.441 34.0514 142.417 34.057 142.392 34.0568Z" fill="#373737"/>
<path d="M158.712 51.5271C159.086 52.1117 159.398 52.6287 159.715 53.1891C160.032 53.7496 160.334 54.2907 160.632 54.8511C161.217 55.9672 161.769 57.1074 162.273 58.2718C163.33 60.6555 164.124 63.149 164.64 65.7074L164.688 65.9538L164.712 66.0746L164.745 66.2775C164.786 66.5477 164.807 66.8206 164.808 67.094C164.803 67.5517 164.755 68.008 164.664 68.4565C164.501 69.1962 164.266 69.918 163.963 70.6113C163.424 71.826 162.781 72.9915 162.043 74.0947C160.646 76.1925 159.059 78.1545 157.3 79.9553L155.212 78.2691C156.374 76.2302 157.531 74.1141 158.5 72.0414C158.977 71.0501 159.384 70.0266 159.72 68.9783C159.856 68.541 159.95 68.091 159.998 67.6351C160.015 67.4858 160.015 67.3351 159.998 67.1858C159.998 67.1423 159.998 67.1037 159.969 67.0988C159.94 67.094 159.969 67.0988 159.969 67.0747L159.94 66.978L159.883 66.7799C159.579 65.7143 159.219 64.6659 158.803 63.6395C158.38 62.5911 157.91 61.5475 157.416 60.5087C156.921 59.47 156.388 58.4457 155.841 57.4215C155.572 56.9093 155.289 56.402 155.006 55.8996L154.161 54.4501L158.712 51.5271Z" fill="#E4897B"/>
<path d="M147.676 171.516C147.437 171.54 147.197 171.473 147.004 171.328C146.95 171.267 146.912 171.194 146.893 171.114C146.875 171.035 146.877 170.952 146.899 170.873C146.909 170.821 146.933 170.771 146.967 170.73C147.002 170.689 147.046 170.657 147.096 170.637C147.532 170.463 148.536 171.159 148.651 171.236C148.665 171.245 148.676 171.258 148.682 171.274C148.688 171.289 148.689 171.307 148.684 171.323C148.682 171.339 148.675 171.354 148.663 171.366C148.652 171.378 148.638 171.387 148.622 171.39C148.312 171.465 147.995 171.508 147.676 171.516ZM147.259 170.777C147.225 170.771 147.191 170.771 147.158 170.777C147.134 170.786 147.112 170.801 147.096 170.822C147.08 170.842 147.07 170.867 147.067 170.893C147.049 170.943 147.045 170.998 147.056 171.05C147.066 171.103 147.089 171.152 147.124 171.192C147.288 171.357 147.753 171.376 148.392 171.25C148.052 171.013 147.666 170.853 147.259 170.782V170.777Z" fill="white"/>
<path d="M148.603 171.395H148.56C148.205 171.183 147.677 170.429 147.758 170.042C147.773 169.971 147.81 169.908 147.865 169.861C147.92 169.815 147.989 169.788 148.061 169.786C148.124 169.778 148.188 169.784 148.249 169.804C148.31 169.824 148.365 169.858 148.411 169.902C148.771 170.255 148.69 171.284 148.69 171.327C148.688 171.342 148.683 171.356 148.674 171.367C148.666 171.379 148.655 171.389 148.642 171.395H148.603ZM148.123 169.946H148.085C147.965 169.946 147.936 170.018 147.926 170.066C147.874 170.323 148.224 170.888 148.531 171.149C148.575 170.757 148.495 170.361 148.301 170.018C148.277 169.995 148.248 169.976 148.217 169.964C148.186 169.951 148.152 169.945 148.118 169.946H148.123Z" fill="white"/>
<path d="M156.442 169.487C156.353 169.49 156.264 169.473 156.182 169.439C156.119 169.413 156.063 169.372 156.019 169.32C155.974 169.268 155.943 169.206 155.928 169.139C155.916 169.098 155.914 169.055 155.923 169.014C155.933 168.972 155.952 168.934 155.981 168.902C156.302 168.511 157.987 168.627 158.179 168.641C158.197 168.642 158.214 168.648 158.228 168.66C158.242 168.671 158.252 168.687 158.256 168.704C158.26 168.722 158.258 168.74 158.251 168.756C158.244 168.773 158.233 168.787 158.218 168.796C157.682 169.152 157.076 169.387 156.442 169.487ZM157.459 168.782C156.869 168.782 156.25 168.839 156.11 169.009C156.102 169.022 156.098 169.037 156.098 169.052C156.098 169.067 156.102 169.083 156.11 169.096C156.118 169.137 156.137 169.176 156.163 169.209C156.19 169.242 156.225 169.268 156.264 169.284C156.533 169.395 157.138 169.212 157.901 168.801L157.459 168.782Z" fill="white"/>
<path d="M158.174 168.81C157.694 168.81 156.614 168.438 156.533 168.052C156.533 167.955 156.533 167.82 156.763 167.709C157.589 167.318 158.227 168.632 158.256 168.675C158.262 168.689 158.265 168.704 158.265 168.719C158.265 168.734 158.262 168.748 158.256 168.762C158.248 168.777 158.236 168.789 158.222 168.798C158.207 168.806 158.191 168.811 158.174 168.81ZM157.066 167.81C156.984 167.809 156.904 167.828 156.83 167.864C156.73 167.912 156.682 167.965 156.691 168.013C156.739 168.24 157.517 168.559 158.026 168.627C157.872 168.366 157.502 167.81 157.066 167.81Z" fill="white"/>
<path d="M156.163 77.4865L152.64 76.8633L154.459 80.9942C154.459 80.9942 157.689 80.9942 157.545 79.2935L156.163 77.4865Z" fill="#E4897B"/>
<path d="M149.976 78.9408L151.641 82.2745L154.44 80.9942L152.62 76.8633L149.976 78.9408Z" fill="#E4897B"/>
<path d="M160.046 161.206L154.733 166.24L153.019 164.389L159.101 158.814L160.046 161.206Z" fill="#BF5F82"/>
<path opacity="0.6" d="M160.046 161.206L154.733 166.24L153.019 164.389L159.101 158.814L160.046 161.206Z" fill="white"/>
<path d="M154.152 166.264H147.11L146.721 163.771L154.492 164.162L154.152 166.264Z" fill="#BF5F82"/>
<path opacity="0.6" d="M154.152 166.264H147.11L146.721 163.771L154.492 164.162L154.152 166.264Z" fill="white"/>
<path d="M157.79 49.0584C161.15 49.5416 164.592 61.2916 164.592 61.2916L157.392 65.3114C157.392 65.3114 154.468 59.7263 153.072 55.5809C151.608 51.2374 154.195 48.527 157.79 49.0584Z" fill="#BF5F82"/>
<path opacity="0.7" d="M157.79 49.0584C161.15 49.5416 164.592 61.2916 164.592 61.2916L157.392 65.3114C157.392 65.3114 154.468 59.7263 153.072 55.5809C151.608 51.2374 154.195 48.527 157.79 49.0584Z" fill="white"/>
<path opacity="0.2" d="M145.709 50.416L144.269 51.9572L144.974 53.4453L146.121 53.4985L147.101 52.078L145.709 50.416Z" fill="#373737"/>
<path d="M145.099 53.1794C145.099 53.1794 142.368 64.5671 142.262 66.9345C142.114 70.1909 143.467 75.7519 143.467 75.7519C143.467 75.7519 145.387 71.1282 145.781 66.8331C146.174 62.5379 145.882 55.5903 146.059 53.1794H145.099Z" fill="#BF5F82"/>
<path opacity="0.2" d="M145.099 53.1794C145.099 53.1794 142.368 64.5671 142.262 66.9345C142.114 70.1909 143.467 75.7519 143.467 75.7519C143.467 75.7519 145.387 71.1282 145.781 66.8331C146.174 62.5379 145.882 55.5903 146.059 53.1794H145.099Z" fill="#373737"/>
<path d="M145.708 50.4161C146.255 51.3073 146.572 52.3221 146.63 53.3681C146.63 53.3681 152.62 51.2423 152.337 48.126C152.337 48.126 151.488 47.6187 150.95 47.208C150.95 47.208 150.748 49.1696 145.708 50.4161Z" fill="#BF5F82"/>
<path opacity="0.6" d="M145.708 50.4161C146.255 51.3073 146.572 52.3221 146.63 53.3681C146.63 53.3681 152.62 51.2423 152.337 48.126C152.337 48.126 151.488 47.6187 150.95 47.208C150.95 47.208 150.748 49.1696 145.708 50.4161Z" fill="white"/>
<path d="M145.709 50.416C145.158 51.2597 144.761 52.1956 144.537 53.1796C144.537 53.1796 141.825 51.334 142.641 48.2563C143.138 48.0548 143.65 47.8932 144.173 47.7732C144.173 47.7732 143.817 49.7637 145.709 50.416Z" fill="#BF5F82"/>
<path opacity="0.6" d="M145.709 50.416C145.158 51.2597 144.761 52.1956 144.537 53.1796C144.537 53.1796 141.825 51.334 142.641 48.2563C143.138 48.0548 143.65 47.8932 144.173 47.7732C144.173 47.7732 143.817 49.7637 145.709 50.416Z" fill="white"/>
</svg>
