<svg width="1440" height="600" viewBox="0 0 1440 600" fill="none" xmlns="http://www.w3.org/2000/svg">
<mask id="mask0_1467_20504" style="mask-type:alpha" maskUnits="userSpaceOnUse" x="-211" y="0" width="1863" height="600">
<path d="M1651.03 0H-211V599.828H1651.03V0Z" fill="white"/>
</mask>
<g mask="url(#mask0_1467_20504)">
<path d="M1651.03 0H-211V599.828H1651.03V0Z" fill="white"/>
<g opacity="0.051">
<path opacity="0.051" d="M1624.06 401.679H1375.16V363.61H1367.57V355.76H1357.81V362.147H1348.65V382.901H1344.67V368.637H1335.23V383.317H1329.48V366.622H1324.48V383.904H1305.2V365.425H1259.15V341.049H1252.84V333.21H1231.59V350.214H1224.87V358.875H1210.3V364.98H1193.44V377.644H1180.95V388.644H1112.32V394.249H1097.37V398.037H1083.73V407.819H1041.94V401.679H1031.65V393.839H1016.79V401.242H1005.84V396.324H987.265V404.067H969.692V409.913H941.271V403.272H926.747V409.171H895.958V402.475H890.803V398.074H876.162V405.052H865.738V411.191H834.405V418.594H749.975" stroke="url(#paint0_linear_1467_20504)" stroke-width="2"/>
</g>
<g opacity="0.7">
<g opacity="0.7">
<g opacity="0.7">
<path opacity="0.7" d="M1195.23 384.657H1175.63V462.277H1195.23V384.657Z" fill="white"/>
<path opacity="0.7" d="M1194.28 385.605H1176.58V461.329H1194.28V385.605Z" stroke="#B6B5C9" stroke-width="2"/>
<path opacity="0.7" d="M1212.77 384.657H1193.18V462.277H1212.77V384.657Z" fill="white"/>
<path opacity="0.7" d="M1211.82 385.605H1194.13V461.329H1211.82V385.605Z" stroke="#B6B5C9" stroke-width="2"/>
<path opacity="0.7" d="M1216.14 376.685H1163.01V384.963H1216.14V376.685Z" stroke="#B6B5C9" stroke-width="2"/>
<path opacity="0.7" d="M1164.71 384.657H1177.78V462.277H1164.71V384.657Z" fill="white"/>
<path opacity="0.7" fill-rule="evenodd" clip-rule="evenodd" d="M1165.65 385.605V461.329H1176.84V385.605H1165.65Z" stroke="#B6B5C9" stroke-width="2"/>
<path opacity="0.7" d="M1186.19 432.475H1184.3V450.939H1186.19V432.475Z" fill="#373737"/>
<path opacity="0.7" d="M1204.44 432.475H1202.54V450.939H1204.44V432.475Z" fill="#373737"/>
<g opacity="0.7">
<path opacity="0.7" d="M1180.15 410.028L1183.76 401.646C1184.01 401.039 1184.72 400.758 1185.32 401.019C1185.61 401.139 1185.82 401.362 1185.95 401.642L1189.57 410.028V433.39H1180.15V410.028Z" fill="white"/>
<path opacity="0.7" fill-rule="evenodd" clip-rule="evenodd" d="M1181.1 410.223V432.443H1188.62V410.224L1185.08 402.018C1185.05 401.961 1185 401.915 1184.95 401.89C1184.82 401.835 1184.68 401.894 1184.62 402.019L1181.1 410.223Z" stroke="#B6B5C9" stroke-width="2"/>
</g>
<g opacity="0.7">
<path opacity="0.7" d="M1198.46 410.028L1202.05 401.646C1202.32 401.039 1203.01 400.758 1203.62 401.019C1203.9 401.139 1204.13 401.362 1204.25 401.642L1207.87 410.028V433.39H1198.46V410.028Z" fill="white"/>
<path opacity="0.7" fill-rule="evenodd" clip-rule="evenodd" d="M1199.41 410.223V432.443H1206.92V410.224L1203.38 402.018C1203.35 401.961 1203.3 401.915 1203.25 401.89C1203.13 401.835 1202.97 401.894 1202.92 402.019L1199.41 410.223Z" stroke="#B6B5C9" stroke-width="2"/>
</g>
</g>
<path opacity="0.7" d="M1177.32 376.711C1177.32 384.133 1177.84 391.32 1178.81 398.148C1183.73 432.454 1200.19 457.664 1219.73 457.664C1243.16 457.664 1262.15 421.42 1262.15 376.711C1262.15 375.267 1262.14 373.832 1262.1 372.405" stroke="#B6B5C9" stroke-width="2"/>
<path opacity="0.7" d="M1211.79 376.711C1211.79 384.133 1212.3 391.32 1213.28 398.148C1218.2 432.454 1234.66 457.664 1254.2 457.664C1277.63 457.664 1296.62 421.42 1296.62 376.711C1296.62 375.267 1296.61 373.832 1296.57 372.405" stroke="#B6B5C9" stroke-width="2"/>
<g opacity="0.7">
<g opacity="0.7">
<path opacity="0.7" d="M1171.54 367.667H1169.65V376.196H1171.54V367.667Z" fill="#B6B5C9"/>
<path opacity="0.7" d="M1176.28 367.667H1169.65V372.358H1176.28V367.667Z" fill="white"/>
<path opacity="0.7" d="M1175.33 368.615H1170.59V371.41H1175.33V368.615Z" stroke="#B6B5C9" stroke-width="2"/>
</g>
<g opacity="0.7">
<path opacity="0.7" d="M1210.39 367.667H1208.49V376.196H1210.39V367.667Z" fill="#B6B5C9"/>
<path opacity="0.7" d="M1215.13 367.667H1208.49V372.358H1215.13V367.667Z" fill="white"/>
<path opacity="0.7" d="M1214.18 368.615H1209.44V371.41H1214.18V368.615Z" stroke="#B6B5C9" stroke-width="2"/>
</g>
<g opacity="0.7">
<path opacity="0.7" d="M1190.03 364.824H1188.13V376.196H1190.03V364.824Z" fill="#B6B5C9"/>
<path opacity="0.7" d="M1197.13 364.824H1188.13V371.078H1197.13V364.824Z" fill="white"/>
<path opacity="0.7" d="M1196.18 365.772H1189.08V370.132H1196.18V365.772Z" stroke="#B6B5C9" stroke-width="2"/>
</g>
</g>
</g>
<g opacity="0.7">
<path opacity="0.7" d="M1324.37 321.009H1280.47V504.12H1324.37V321.009Z" fill="white"/>
<path opacity="0.7" d="M1323.42 321.956H1281.42V503.173H1323.42V321.956Z" stroke="#373737" stroke-width="2"/>
<path opacity="0.7" d="M1365.24 321.009H1321.34V504.12H1365.24V321.009Z" fill="white"/>
<path opacity="0.7" d="M1364.29 321.956H1322.29V503.173H1364.29V321.956Z" stroke="#424174" stroke-opacity="0.7" stroke-width="2"/>
<path opacity="0.7" d="M1374.33 301.335H1250.19V324.035H1374.33V301.335Z" fill="white"/>
<path opacity="0.7" d="M1373.38 302.283H1251.14V323.087H1373.38V302.283Z" stroke="#424174" stroke-opacity="0.6" stroke-width="2"/>
<g opacity="0.7">
<g opacity="0.7">
<path opacity="0.7" d="M1271.99 286.173H1270.09V303.23H1271.99V286.173Z" fill="#8E8DAC"/>
<path opacity="0.7" d="M1283.35 286.173H1270.09V295.556H1283.35V286.173Z" fill="white"/>
<path opacity="0.7" d="M1282.41 287.122H1271.04V294.608H1282.41V287.122Z" stroke="#424174" stroke-opacity="0.6" stroke-width="2"/>
</g>
<g opacity="0.7">
<path opacity="0.7" d="M1349.68 286.173H1347.8V303.23H1349.68V286.173Z" fill="#8E8DAC"/>
<path opacity="0.7" d="M1361.06 286.173H1347.8V295.556H1361.06V286.173Z" fill="white"/>
<path opacity="0.7" d="M1360.11 287.122H1348.75V294.608H1360.11V287.122Z" stroke="#424174" stroke-opacity="0.6" stroke-width="2"/>
</g>
<g opacity="0.7">
<path opacity="0.7" d="M1309.3 280.489H1307.05V303.23H1309.3V280.489Z" fill="#8E8DAC"/>
<path opacity="0.7" d="M1325.05 280.489H1307.05V292.996H1325.05V280.489Z" fill="white"/>
<path opacity="0.7" d="M1323.91 281.625H1308.19V291.859H1323.91V281.625Z" stroke="#424174" stroke-opacity="0.6" stroke-width="2.4"/>
<path opacity="0.7" d="M1325.05 280.489H1307.05V288.07H1325.05V280.489Z" fill="white"/>
<path opacity="0.7" d="M1323.91 281.625H1308.19V286.932H1323.91V281.625Z" stroke="#424174" stroke-opacity="0.6" stroke-width="2.4"/>
<g opacity="0.7">
<path opacity="0.7" d="M1314.63 280.489H1307.05V288.07H1314.63V280.489Z" fill="white"/>
<path opacity="0.7" d="M1313.49 281.625H1308.19V286.932H1313.49V281.625Z" stroke="#424174" stroke-opacity="0.6" stroke-width="2.4"/>
</g>
</g>
</g>
<path opacity="0.7" d="M1284.25 322.483H1256.25V504.12H1284.25V322.483Z" fill="white"/>
<path opacity="0.7" d="M1283.3 323.432H1257.19V503.173H1283.3V323.432Z" stroke="#424174" stroke-opacity="0.6" stroke-width="2"/>
<path opacity="0.7" d="M1285.25 301.335H1283.35V323.28H1285.25V301.335Z" fill="#8E8DAC"/>
<path opacity="0.7" d="M1302.42 430.725H1300.91V502.608H1302.42V430.725Z" fill="#7A7A9D"/>
<path opacity="0.7" d="M1343.29 430.725H1341.78V502.608H1343.29V430.725Z" fill="#7A7A9D"/>
<g opacity="0.7">
<path opacity="0.7" d="M1290.94 368.899L1300.08 343.237C1300.35 342.448 1301.23 342.037 1302.01 342.318C1302.44 342.47 1302.77 342.806 1302.92 343.234L1312.13 368.899V432.309H1290.94V368.899Z" fill="white"/>
<path opacity="0.7" fill-rule="evenodd" clip-rule="evenodd" d="M1291.89 369.062V431.361H1311.19V369.063L1302.04 343.554C1301.97 343.394 1301.85 343.267 1301.7 343.21C1301.39 343.105 1301.08 343.259 1300.96 343.556L1291.89 369.062Z" stroke="#424174" stroke-opacity="0.6" stroke-width="2"/>
</g>
<g opacity="0.7">
<path opacity="0.7" d="M1333.46 368.828L1342.58 343.167C1342.87 342.377 1343.73 341.966 1344.52 342.247C1344.95 342.399 1345.29 342.735 1345.44 343.163L1354.65 368.828V432.238H1333.46V368.828Z" fill="white"/>
<path opacity="0.7" fill-rule="evenodd" clip-rule="evenodd" d="M1334.41 368.992V431.291H1353.7V368.992L1344.56 343.483C1344.49 343.323 1344.37 343.196 1344.2 343.139C1343.91 343.034 1343.58 343.189 1343.48 343.485L1334.41 368.992Z" stroke="#424174" stroke-opacity="0.6" stroke-width="2"/>
</g>
<path opacity="0.7" d="M1283.35 323.534C1283.35 336.092 1284.25 348.257 1285.91 359.811C1294.29 417.867 1322.28 460.532 1355.52 460.532" stroke="#8E8DAC" stroke-width="2"/>
<path opacity="0.7" d="M1363.9 322.623C1363.9 335.157 1364.8 347.296 1366.46 358.826C1374.81 416.766 1402.75 459.343 1435.92 459.343" stroke="#8E8DAC" stroke-width="2"/>
</g>
</g>
<g opacity="0.2">
<path opacity="0.302" d="M-76.958 399.784H10.8521V361.715H18.4407V353.865H28.2002V360.252H37.3724V381.006H41.3369V366.742H50.7901V381.421H56.5255V364.727H61.5331V382.009H80.8116V363.53H126.858V339.154H133.171V331.315H154.418V348.319H161.136V356.98H175.712V363.085H192.574V375.749H205.06V386.749H273.699V392.354H288.639V396.142H302.276V405.924H344.072V399.784H354.361V391.944H369.227V399.347H380.176V394.429H398.747V402.172H416.32V408.018H444.741V401.377H459.266V407.276H490.055V400.58H495.21V396.178H509.851V403.157H520.274V409.296H551.608V416.699H636.038" stroke="url(#paint1_linear_1467_20504)" stroke-width="2"/>
<g opacity="0.2">
<path opacity="0.2" fill-rule="evenodd" clip-rule="evenodd" d="M221.009 352.452H230.052V345.31C230.052 342.813 228.028 340.789 225.53 340.789C223.033 340.789 221.009 342.813 221.009 345.31V352.452Z" stroke="#373737" stroke-width="2.24"/>
<path opacity="0.2" d="M225.797 347.681C229.908 347.681 233.241 351.014 233.241 355.124V360.406H218.353V355.124C218.353 351.014 221.685 347.681 225.797 347.681Z" fill="white"/>
<path opacity="0.2" fill-rule="evenodd" clip-rule="evenodd" d="M219.414 359.345H232.179V355.125C232.179 351.6 229.322 348.743 225.796 348.743C222.271 348.743 219.414 351.6 219.414 355.125V359.345Z" stroke="#373737" stroke-width="2.24"/>
<path opacity="0.2" d="M224.184 355.104H227.628C232.61 355.104 236.649 359.143 236.649 364.125V456.378H215.162V364.125C215.162 359.143 219.201 355.104 224.184 355.104Z" fill="white"/>
<path opacity="0.2" fill-rule="evenodd" clip-rule="evenodd" d="M216.225 455.318H235.589V364.125C235.589 359.729 232.025 356.166 227.628 356.166H224.184C219.788 356.166 216.225 359.729 216.225 364.125V455.318Z" stroke="#373737" stroke-width="2.24"/>
<path opacity="0.2" d="M207.719 435.17H199.743V456.38H207.719V435.17Z" fill="white"/>
<path opacity="0.2" d="M206.657 436.232H200.805V455.318H206.657V436.232Z" stroke="#373737" stroke-width="2.24"/>
<path opacity="0.2" d="M216.758 394.871H208.782V456.378H216.758V394.871Z" fill="white"/>
<path opacity="0.2" d="M215.697 395.933H209.845V455.318H215.697V395.933Z" stroke="#373737" stroke-width="2.24"/>
<path opacity="0.2" d="M243.342 394.871H235.367V456.378H243.342V394.871Z" fill="white"/>
<path opacity="0.2" d="M242.282 395.933H236.43V455.318H242.282V395.933Z" stroke="#373737" stroke-width="2.24"/>
<path opacity="0.2" d="M251.316 435.17H243.342V456.38H251.316V435.17Z" fill="white"/>
<path opacity="0.2" d="M250.256 436.232H244.404V455.318H250.256V436.232Z" stroke="#373737" stroke-width="2.24"/>
<g opacity="0.2">
<path opacity="0.2" d="M216.441 424.564H205.591V456.378H216.441V424.564Z" fill="white"/>
<path opacity="0.2" d="M215.379 425.625H206.652V455.316H215.379V425.625Z" stroke="#373737" stroke-width="2.24"/>
</g>
<g opacity="0.2">
<path opacity="0.2" d="M246.217 424.564H235.367V456.378H246.217V424.564Z" fill="white"/>
<path opacity="0.2" d="M245.156 425.625H236.428V455.316H245.156V425.625Z" stroke="#373737" stroke-width="2.24"/>
</g>
<g opacity="0.2">
<path opacity="0.2" d="M238.025 374.723H214.1V456.378H238.025V374.723Z" fill="white"/>
<path opacity="0.2" d="M236.964 375.783H215.16V455.318H236.964V375.783Z" stroke="#373737" stroke-width="2.24"/>
</g>
<g opacity="0.2">
<path opacity="0.2" d="M226.062 360.937C229.145 360.937 231.644 363.437 231.644 366.52V456.378H220.479V366.52C220.479 363.437 222.978 360.937 226.062 360.937Z" fill="white"/>
<path opacity="0.2" fill-rule="evenodd" clip-rule="evenodd" d="M221.54 455.318H230.583V366.519C230.583 364.023 228.559 361.999 226.062 361.999C223.564 361.999 221.54 364.023 221.54 366.519V455.318Z" stroke="#373737" stroke-width="2.24"/>
</g>
<path opacity="0.2" d="M226.86 327.002H224.733V341.849H226.86V327.002Z" fill="#373737"/>
</g>
<path opacity="0.2" d="M398.304 454.845H12.6328V455.794H398.304V454.845Z" stroke="#373737" stroke-width="2"/>
<path opacity="0.2" d="M437.156 454.845H410.623V455.794H437.156V454.845Z" stroke="#373737" stroke-width="2"/>
<path opacity="0.2" d="M465.584 454.845H458.003V455.794H465.584V454.845Z" stroke="#373737" stroke-width="2"/>
<g opacity="0.2">
<path opacity="0.2" d="M641.437 516.996H571.714V518.892H641.437V516.996Z" fill="#373737"/>
<path opacity="0.2" d="M723.329 516.996H675.95V518.892H723.329V516.996Z" fill="#373737"/>
<path opacity="0.2" d="M647.522 545.424H628.57V547.32H647.522V545.424Z" fill="#373737"/>
<path opacity="0.2" d="M761.233 564.376H723.33V566.272H761.233V564.376Z" fill="#373737"/>
<path opacity="0.2" d="M495.907 488.568H458.003V490.464H495.907V488.568Z" fill="#373737"/>
<path opacity="0.2" d="M893.896 488.568H855.993V490.464H893.896V488.568Z" fill="#373737"/>
</g>
<path opacity="0.2" d="M1051.2 454.845H939.381V455.794H1051.2V454.845Z" stroke="#373737" stroke-width="2"/>
<path opacity="0.2" d="M922.324 454.845H905.269V455.794H922.324V454.845Z" stroke="#373737" stroke-width="2"/>
<path opacity="0.2" d="M893.896 454.845H886.315V455.794H893.896V454.845Z" stroke="#373737" stroke-width="2"/>
<path opacity="0.2" d="M874.945 454.845H867.364V455.794H874.945V454.845Z" stroke="#373737" stroke-width="2"/>
<g opacity="0.2">
<path opacity="0.2" d="M151.779 322.76H177.142L185.837 455.854H141.31L151.779 322.76Z" fill="white"/>
<path opacity="0.2" fill-rule="evenodd" clip-rule="evenodd" d="M152.761 323.821L142.458 454.793H184.706L176.148 323.821H152.761Z" stroke="#373737" stroke-width="2.24"/>
<path opacity="0.2" fill-rule="evenodd" clip-rule="evenodd" d="M152.906 323.821L159.102 427.172H168.534L175.633 323.821H152.906Z" stroke="#373737" stroke-width="2.24"/>
<path opacity="0.2" d="M188.467 434.639H174.643V455.848H188.467V434.639Z" fill="white"/>
<path opacity="0.2" d="M187.407 435.701H175.704V454.787H187.407V435.701Z" stroke="#373737" stroke-width="2.24"/>
<path opacity="0.2" d="M184.215 439.942H179.427V454.787H184.215V439.942Z" stroke="#373737" stroke-width="2.24"/>
<path opacity="0.2" d="M154.971 434.639H141.146V455.848H154.971V434.639Z" fill="white"/>
<path opacity="0.2" d="M153.908 435.701H142.207V454.787H153.908V435.701Z" stroke="#373737" stroke-width="2.24"/>
<path opacity="0.2" d="M176.236 425.625H152.843V448.425H176.236V425.625Z" fill="white"/>
<path opacity="0.2" d="M175.175 426.686H153.903V447.363H175.175V426.686Z" stroke="#373737" stroke-width="2.24"/>
<path opacity="0.2" d="M170.924 433.58H158.158V447.365H170.924V433.58Z" stroke="#373737" stroke-width="2.24"/>
<path opacity="0.2" d="M150.719 439.942H145.929V454.787H150.719V439.942Z" stroke="#373737" stroke-width="2.24"/>
<g opacity="0.2">
<path opacity="0.2" d="M171.985 315.867H157.097V322.759H171.985V315.867Z" fill="white"/>
<path opacity="0.2" d="M170.923 316.928H158.158V321.697H170.923V316.928Z" stroke="#373737" stroke-width="2.24"/>
</g>
<g opacity="0.2">
<path opacity="0.2" d="M174.111 319.578H154.971V324.881H174.111V319.578Z" fill="white"/>
<path opacity="0.2" d="M173.05 320.639H156.031V323.82H173.05V320.639Z" stroke="#373737" stroke-width="2.24"/>
</g>
<g opacity="0.2">
<path opacity="0.2" d="M164.555 297.839L170.52 317.925H158.747L164.555 297.839Z" fill="white"/>
<path opacity="0.2" fill-rule="evenodd" clip-rule="evenodd" d="M164.569 301.613L160.16 316.863H169.099L164.569 301.613Z" stroke="#373737" stroke-width="2.24"/>
</g>
<g opacity="0.2">
<path opacity="0.2" d="M165.604 286.173H163.478V304.732H165.604V286.173Z" fill="#373737"/>
<path opacity="0.2" d="M165.338 286.439H163.742V304.466H165.338V286.439Z" stroke="#373737" stroke-width="0.56"/>
</g>
</g>
<g opacity="0.2">
<path opacity="0.2" d="M347.127 397.271H336.079V415.304H347.127V397.271Z" fill="white"/>
<path opacity="0.2" d="M346.066 398.332H337.142V414.242H346.066V398.332Z" stroke="#373737" stroke-width="2.24"/>
<path opacity="0.2" d="M343.781 400.944H320.013V456.044H343.781V400.944Z" fill="white"/>
<path opacity="0.2" d="M342.719 402.005H321.072V454.983H342.719V402.005Z" stroke="#373737" stroke-width="2.24"/>
<path opacity="0.2" fill-rule="evenodd" clip-rule="evenodd" d="M324.756 398.332V401.933H336.358V398.332H324.756ZM326.095 394.992V398.183H335.02V394.992H326.095Z" stroke="#373737" stroke-width="2.24"/>
<path opacity="0.2" d="M349.137 412.966H331.394V431.333H349.137V412.966Z" fill="white"/>
<path opacity="0.2" d="M348.074 414.028H332.454V430.272H348.074V414.028Z" stroke="#373737" stroke-width="2.24"/>
<path opacity="0.2" d="M333.402 429.663H352.819V455.744H333.402V429.663Z" fill="white"/>
<path opacity="0.2" fill-rule="evenodd" clip-rule="evenodd" d="M334.464 430.724V454.684H351.758V430.724H334.464Z" stroke="#373737" stroke-width="2.24"/>
<path opacity="0.2" d="M333.235 455.744H327.711H316.663V407.289H332.733V416.639H338.758V423.986H342.106V455.744H333.235Z" fill="white"/>
<path opacity="0.2" fill-rule="evenodd" clip-rule="evenodd" d="M341.045 454.684V425.048H337.697V417.701H331.67V408.351H317.725V454.684H341.045Z" stroke="#373737" stroke-width="2.24"/>
<path opacity="0.2" d="M331.392 386.919H329.719V391.928H331.392V386.919Z" fill="#373737"/>
<g opacity="0.2">
<path opacity="0.2" d="M332.733 391.159H328.381V395.267H332.733V391.159Z" fill="white"/>
<path opacity="0.2" d="M331.672 392.22H329.441V394.205H331.672V392.22Z" stroke="#373737" stroke-width="2.24"/>
</g>
<g opacity="0.2">
<path opacity="0.2" d="M337.754 437.678H321.015V456.046H337.754V437.678Z" fill="white"/>
<path opacity="0.2" d="M336.691 438.739H322.076V454.985H336.691V438.739Z" stroke="#373737" stroke-width="2.24"/>
</g>
<g opacity="0.2">
<path opacity="0.2" d="M337.754 437.678H321.015V442.687H337.754V437.678Z" fill="white"/>
<path opacity="0.2" d="M336.691 438.739H322.076V441.625H336.691V438.739Z" stroke="#373737" stroke-width="2.24"/>
</g>
<g opacity="0.2">
<path opacity="0.2" d="M337.754 451.035H321.015V456.044H337.754V451.035Z" fill="white"/>
<path opacity="0.2" d="M336.691 452.096H322.076V454.984H336.691V452.096Z" stroke="#373737" stroke-width="2.24"/>
</g>
<g opacity="0.2">
<path opacity="0.2" d="M333.403 444.023H325.703V452.371H333.403V444.023Z" fill="white"/>
<path opacity="0.2" d="M332.341 445.085H326.764V451.31H332.341V445.085Z" stroke="#373737" stroke-width="2.24"/>
</g>
</g>
<g opacity="0.2">
<path opacity="0.2" d="M303.998 384.267H270.502V456.38H303.998V384.267Z" fill="white"/>
<path opacity="0.2" d="M302.937 385.328H271.562V455.318H302.937V385.328Z" stroke="#373737" stroke-width="2.24"/>
<path opacity="0.2" d="M281.667 430.397H266.247V456.378H281.667V430.397Z" fill="white"/>
<path opacity="0.2" d="M280.606 431.458H267.31V455.316H280.606V431.458Z" stroke="#373737" stroke-width="2.24"/>
<path opacity="0.2" d="M308.252 430.397H292.832V456.378H308.252V430.397Z" fill="white"/>
<path opacity="0.2" d="M307.19 431.458H293.894V455.316H307.19V431.458Z" stroke="#373737" stroke-width="2.24"/>
<path opacity="0.2" d="M276.881 357.756H297.086V386.506H276.881V357.756Z" fill="white"/>
<path opacity="0.2" fill-rule="evenodd" clip-rule="evenodd" d="M277.943 358.816V385.444H296.024V358.816H277.943Z" stroke="#373737" stroke-width="2.24"/>
<g opacity="0.2">
<path opacity="0.2" fill-rule="evenodd" clip-rule="evenodd" d="M275.854 426.905V368.718H285.013V421.602H289.267V368.718H298.203V426.905" fill="white"/>
<path opacity="0.2" d="M275.854 426.905V368.718H285.013V421.602H289.267V368.718H298.203V426.905" stroke="#373737" stroke-width="2.24"/>
</g>
<path opacity="0.2" d="M279.008 353.514H294.958V359.876H279.008V353.514Z" fill="white"/>
<path opacity="0.2" fill-rule="evenodd" clip-rule="evenodd" d="M280.07 354.575V358.815H293.898V354.575H280.07Z" stroke="#373737" stroke-width="2.24"/>
<path opacity="0.2" d="M289.111 331.243H284.857V333.364H289.111V331.243Z" fill="#373737"/>
<path opacity="0.2" d="M288.047 319.578H285.921V338.667H288.047V319.578Z" fill="#373737"/>
<g opacity="0.2">
<path opacity="0.2" d="M293.364 348.742H280.604V357.225H293.364V348.742Z" fill="white"/>
<path opacity="0.2" d="M292.303 349.802H281.665V356.164H292.303V349.802Z" stroke="#373737" stroke-width="2.24"/>
</g>
<g opacity="0.2">
<path opacity="0.2" d="M286.984 337.076C288.746 337.076 290.174 338.505 290.174 340.267V346.62H283.794V340.267C283.794 338.505 285.222 337.076 286.984 337.076Z" fill="white"/>
<path opacity="0.2" fill-rule="evenodd" clip-rule="evenodd" d="M284.855 345.559H289.112V340.266C289.112 339.091 288.159 338.138 286.983 338.138C285.809 338.138 284.855 339.091 284.855 340.266V345.559Z" stroke="#373737" stroke-width="2.24"/>
</g>
<g opacity="0.2">
<path opacity="0.2" d="M284.852 342.909H289.114C290.286 342.909 291.237 343.859 291.237 345.031V350.862H282.729V345.031C282.729 343.859 283.68 342.909 284.852 342.909Z" fill="white"/>
<path opacity="0.2" fill-rule="evenodd" clip-rule="evenodd" d="M283.791 349.801H290.176V345.031C290.176 344.445 289.7 343.969 289.114 343.969H284.852C284.266 343.969 283.791 344.445 283.791 345.031V349.801Z" stroke="#373737" stroke-width="2.24"/>
</g>
</g>
</g>
<g filter="url(#filter0_f_1467_20504)">
<path d="M727.12 597.933C862.142 597.933 971.599 488.476 971.599 353.453C971.599 218.43 862.142 108.974 727.12 108.974C592.098 108.974 482.641 218.43 482.641 353.453C482.641 488.476 592.098 597.933 727.12 597.933Z" fill="white"/>
</g>
<g filter="url(#filter1_f_1467_20504)">
<path fill-rule="evenodd" clip-rule="evenodd" d="M1374.84 598.104V453.761H1241.22V428.024L1217.57 427.291L1204.59 408.638L1182.85 436.347H1166.49V426.956H1154.87V402.994L1138.96 387.076L1120.81 405.227V420.43H1055.25V487.303H1041.7V478.697H999.876V467.457L986.344 456.34L972.805 470.202V486.746H966.171V598.037" fill="white"/>
</g>
<g filter="url(#filter2_f_1467_20504)">
<path fill-rule="evenodd" clip-rule="evenodd" d="M78.4521 401.638H179.072L213.018 373.184L239.462 397.258L229.719 398.511L229.756 420.184L224.689 424.627L229.719 436.466H239.462L240.156 426.882H258.18L259.3 434.566L271.385 434.803L272.715 441.572H289.055H300.865V424.118H318.642V412.195L333.812 421.167L390.637 418.765L392.55 477.087H485.599V596.758L80.6889 597.644L78.4521 401.638Z" fill="white"/>
</g>
<path d="M180.356 561.924H171.828V563.819H180.356V561.924Z" fill="#373737"/>
<path d="M180.357 405.571H84.6494V599.828H180.357V405.571Z" fill="white"/>
<path d="M179.409 406.519H85.5977V598.881H179.409V406.519Z" stroke="#373737" stroke-width="2"/>
<path d="M148.138 561.924H84.6494V563.819H148.138V561.924Z" fill="#373737"/>
<path d="M183.2 405.571H82.7539V414.1H183.2V405.571Z" fill="white"/>
<path d="M182.252 406.519H83.7012V413.152H182.252V406.519Z" stroke="#373737" stroke-width="2"/>
<path d="M184.147 459.583H84.6494V468.113H184.147V459.583Z" fill="white"/>
<path d="M183.199 460.532H85.5977V467.165H183.199V460.532Z" stroke="#373737" stroke-width="2"/>
<path d="M184.147 510.754H84.6494V519.282H184.147V510.754Z" fill="white"/>
<path d="M183.199 511.701H85.5977V518.335H183.199V511.701Z" stroke="#373737" stroke-width="2"/>
<path d="M107.391 527.811H92.2305V533.98H107.391V527.811Z" fill="white"/>
<path d="M106.444 528.758H93.1768V533.032H106.444V528.758Z" stroke="#373737" stroke-width="2"/>
<path d="M107.391 550.553H92.2305V552.448H107.391V550.553Z" fill="#373737"/>
<path fill-rule="evenodd" clip-rule="evenodd" d="M94.125 532.549V551.251H105.015V532.549H94.125Z" stroke="#373737" stroke-width="2"/>
<path d="M107.391 476.641H92.2305V482.81H107.391V476.641Z" fill="white"/>
<path d="M106.444 477.589H93.1768V481.862H106.444V477.589Z" stroke="#373737" stroke-width="2"/>
<path d="M107.391 499.384H92.2305V501.278H107.391V499.384Z" fill="#373737"/>
<path fill-rule="evenodd" clip-rule="evenodd" d="M94.125 481.379V500.08H105.015V481.379H94.125Z" stroke="#373737" stroke-width="2"/>
<path d="M107.391 427.366H92.2305V433.534H107.391V427.366Z" fill="white"/>
<path d="M106.444 428.313H93.1768V432.587H106.444V428.313Z" stroke="#373737" stroke-width="2"/>
<path d="M107.391 450.108H92.2305V452.003H107.391V450.108Z" fill="#373737"/>
<path fill-rule="evenodd" clip-rule="evenodd" d="M94.125 432.104V450.805H105.015V432.104H94.125Z" stroke="#373737" stroke-width="2"/>
<path d="M132.978 427.366H121.605V433.534H132.978V427.366Z" fill="white"/>
<path d="M132.029 428.313H122.553V432.587H132.029V428.313Z" stroke="#373737" stroke-width="2"/>
<path d="M132.978 450.108H121.605V452.003H132.978V450.108Z" fill="#373737"/>
<path fill-rule="evenodd" clip-rule="evenodd" d="M123.5 432.104V450.805H131.081V432.104H123.5Z" stroke="#373737" stroke-width="2"/>
<path d="M132.978 476.641H121.605V482.81H132.978V476.641Z" fill="white"/>
<path d="M132.029 477.589H122.553V481.862H132.029V477.589Z" stroke="#373737" stroke-width="2"/>
<path d="M132.978 499.384H121.605V501.278H132.978V499.384Z" fill="#373737"/>
<path fill-rule="evenodd" clip-rule="evenodd" d="M123.5 481.379V500.08H131.081V481.379H123.5Z" stroke="#373737" stroke-width="2"/>
<path d="M132.978 527.811H121.605V533.98H132.978V527.811Z" fill="white"/>
<path d="M132.029 528.758H122.553V533.032H132.029V528.758Z" stroke="#373737" stroke-width="2"/>
<path d="M132.978 550.553H121.605V552.448H132.978V550.553Z" fill="#373737"/>
<path fill-rule="evenodd" clip-rule="evenodd" d="M123.5 532.549V551.251H131.081V532.549H123.5Z" stroke="#373737" stroke-width="2"/>
<path d="M167.09 427.366H151.929V433.534H167.09V427.366Z" fill="white"/>
<path d="M166.143 428.313H152.876V432.587H166.143V428.313Z" stroke="#373737" stroke-width="2"/>
<path d="M167.09 450.108H151.929V452.003H167.09V450.108Z" fill="#373737"/>
<path fill-rule="evenodd" clip-rule="evenodd" d="M153.824 432.104V450.805H164.714V432.104H153.824Z" stroke="#373737" stroke-width="2"/>
<path d="M168.038 476.641H152.876V482.81H168.038V476.641Z" fill="white"/>
<path d="M167.09 477.589H153.824V481.862H167.09V477.589Z" stroke="#373737" stroke-width="2"/>
<path d="M168.038 499.384H152.876V501.278H168.038V499.384Z" fill="#373737"/>
<path fill-rule="evenodd" clip-rule="evenodd" d="M154.771 481.379V500.08H165.66V481.379H154.771Z" stroke="#373737" stroke-width="2"/>
<path d="M172.776 528.758H147.191V598.881H172.776V528.758Z" stroke="#373737" stroke-width="2"/>
<path d="M168.038 533.496H151.928V568.557H168.038V533.496Z" stroke="#373737" stroke-width="2"/>
<path d="M172.776 567.61H148.138V569.505H172.776V567.61Z" fill="#373737"/>
<path d="M172.776 572.348H148.138V574.243H172.776V572.348Z" fill="#373737"/>
<path d="M172.776 578.033H148.138V579.929H172.776V578.033Z" fill="#373737"/>
<path d="M172.776 582.771H148.138V584.667H172.776V582.771Z" fill="#373737"/>
<path d="M172.776 588.457H148.138V590.352H172.776V588.457Z" fill="#373737"/>
<path d="M172.776 593.195H148.138V595.09H172.776V593.195Z" fill="#373737"/>
<path d="M124.448 571.4H109.825V583.719H124.448V571.4Z" stroke="#373737" stroke-width="2"/>
<path d="M125.396 576.138H109.286V578.033H125.396V576.138Z" fill="#D8D8D8"/>
<path d="M124.921 576.611H109.761V577.56H124.921V576.611Z" stroke="#373737"/>
<path d="M114.972 412.204H113.077V563.819H114.972V412.204Z" fill="#D8D8D8"/>
<path d="M114.499 412.678H113.551V563.346H114.499V412.678Z" stroke="#373737"/>
<path d="M141.505 412.204H139.61V598.881H141.505V412.204Z" fill="#D8D8D8"/>
<path d="M141.031 412.678H140.083V598.406H141.031V412.678Z" stroke="#373737"/>
<path d="M267.535 494.646H194.57V598.881H267.535V494.646Z" stroke="#373737" stroke-width="2"/>
<path d="M302.596 450.108H193.623V599.828H302.596V450.108Z" fill="white"/>
<path d="M301.649 451.056H194.57V598.881H301.649V451.056Z" stroke="#373737" stroke-width="2"/>
<path d="M268.484 493.698H193.623V599.828H268.484V493.698Z" fill="white"/>
<path d="M267.535 494.646H194.57V598.881H267.535V494.646Z" stroke="#373737" stroke-width="2"/>
<path d="M304.492 449.161H190.78V457.689H304.492V449.161Z" fill="white"/>
<path d="M303.544 450.108H191.728V456.742H303.544V450.108Z" stroke="#373737" stroke-width="2"/>
<path d="M255.216 437.789H265.64V451.056H253.321H233.421V441.58H241.002V439.685V431.156H255.216V437.789Z" fill="white"/>
<path fill-rule="evenodd" clip-rule="evenodd" d="M254.268 432.104H241.95V442.527H234.369V450.108H264.692V438.737H254.268V432.104Z" stroke="#373737" stroke-width="2"/>
<path d="M304.492 478.536H190.78V487.065H304.492V478.536Z" fill="white"/>
<path d="M303.544 479.484H191.728V486.116H303.544V479.484Z" stroke="#373737" stroke-width="2"/>
<path d="M207.079 489.906H189.833V498.436H272.274V489.906H255.975L231.527 481.379L207.079 489.906Z" fill="white"/>
<path fill-rule="evenodd" clip-rule="evenodd" d="M190.78 490.854V497.487H271.326V490.854H255.814L231.527 482.382L207.24 490.854H190.78Z" stroke="#373737" stroke-width="2"/>
<path d="M192.675 542.025H268.995V548.658H192.675V542.025Z" fill="white"/>
<path fill-rule="evenodd" clip-rule="evenodd" d="M193.623 542.972V547.71H268.047V542.972H193.623Z" stroke="#373737" stroke-width="2"/>
<path d="M297.858 532.549H272.273V598.881H297.858V532.549Z" stroke="#373737" stroke-width="2"/>
<path d="M293.122 537.287H277.012V572.348H293.122V537.287Z" stroke="#373737" stroke-width="2"/>
<path d="M297.858 571.4H273.222V573.295H297.858V571.4Z" fill="#373737"/>
<path d="M297.858 576.138H273.222V578.033H297.858V576.138Z" fill="#373737"/>
<path d="M297.858 581.824H273.222V583.719H297.858V581.824Z" fill="#373737"/>
<path d="M297.858 586.562H273.222V588.457H297.858V586.562Z" fill="#373737"/>
<path d="M297.858 592.247H273.222V594.143H297.858V592.247Z" fill="#373737"/>
<path d="M213.523 462.427H206.889V472.851H213.523V462.427Z" fill="white"/>
<path d="M212.575 463.375H207.837V471.903H212.575V463.375Z" stroke="#373737" stroke-width="2"/>
<path d="M228.685 462.427H222.051V472.851H228.685V462.427Z" fill="white"/>
<path d="M227.737 463.375H222.999V471.903H227.737V463.375Z" stroke="#373737" stroke-width="2"/>
<path d="M243.846 462.427H237.213V472.851H243.846V462.427Z" fill="white"/>
<path d="M242.897 463.375H238.159V471.903H242.897V463.375Z" stroke="#373737" stroke-width="2"/>
<path d="M259.007 462.427H252.373V472.851H259.007V462.427Z" fill="white"/>
<path d="M258.059 463.375H253.321V471.903H258.059V463.375Z" stroke="#373737" stroke-width="2"/>
<path d="M274.168 462.427H267.535V472.851H274.168V462.427Z" fill="white"/>
<path d="M273.221 463.375H268.483V471.903H273.221V463.375Z" stroke="#373737" stroke-width="2"/>
<path d="M289.33 462.427H282.697V472.851H289.33V462.427Z" fill="white"/>
<path d="M288.382 463.375H283.645V471.903H288.382V463.375Z" stroke="#373737" stroke-width="2"/>
<path d="M282.697 445.37H267.535V451.056H282.697V445.37Z" fill="white"/>
<path d="M281.749 446.318H268.483V450.108H281.749V446.318Z" stroke="#373737" stroke-width="2"/>
<path d="M295.015 441.58H287.436V451.056H295.015V441.58Z" fill="white"/>
<path d="M294.069 442.527H288.384V450.108H294.069V442.527Z" stroke="#373737" stroke-width="2"/>
<path d="M292.172 435.894H290.277V443.475H292.172V435.894Z" fill="#373737"/>
<path d="M289.33 493.698H278.906V525.915H289.33V493.698Z" fill="white"/>
<path d="M288.382 494.646H279.854V524.968H288.382V494.646Z" stroke="#373737" stroke-width="2"/>
<path d="M291.226 524.02H277.012V525.915H291.226V524.02Z" fill="#373737"/>
<path d="M291.226 488.96H277.012V495.592H291.226V488.96Z" fill="white"/>
<path d="M290.277 489.908H277.958V494.646H290.277V489.908Z" stroke="#373737" stroke-width="2"/>
<path d="M213.522 502.225H203.1V508.859H213.522V502.225Z" fill="white"/>
<path d="M212.575 503.173H204.047V507.911H212.575V503.173Z" stroke="#373737" stroke-width="2"/>
<path d="M211.626 506.963H204.993V538.234H211.626V506.963Z" fill="white"/>
<path d="M210.679 507.911H205.941V537.287H210.679V507.911Z" stroke="#373737" stroke-width="2"/>
<path d="M213.523 536.339H203.099V538.234H213.523V536.339Z" fill="#D8D8D8"/>
<path d="M212.576 537.287H204.047V538.234H212.576V537.287Z" stroke="#373737" stroke-width="2"/>
<path d="M259.006 502.225H248.583V508.859H259.006V502.225Z" fill="white"/>
<path d="M258.059 503.173H249.53V507.911H258.059V503.173Z" stroke="#373737" stroke-width="2"/>
<path d="M257.111 506.963H250.479V538.234H257.111V506.963Z" fill="white"/>
<path d="M256.163 507.911H251.425V537.287H256.163V507.911Z" stroke="#373737" stroke-width="2"/>
<path d="M259.006 536.339H248.583V538.234H259.006V536.339Z" fill="#D8D8D8"/>
<path d="M258.059 537.287H249.53V538.234H258.059V537.287Z" stroke="#373737" stroke-width="2"/>
<path d="M239.107 502.225H223.945V508.859H239.107V502.225Z" fill="white"/>
<path d="M238.159 503.173H224.894V507.911H238.159V503.173Z" stroke="#373737" stroke-width="2"/>
<path d="M237.213 506.963H224.894V538.234H237.213V506.963Z" fill="white"/>
<path d="M236.265 507.911H225.841V537.287H236.265V507.911Z" stroke="#373737" stroke-width="2"/>
<path d="M239.107 536.339H223.945V538.234H239.107V536.339Z" fill="#D8D8D8"/>
<path d="M238.161 537.287H224.894V538.234H238.161V537.287Z" stroke="#373737" stroke-width="2"/>
<path d="M213.522 551.501H203.1V558.134H213.522V551.501Z" fill="white"/>
<path d="M212.575 552.448H204.047V557.186H212.575V552.448Z" stroke="#373737" stroke-width="2"/>
<path d="M211.626 556.238H204.993V587.509H211.626V556.238Z" fill="white"/>
<path d="M210.679 557.186H205.941V586.562H210.679V557.186Z" stroke="#373737" stroke-width="2"/>
<path d="M213.523 585.614H203.099V587.509H213.523V585.614Z" fill="#D8D8D8"/>
<path d="M212.576 586.562H204.047V587.509H212.576V586.562Z" stroke="#373737" stroke-width="2"/>
<path d="M259.006 551.501H248.583V558.134H259.006V551.501Z" fill="white"/>
<path d="M258.059 552.448H249.53V557.186H258.059V552.448Z" stroke="#373737" stroke-width="2"/>
<path d="M257.111 556.238H250.479V587.509H257.111V556.238Z" fill="white"/>
<path d="M256.163 557.186H251.425V586.562H256.163V557.186Z" stroke="#373737" stroke-width="2"/>
<path d="M259.006 585.614H248.583V587.509H259.006V585.614Z" fill="#D8D8D8"/>
<path d="M258.059 586.562H249.53V587.509H258.059V586.562Z" stroke="#373737" stroke-width="2"/>
<path d="M239.107 551.501H223.945V558.134H239.107V551.501Z" fill="white"/>
<path d="M238.159 552.448H224.894V557.186H238.159V552.448Z" stroke="#373737" stroke-width="2"/>
<path d="M237.213 556.238H224.894V587.509H237.213V556.238Z" fill="white"/>
<path d="M236.265 557.186H225.841V586.562H236.265V557.186Z" stroke="#373737" stroke-width="2"/>
<path d="M239.107 585.614H223.945V587.509H239.107V585.614Z" fill="#D8D8D8"/>
<path d="M238.161 586.562H224.894V587.509H238.161V586.562Z" stroke="#373737" stroke-width="2"/>
<path d="M224.894 397.043H198.362V417.89H224.894V397.043Z" fill="white"/>
<path d="M198.362 416.942H225.646L219.289 424.525L223.876 451.099H200.186L204.762 424.525L198.362 416.942Z" fill="white"/>
<path fill-rule="evenodd" clip-rule="evenodd" d="M200.401 417.89L205.771 424.251L201.31 450.151H222.751L218.28 424.253L223.614 417.89H200.401Z" stroke="#373737" stroke-width="2"/>
<path d="M218.261 423.576H204.995V425.471H218.261V423.576Z" fill="#373737"/>
<path d="M220.156 431.156H204.995V433.051H220.156V431.156Z" fill="#373737"/>
<path d="M222.051 442.528H203.099V444.423H222.051V442.528Z" fill="#373737"/>
<path d="M213.049 449.634V418.363H211.153V449.634H213.049Z" fill="#373737"/>
<path fill-rule="evenodd" clip-rule="evenodd" d="M228.536 395.148L212.101 380.934L195.665 395.148H194.57V397.043H229.631V395.148H228.536Z" fill="white" stroke="#373737" stroke-width="2" stroke-linecap="square"/>
<path d="M200.257 396.095H198.362V418.837H200.257V396.095Z" fill="#373737"/>
<path d="M225.842 396.095H223.945V418.837H225.842V396.095Z" fill="#373737"/>
<path d="M220.156 400.833H218.261V408.414H220.156V400.833Z" fill="#373737"/>
<path d="M208.785 413.152H206.89V417.89H208.785V413.152Z" fill="#373737"/>
<path d="M217.313 413.152H215.418V417.89H217.313V413.152Z" fill="#373737"/>
<path d="M228.683 416.942H195.518V418.837H228.683V416.942Z" fill="#373737"/>
<path d="M228.683 412.204H195.518V414.1H228.683V412.204Z" fill="#373737"/>
<path d="M339.552 427.366H312.072V437.79H339.552V427.366Z" fill="white"/>
<path d="M338.605 428.313H313.021V436.842H338.605V428.313Z" stroke="#373737" stroke-width="2"/>
<path d="M323.444 417.89H321.548V429.261H323.444V417.89Z" fill="#373737"/>
<path d="M328.181 421.68H326.286V428.313H328.181V421.68Z" fill="#373737"/>
<path d="M385.985 424.523H345.238V435.894H385.985V424.523Z" fill="white"/>
<path d="M385.036 425.471H346.186V434.947H385.036V425.471Z" stroke="#373737" stroke-width="2"/>
<path d="M328.181 586.562H323.443V598.881H328.181V586.562Z" stroke="#373737" stroke-width="2"/>
<path d="M344.291 586.562H339.553V598.881H344.291V586.562Z" stroke="#373737" stroke-width="2"/>
<path d="M360.4 586.562H355.662V598.881H360.4V586.562Z" stroke="#373737" stroke-width="2"/>
<path d="M376.508 586.562H371.771V598.881H376.508V586.562Z" stroke="#373737" stroke-width="2"/>
<path d="M356.609 546.763H344.291V548.658H356.609V546.763Z" fill="#373737"/>
<path d="M356.609 541.077H345.238V562.872H356.609V541.077Z" stroke="#373737" stroke-width="2"/>
<path d="M358.505 561.924H343.343V563.819H358.505V561.924Z" fill="#D8D8D8"/>
<path d="M358.031 562.397H343.817V563.346H358.031V562.397Z" stroke="#373737"/>
<path d="M376.508 546.763H364.189V548.658H376.508V546.763Z" fill="#373737"/>
<path d="M376.509 541.077H365.137V562.872H376.509V541.077Z" stroke="#373737" stroke-width="2"/>
<path d="M378.404 561.924H363.242V563.819H378.404V561.924Z" fill="#D8D8D8"/>
<path d="M377.931 562.397H363.717V563.346H377.931V562.397Z" stroke="#373737"/>
<path d="M354.714 425.471H352.819V434.947H354.714V425.471Z" fill="#373737"/>
<path d="M362.295 425.471H360.4V434.947H362.295V425.471Z" fill="#373737"/>
<path d="M370.823 425.471H368.928V434.947H370.823V425.471Z" fill="#373737"/>
<path d="M378.404 425.471H376.509V434.947H378.404V425.471Z" fill="#373737"/>
<path d="M386.932 433.999H313.021V599.828H386.932V433.999Z" fill="white"/>
<path d="M385.985 434.947H313.969V598.881H385.985V434.947Z" stroke="#373737" stroke-width="2"/>
<path d="M335.762 451.056H324.391V472.851H335.762V451.056Z" stroke="#373737" stroke-width="2"/>
<path d="M335.762 456.74H323.443V458.637H335.762V456.74Z" fill="#373737"/>
<path d="M337.658 471.903H322.496V473.797H337.658V471.903Z" fill="#D8D8D8"/>
<path d="M337.184 472.376H322.97V473.324H337.184V472.376Z" stroke="#373737"/>
<path d="M356.609 451.056H345.238V472.851H356.609V451.056Z" stroke="#373737" stroke-width="2"/>
<path d="M356.609 456.74H344.291V458.637H356.609V456.74Z" fill="#373737"/>
<path d="M358.505 471.903H343.343V473.797H358.505V471.903Z" fill="#D8D8D8"/>
<path d="M358.031 472.376H343.817V473.324H358.031V472.376Z" stroke="#373737"/>
<path d="M376.509 451.056H365.137V472.851H376.509V451.056Z" stroke="#373737" stroke-width="2"/>
<path d="M376.508 456.74H364.189V458.637H376.508V456.74Z" fill="#373737"/>
<path d="M378.404 471.903H363.242V473.797H378.404V471.903Z" fill="#D8D8D8"/>
<path d="M377.931 472.376H363.717V473.324H377.931V472.376Z" stroke="#373737"/>
<path d="M335.762 503.173H324.391V524.968H335.762V503.173Z" stroke="#373737" stroke-width="2"/>
<path d="M335.762 508.859H323.443V510.754H335.762V508.859Z" fill="#373737"/>
<path d="M337.658 524.02H322.496V525.915H337.658V524.02Z" fill="#D8D8D8"/>
<path d="M337.184 524.494H322.97V525.442H337.184V524.494Z" stroke="#373737"/>
<path d="M356.609 503.173H345.238V524.968H356.609V503.173Z" stroke="#373737" stroke-width="2"/>
<path d="M356.609 508.859H344.291V510.754H356.609V508.859Z" fill="#373737"/>
<path d="M358.505 524.02H343.343V525.915H358.505V524.02Z" fill="#D8D8D8"/>
<path d="M358.031 524.494H343.817V525.442H358.031V524.494Z" stroke="#373737"/>
<path d="M376.509 503.173H365.137V524.968H376.509V503.173Z" stroke="#373737" stroke-width="2"/>
<path d="M376.508 508.859H364.189V510.754H376.508V508.859Z" fill="#373737"/>
<path d="M378.404 524.02H363.242V525.915H378.404V524.02Z" fill="#D8D8D8"/>
<path d="M377.931 524.494H363.717V525.442H377.931V524.494Z" stroke="#373737"/>
<path d="M356.609 541.077H345.238V562.872H356.609V541.077Z" stroke="#373737" stroke-width="2"/>
<path d="M356.609 546.763H344.291V548.658H356.609V546.763Z" fill="#373737"/>
<path d="M358.505 561.924H343.343V563.819H358.505V561.924Z" fill="#D8D8D8"/>
<path d="M358.031 562.397H343.817V563.346H358.031V562.397Z" stroke="#373737"/>
<path d="M376.509 541.077H365.137V562.872H376.509V541.077Z" stroke="#373737" stroke-width="2"/>
<path d="M376.508 546.763H364.189V548.658H376.508V546.763Z" fill="#373737"/>
<path d="M378.404 561.924H363.242V563.819H378.404V561.924Z" fill="#D8D8D8"/>
<path d="M377.931 562.397H363.717V563.346H377.931V562.397Z" stroke="#373737"/>
<path d="M335.762 541.077H324.391V562.872H335.762V541.077Z" stroke="#373737" stroke-width="2"/>
<path d="M335.762 546.763H323.443V548.658H335.762V546.763Z" fill="#373737"/>
<path d="M337.658 561.924H322.496V563.819H337.658V561.924Z" fill="#D8D8D8"/>
<path d="M337.184 562.397H322.97V563.346H337.184V562.397Z" stroke="#373737"/>
<path d="M390.722 433.999H310.177V442.528H390.722V433.999Z" fill="white"/>
<path d="M389.774 434.947H311.125V441.58H389.774V434.947Z" stroke="#373737" stroke-width="2"/>
<path d="M390.722 487.065H310.177V495.592H390.722V487.065Z" fill="white"/>
<path d="M389.774 488.011H311.125V494.646H389.774V488.011Z" stroke="#373737" stroke-width="2"/>
<path d="M390.722 571.4H310.177V579.928H390.722V571.4Z" fill="white"/>
<path d="M389.774 572.348H311.125V578.981H389.774V572.348Z" stroke="#373737" stroke-width="2"/>
<path d="M26.846 427.366H-0.633789V437.79H26.846V427.366Z" fill="white"/>
<path d="M25.8983 428.313H0.313477V436.842H25.8983V428.313Z" stroke="#373737" stroke-width="2"/>
<path d="M10.7367 417.89H8.8418V429.261H10.7367V417.89Z" fill="#373737"/>
<path d="M15.475 421.68H13.5801V428.313H15.475V421.68Z" fill="#373737"/>
<path d="M73.2781 424.523H32.5312V435.894H73.2781V424.523Z" fill="white"/>
<path d="M72.3301 425.471H33.4795V434.947H72.3301V425.471Z" stroke="#373737" stroke-width="2"/>
<path d="M15.4743 586.562H10.7363V598.881H15.4743V586.562Z" stroke="#373737" stroke-width="2"/>
<path d="M31.5837 586.562H26.8457V598.881H31.5837V586.562Z" stroke="#373737" stroke-width="2"/>
<path d="M47.694 586.562H42.9561V598.881H47.694V586.562Z" stroke="#373737" stroke-width="2"/>
<path d="M63.8024 586.562H59.0645V598.881H63.8024V586.562Z" stroke="#373737" stroke-width="2"/>
<path d="M43.9027 546.763H31.585V548.658H43.9027V546.763Z" fill="#373737"/>
<path d="M43.9021 541.077H32.5312V562.872H43.9021V541.077Z" stroke="#373737" stroke-width="2"/>
<path d="M45.7987 561.924H30.6367V563.819H45.7987V561.924Z" fill="#D8D8D8"/>
<path d="M45.3252 562.397H31.1113V563.346H45.3252V562.397Z" stroke="#373737"/>
<path d="M63.8024 546.763H51.4834V548.658H63.8024V546.763Z" fill="#373737"/>
<path d="M63.8028 541.077H52.4307V562.872H63.8028V541.077Z" stroke="#373737" stroke-width="2"/>
<path d="M65.6971 561.924H50.5352V563.819H65.6971V561.924Z" fill="#D8D8D8"/>
<path d="M65.2237 562.397H51.0098V563.346H65.2237V562.397Z" stroke="#373737"/>
<path d="M42.0072 425.471H40.1123V434.947H42.0072V425.471Z" fill="#373737"/>
<path d="M49.5883 425.471H47.6934V434.947H49.5883V425.471Z" fill="#373737"/>
<path d="M58.1166 425.471H56.2217V434.947H58.1166V425.471Z" fill="#373737"/>
<path d="M65.6977 425.471H63.8027V434.947H65.6977V425.471Z" fill="#373737"/>
<path d="M74.2248 433.999H0.313477V599.828H74.2248V433.999Z" fill="white"/>
<path d="M73.2782 434.947H1.26172V598.881H73.2782V434.947Z" stroke="#373737" stroke-width="2"/>
<path d="M23.0555 451.056H11.6846V472.851H23.0555V451.056Z" stroke="#373737" stroke-width="2"/>
<path d="M23.0553 456.74H10.7363V458.637H23.0553V456.74Z" fill="#373737"/>
<path d="M24.9508 471.903H9.79004V473.797H24.9508V471.903Z" fill="#D8D8D8"/>
<path d="M24.4776 472.376H10.2637V473.324H24.4776V472.376Z" stroke="#373737"/>
<path d="M43.9021 451.056H32.5312V472.851H43.9021V451.056Z" stroke="#373737" stroke-width="2"/>
<path d="M43.9027 456.74H31.585V458.637H43.9027V456.74Z" fill="#373737"/>
<path d="M45.7987 471.903H30.6367V473.797H45.7987V471.903Z" fill="#D8D8D8"/>
<path d="M45.3252 472.376H31.1113V473.324H45.3252V472.376Z" stroke="#373737"/>
<path d="M63.8028 451.056H52.4307V472.851H63.8028V451.056Z" stroke="#373737" stroke-width="2"/>
<path d="M63.8024 456.74H51.4834V458.637H63.8024V456.74Z" fill="#373737"/>
<path d="M65.6971 471.903H50.5352V473.797H65.6971V471.903Z" fill="#D8D8D8"/>
<path d="M65.2237 472.376H51.0098V473.324H65.2237V472.376Z" stroke="#373737"/>
<path d="M23.0555 503.173H11.6846V524.968H23.0555V503.173Z" stroke="#373737" stroke-width="2"/>
<path d="M23.0553 508.859H10.7363V510.754H23.0553V508.859Z" fill="#373737"/>
<path d="M24.9508 524.02H9.79004V525.915H24.9508V524.02Z" fill="#D8D8D8"/>
<path d="M24.4776 524.494H10.2637V525.442H24.4776V524.494Z" stroke="#373737"/>
<path d="M43.9021 503.173H32.5312V524.968H43.9021V503.173Z" stroke="#373737" stroke-width="2"/>
<path d="M43.9027 508.859H31.585V510.754H43.9027V508.859Z" fill="#373737"/>
<path d="M45.7987 524.02H30.6367V525.915H45.7987V524.02Z" fill="#D8D8D8"/>
<path d="M45.3252 524.494H31.1113V525.442H45.3252V524.494Z" stroke="#373737"/>
<path d="M63.8028 503.173H52.4307V524.968H63.8028V503.173Z" stroke="#373737" stroke-width="2"/>
<path d="M63.8024 508.859H51.4834V510.754H63.8024V508.859Z" fill="#373737"/>
<path d="M65.6971 524.02H50.5352V525.915H65.6971V524.02Z" fill="#D8D8D8"/>
<path d="M65.2237 524.494H51.0098V525.442H65.2237V524.494Z" stroke="#373737"/>
<path d="M43.9021 541.077H32.5312V562.872H43.9021V541.077Z" stroke="#373737" stroke-width="2"/>
<path d="M43.9027 546.763H31.585V548.658H43.9027V546.763Z" fill="#373737"/>
<path d="M45.7987 561.924H30.6367V563.819H45.7987V561.924Z" fill="#D8D8D8"/>
<path d="M45.3252 562.397H31.1113V563.346H45.3252V562.397Z" stroke="#373737"/>
<path d="M63.8028 541.077H52.4307V562.872H63.8028V541.077Z" stroke="#373737" stroke-width="2"/>
<path d="M63.8024 546.763H51.4834V548.658H63.8024V546.763Z" fill="#373737"/>
<path d="M65.6971 561.924H50.5352V563.819H65.6971V561.924Z" fill="#D8D8D8"/>
<path d="M65.2237 562.397H51.0098V563.346H65.2237V562.397Z" stroke="#373737"/>
<path d="M23.0555 541.077H11.6846V562.872H23.0555V541.077Z" stroke="#373737" stroke-width="2"/>
<path d="M23.0553 546.763H10.7363V548.658H23.0553V546.763Z" fill="#373737"/>
<path d="M24.9508 561.924H9.79004V563.819H24.9508V561.924Z" fill="#D8D8D8"/>
<path d="M24.4776 562.397H10.2637V563.346H24.4776V562.397Z" stroke="#373737"/>
<path d="M78.0163 433.999H-2.5293V442.528H78.0163V433.999Z" fill="white"/>
<path d="M77.0696 434.947H-1.58105V441.58H77.0696V434.947Z" stroke="#373737" stroke-width="2"/>
<path d="M78.0163 487.065H-2.5293V495.592H78.0163V487.065Z" fill="white"/>
<path d="M77.0696 488.011H-1.58105V494.646H77.0696V488.011Z" stroke="#373737" stroke-width="2"/>
<path d="M78.0163 571.4H-2.5293V579.928H78.0163V571.4Z" fill="white"/>
<path d="M77.0696 572.348H-1.58105V578.981H77.0696V572.348Z" stroke="#373737" stroke-width="2"/>
<path d="M476.955 487.065H397.357V599.828H476.955V487.065Z" fill="white"/>
<path d="M476.006 488.011H398.304V598.881H476.006V488.011Z" stroke="#373737" stroke-width="2"/>
<path d="M419.152 499.382H408.728V519.282H419.152V499.382Z" fill="white"/>
<path d="M418.204 500.33H409.675V518.334H418.204V500.33Z" stroke="#373737" stroke-width="2"/>
<path d="M421.046 499.382H406.832V505.068H421.046V499.382Z" fill="white"/>
<path d="M420.098 500.33H407.779V504.12H420.098V500.33Z" stroke="#373737" stroke-width="2"/>
<path d="M420.098 517.387H407.779V519.282H420.098V517.387Z" fill="#373737"/>
<path d="M419.152 508.859H408.728V510.754H419.152V508.859Z" fill="#373737"/>
<path d="M441.894 499.382H431.47V519.282H441.894V499.382Z" fill="white"/>
<path d="M440.945 500.33H432.417V518.334H440.945V500.33Z" stroke="#373737" stroke-width="2"/>
<path d="M443.789 499.382H429.575V505.068H443.789V499.382Z" fill="white"/>
<path d="M442.842 500.33H430.523V504.12H442.842V500.33Z" stroke="#373737" stroke-width="2"/>
<path d="M442.842 517.387H430.523V519.282H442.842V517.387Z" fill="#373737"/>
<path d="M441.894 508.859H431.47V510.754H441.894V508.859Z" fill="#373737"/>
<path d="M463.687 499.382H453.265V519.282H463.687V499.382Z" fill="white"/>
<path d="M462.739 500.33H454.211V518.334H462.739V500.33Z" stroke="#373737" stroke-width="2"/>
<path d="M465.582 499.382H451.368V505.068H465.582V499.382Z" fill="white"/>
<path d="M464.635 500.33H452.316V504.12H464.635V500.33Z" stroke="#373737" stroke-width="2"/>
<path d="M464.635 517.387H452.316V519.282H464.635V517.387Z" fill="#373737"/>
<path d="M463.687 508.859H453.265V510.754H463.687V508.859Z" fill="#373737"/>
<path d="M419.152 537.287H408.728V557.186H419.152V537.287Z" fill="white"/>
<path d="M418.204 538.234H409.675V556.238H418.204V538.234Z" stroke="#373737" stroke-width="2"/>
<path d="M421.046 537.287H406.832V542.972H421.046V537.287Z" fill="white"/>
<path d="M420.098 538.234H407.779V542.024H420.098V538.234Z" stroke="#373737" stroke-width="2"/>
<path d="M420.098 555.291H407.779V557.186H420.098V555.291Z" fill="#373737"/>
<path d="M419.152 546.763H408.728V548.658H419.152V546.763Z" fill="#373737"/>
<path d="M441.894 537.287H431.47V557.186H441.894V537.287Z" fill="white"/>
<path d="M440.945 538.234H432.417V556.238H440.945V538.234Z" stroke="#373737" stroke-width="2"/>
<path d="M443.789 537.287H429.575V542.972H443.789V537.287Z" fill="white"/>
<path d="M442.842 538.234H430.523V542.024H442.842V538.234Z" stroke="#373737" stroke-width="2"/>
<path d="M442.842 555.291H430.523V557.186H442.842V555.291Z" fill="#373737"/>
<path d="M441.894 546.763H431.47V548.658H441.894V546.763Z" fill="#373737"/>
<path d="M463.687 537.287H453.265V557.186H463.687V537.287Z" fill="white"/>
<path d="M462.739 538.234H454.211V556.238H462.739V538.234Z" stroke="#373737" stroke-width="2"/>
<path d="M465.582 537.287H451.368V542.972H465.582V537.287Z" fill="white"/>
<path d="M464.635 538.234H452.316V542.024H464.635V538.234Z" stroke="#373737" stroke-width="2"/>
<path d="M464.635 555.291H452.316V557.186H464.635V555.291Z" fill="#373737"/>
<path d="M463.687 546.763H453.265V548.658H463.687V546.763Z" fill="#373737"/>
<path d="M419.152 575.191H408.728V595.09H419.152V575.191Z" fill="white"/>
<path d="M418.204 576.138H409.675V594.143H418.204V576.138Z" stroke="#373737" stroke-width="2"/>
<path d="M421.046 575.191H406.832V580.876H421.046V575.191Z" fill="white"/>
<path d="M420.098 576.138H407.779V579.929H420.098V576.138Z" stroke="#373737" stroke-width="2"/>
<path d="M420.098 593.195H407.779V595.09H420.098V593.195Z" fill="#373737"/>
<path d="M419.152 584.667H408.728V586.562H419.152V584.667Z" fill="#373737"/>
<path d="M441.894 575.191H431.47V595.09H441.894V575.191Z" fill="white"/>
<path d="M440.945 576.138H432.417V594.143H440.945V576.138Z" stroke="#373737" stroke-width="2"/>
<path d="M443.789 575.191H429.575V580.876H443.789V575.191Z" fill="white"/>
<path d="M442.842 576.138H430.523V579.929H442.842V576.138Z" stroke="#373737" stroke-width="2"/>
<path d="M442.842 593.195H430.523V595.09H442.842V593.195Z" fill="#373737"/>
<path d="M441.894 584.667H431.47V586.562H441.894V584.667Z" fill="#373737"/>
<path d="M463.687 575.191H453.265V595.09H463.687V575.191Z" fill="white"/>
<path d="M462.739 576.138H454.211V594.143H462.739V576.138Z" stroke="#373737" stroke-width="2"/>
<path d="M465.582 575.191H451.368V580.876H465.582V575.191Z" fill="white"/>
<path d="M464.635 576.138H452.316V579.929H464.635V576.138Z" stroke="#373737" stroke-width="2"/>
<path d="M464.635 593.195H452.316V595.09H464.635V593.195Z" fill="#373737"/>
<path d="M463.687 584.667H453.265V586.562H463.687V584.667Z" fill="#373737"/>
<path d="M479.797 486.116H393.565V494.644H479.797V486.116Z" fill="white"/>
<path d="M478.849 487.065H394.513V493.698H478.849V487.065Z" stroke="#373737" stroke-width="2"/>
<path d="M426.731 478.536H401.146V488.011H426.731V478.536Z" fill="white"/>
<path d="M425.784 479.484H402.094V487.065H425.784V479.484Z" stroke="#373737" stroke-width="2"/>
<path d="M412.518 473.797H409.675V480.43H412.518V473.797Z" fill="#373737"/>
<path d="M417.256 473.797H414.413V480.43H417.256V473.797Z" fill="#373737"/>
<path d="M479.797 524.02H393.565V532.548H479.797V524.02Z" fill="white"/>
<path d="M478.849 524.968H394.514V531.601H478.849V524.968Z" stroke="#373737" stroke-width="2"/>
<path d="M479.797 561.924H393.565V570.453H479.797V561.924Z" fill="white"/>
<path d="M478.849 562.872H394.514V569.505H478.849V562.872Z" stroke="#373737" stroke-width="2"/>
<path d="M1036.98 485.168H1010.45V497.487H1036.98V485.168Z" fill="white"/>
<path d="M1036.04 486.116H1011.4V496.54H1036.04V486.116Z" stroke="#373737" stroke-width="2"/>
<path d="M1020.87 481.379H1018.98V487.065H1020.87V481.379Z" fill="#373737"/>
<path d="M1027.51 479.484H1025.61V485.17H1027.51V479.484Z" fill="#373737"/>
<path d="M995.289 472.851H976.337V487.065H995.289V472.851Z" stroke="#373737" stroke-width="2"/>
<path fill-rule="evenodd" clip-rule="evenodd" d="M985.813 463.375L995.289 472.851H976.337L985.813 463.375Z" stroke="#373737" stroke-width="2" stroke-linejoin="round"/>
<g style="mix-blend-mode:multiply">
<g style="mix-blend-mode:multiply">
<path fill-rule="evenodd" clip-rule="evenodd" d="M985.813 463.375L985.527 472.851H976.337L985.813 463.375Z" fill="#BF5F82"/>
</g>
</g>
<path d="M981.075 487.065H979.18V491.802H981.075V487.065Z" fill="#373737"/>
<path d="M990.551 477.589H988.656V482.327H990.551V477.589Z" fill="#373737"/>
<path d="M992.446 487.065H990.551V491.802H992.446V487.065Z" fill="#373737"/>
<path d="M1049.3 491.802H970.65V599.828H1049.3V491.802Z" fill="white"/>
<path d="M1048.35 492.749H971.599V598.88H1048.35V492.749Z" stroke="#373737" stroke-width="2"/>
<path d="M1052.14 491.802H968.756V500.33H1052.14V491.802Z" fill="white"/>
<path d="M1051.2 492.749H969.704V499.382H1051.2V492.749Z" stroke="#373737" stroke-width="2"/>
<path d="M1052.14 534.444H968.756V542.972H1052.14V534.444Z" fill="white"/>
<path d="M1051.2 535.391H969.704V542.024H1051.2V535.391Z" stroke="#373737" stroke-width="2"/>
<path d="M993.394 525.915H978.231V527.812H993.394V525.915Z" fill="#373737"/>
<path d="M991.498 508.859H980.127V526.863H991.498V508.859Z" stroke="#373737" stroke-width="2"/>
<path d="M992.445 514.544H979.18V516.439H992.445V514.544Z" fill="#373737"/>
<path d="M986.76 514.544H984.864V526.863H986.76V514.544Z" fill="#373737"/>
<path d="M1016.14 525.915H1000.97V527.812H1016.14V525.915Z" fill="#373737"/>
<path d="M1014.24 508.859H1002.87V526.863H1014.24V508.859Z" stroke="#373737" stroke-width="2"/>
<path d="M1015.19 514.544H1001.92V516.439H1015.19V514.544Z" fill="#373737"/>
<path d="M1009.5 514.544H1007.61V526.863H1009.5V514.544Z" fill="#373737"/>
<path d="M1039.83 525.915H1024.66V527.812H1039.83V525.915Z" fill="#373737"/>
<path d="M1037.93 508.859H1026.56V526.863H1037.93V508.859Z" stroke="#373737" stroke-width="2"/>
<path d="M1038.88 514.544H1025.61V516.439H1038.88V514.544Z" fill="#373737"/>
<path d="M1033.19 514.544H1031.3V526.863H1033.19V514.544Z" fill="#373737"/>
<path d="M993.394 569.505H978.231V571.4H993.394V569.505Z" fill="#373737"/>
<path d="M991.498 552.448H980.127V570.452H991.498V552.448Z" stroke="#373737" stroke-width="2"/>
<path d="M992.445 558.134H979.18V560.029H992.445V558.134Z" fill="#373737"/>
<path d="M986.76 558.134H984.864V570.453H986.76V558.134Z" fill="#373737"/>
<path d="M988.656 587.509H982.97V598.881H988.656V587.509Z" fill="white"/>
<path d="M987.707 588.457H983.917V597.933H987.707V588.457Z" stroke="#373737" stroke-width="2"/>
<path d="M1004.76 587.509H999.078V598.881H1004.76V587.509Z" fill="white"/>
<path d="M1003.82 588.457H1000.03V597.933H1003.82V588.457Z" stroke="#373737" stroke-width="2"/>
<path d="M1020.87 587.509H1015.19V598.881H1020.87V587.509Z" fill="white"/>
<path d="M1019.93 588.457H1016.14V597.933H1019.93V588.457Z" stroke="#373737" stroke-width="2"/>
<path d="M1036.98 587.509H1031.3V598.881H1036.98V587.509Z" fill="white"/>
<path d="M1036.04 588.457H1032.25V597.933H1036.04V588.457Z" stroke="#373737" stroke-width="2"/>
<path d="M1016.14 569.505H1000.97V571.4H1016.14V569.505Z" fill="#373737"/>
<path d="M1014.24 552.448H1002.87V570.452H1014.24V552.448Z" stroke="#373737" stroke-width="2"/>
<path d="M1015.19 558.134H1001.92V560.029H1015.19V558.134Z" fill="#373737"/>
<path d="M1009.5 558.134H1007.61V570.453H1009.5V558.134Z" fill="#373737"/>
<path d="M1039.83 569.505H1024.66V571.4H1039.83V569.505Z" fill="#373737"/>
<path d="M1037.93 552.448H1026.56V570.452H1037.93V552.448Z" stroke="#373737" stroke-width="2"/>
<path d="M1038.88 558.134H1025.61V560.029H1038.88V558.134Z" fill="#373737"/>
<path d="M1033.19 558.134H1031.3V570.453H1033.19V558.134Z" fill="#373737"/>
<path d="M1160.16 432.104H1060.67V599.828H1160.16V432.104Z" fill="white"/>
<path d="M1159.23 433.051H1061.62V598.88H1159.23V433.051Z" stroke="#373737" stroke-width="2"/>
<path d="M1083.42 463.375H1071.1V465.27H1083.42V463.375Z" fill="#373737"/>
<path d="M1077.25 446.318C1080.14 446.318 1082.47 448.651 1082.47 451.529V464.322H1072.04V451.529C1072.04 448.651 1074.38 446.318 1077.25 446.318Z" fill="white"/>
<path fill-rule="evenodd" clip-rule="evenodd" d="M1072.99 463.375H1081.52V451.529C1081.52 449.175 1079.61 447.265 1077.25 447.265C1074.9 447.265 1072.99 449.175 1072.99 451.529V463.375Z" stroke="#373737" stroke-width="2"/>
<path d="M1105.22 463.375H1092.89V465.27H1105.22V463.375Z" fill="#373737"/>
<path d="M1099.05 446.318C1101.92 446.318 1104.27 448.651 1104.27 451.529V464.322H1093.84V451.529C1093.84 448.651 1096.18 446.318 1099.05 446.318Z" fill="white"/>
<path fill-rule="evenodd" clip-rule="evenodd" d="M1094.78 463.375H1103.32V451.529C1103.32 449.175 1101.4 447.265 1099.05 447.265C1096.7 447.265 1094.78 449.175 1094.78 451.529V463.375Z" stroke="#373737" stroke-width="2"/>
<path d="M1127 463.375H1114.68V465.27H1127V463.375Z" fill="#373737"/>
<path d="M1120.85 446.318C1123.72 446.318 1126.06 448.651 1126.06 451.529V464.322H1115.63V451.529C1115.63 448.651 1117.96 446.318 1120.85 446.318Z" fill="white"/>
<path fill-rule="evenodd" clip-rule="evenodd" d="M1116.58 463.375H1125.11V451.529C1125.11 449.175 1123.2 447.265 1120.85 447.265C1118.49 447.265 1116.58 449.175 1116.58 451.529V463.375Z" stroke="#373737" stroke-width="2"/>
<path d="M1148.8 463.375H1136.48V465.27H1148.8V463.375Z" fill="#373737"/>
<path d="M1142.65 446.318C1145.52 446.318 1147.85 448.651 1147.85 451.529V464.322H1137.43V451.529C1137.43 448.651 1139.76 446.318 1142.65 446.318Z" fill="white"/>
<path fill-rule="evenodd" clip-rule="evenodd" d="M1138.38 463.375H1146.9V451.529C1146.9 449.175 1145 447.265 1142.65 447.265C1140.29 447.265 1138.38 449.175 1138.38 451.529V463.375Z" stroke="#373737" stroke-width="2"/>
<path d="M1083.42 506.016H1071.1V507.911H1083.42V506.016Z" fill="#373737"/>
<path d="M1077.25 488.96C1080.14 488.96 1082.47 491.292 1082.47 494.171V506.963H1072.04V494.171C1072.04 491.292 1074.38 488.96 1077.25 488.96Z" fill="white"/>
<path fill-rule="evenodd" clip-rule="evenodd" d="M1072.99 506.016H1081.52V494.171C1081.52 491.816 1079.61 489.906 1077.25 489.906C1074.9 489.906 1072.99 491.816 1072.99 494.171V506.016Z" stroke="#373737" stroke-width="2"/>
<path d="M1105.22 506.016H1092.89V507.911H1105.22V506.016Z" fill="#373737"/>
<path d="M1099.05 488.96C1101.92 488.96 1104.27 491.292 1104.27 494.171V506.963H1093.84V494.171C1093.84 491.292 1096.18 488.96 1099.05 488.96Z" fill="white"/>
<path fill-rule="evenodd" clip-rule="evenodd" d="M1094.78 506.016H1103.32V494.171C1103.32 491.816 1101.4 489.906 1099.05 489.906C1096.7 489.906 1094.78 491.816 1094.78 494.171V506.016Z" stroke="#373737" stroke-width="2"/>
<path d="M1127 506.016H1114.68V507.911H1127V506.016Z" fill="#373737"/>
<path d="M1120.85 488.96C1123.72 488.96 1126.06 491.292 1126.06 494.171V506.963H1115.63V494.171C1115.63 491.292 1117.96 488.96 1120.85 488.96Z" fill="white"/>
<path fill-rule="evenodd" clip-rule="evenodd" d="M1116.58 506.016H1125.11V494.171C1125.11 491.816 1123.2 489.906 1120.85 489.906C1118.49 489.906 1116.58 491.816 1116.58 494.171V506.016Z" stroke="#373737" stroke-width="2"/>
<path d="M1148.8 506.016H1136.48V507.911H1148.8V506.016Z" fill="#373737"/>
<path d="M1142.65 488.96C1145.52 488.96 1147.85 491.292 1147.85 494.171V506.963H1137.43V494.171C1137.43 491.292 1139.76 488.96 1142.65 488.96Z" fill="white"/>
<path fill-rule="evenodd" clip-rule="evenodd" d="M1138.38 506.016H1146.9V494.171C1146.9 491.816 1145 489.906 1142.65 489.906C1140.29 489.906 1138.38 491.816 1138.38 494.171V506.016Z" stroke="#373737" stroke-width="2"/>
<path d="M1088.15 546.763H1075.84V548.658H1088.15V546.763Z" fill="#373737"/>
<path d="M1081.99 529.706C1084.87 529.706 1087.2 532.039 1087.2 534.918V547.71H1076.78V534.918C1076.78 532.039 1079.11 529.706 1081.99 529.706Z" fill="white"/>
<path fill-rule="evenodd" clip-rule="evenodd" d="M1077.73 546.763H1086.25V534.918C1086.25 532.563 1084.35 530.653 1081.99 530.653C1079.63 530.653 1077.73 532.563 1077.73 534.918V546.763Z" stroke="#373737" stroke-width="2"/>
<path d="M1109.95 546.763H1097.63V548.658H1109.95V546.763Z" fill="#373737"/>
<path d="M1103.78 529.706C1106.67 529.706 1109 532.039 1109 534.918V547.71H1098.58V534.918C1098.58 532.039 1100.91 529.706 1103.78 529.706Z" fill="white"/>
<path fill-rule="evenodd" clip-rule="evenodd" d="M1099.52 546.763H1108.05V534.918C1108.05 532.563 1106.14 530.653 1103.78 530.653C1101.43 530.653 1099.52 532.563 1099.52 534.918V546.763Z" stroke="#373737" stroke-width="2"/>
<path d="M1163.01 431.156H1057.84V439.685H1163.01V431.156Z" fill="white"/>
<path d="M1162.06 432.104H1058.77V438.737H1162.06V432.104Z" stroke="#373737" stroke-width="2"/>
<path d="M1163.01 473.797H1057.84V482.327H1163.01V473.797Z" fill="white"/>
<path d="M1162.06 474.746H1058.77V481.379H1162.06V474.746Z" stroke="#373737" stroke-width="2"/>
<path d="M1163.01 514.544H1057.84V523.072H1163.01V514.544Z" fill="white"/>
<path d="M1162.06 515.492H1058.77V522.125H1162.06V515.492Z" stroke="#373737" stroke-width="2"/>
<path d="M1152.59 527.81H1127V598.881H1152.59V527.81Z" stroke="#373737" stroke-width="2"/>
<path d="M1147.85 532.548H1131.75V567.61H1147.85V532.548Z" stroke="#373737" stroke-width="2"/>
<path d="M1152.59 566.662H1127.95V568.557H1152.59V566.662Z" fill="#373737"/>
<path d="M1152.59 571.4H1127.95V573.295H1152.59V571.4Z" fill="#373737"/>
<path d="M1152.59 577.086H1127.95V578.981H1152.59V577.086Z" fill="#373737"/>
<path d="M1152.59 581.824H1127.95V583.719H1152.59V581.824Z" fill="#373737"/>
<path d="M1152.59 587.509H1127.95V589.405H1152.59V587.509Z" fill="#373737"/>
<path d="M1152.59 592.247H1127.95V594.142H1152.59V592.247Z" fill="#373737"/>
<path d="M1100.47 569.505H1079.62V571.4H1100.47V569.505Z" fill="#373737"/>
<path d="M1127 555.291H1061.62V557.186H1127V555.291Z" fill="#373737"/>
<path d="M1107.1 565.715H1073.94V585.614H1107.1V565.715Z" stroke="#373737" stroke-width="2"/>
<path d="M1109 585.614H1072.04V591.3H1109V585.614Z" stroke="#373737" stroke-width="2"/>
<path d="M1100.47 565.715H1080.57V585.614H1100.47V565.715Z" stroke="#373737" stroke-width="2"/>
<path d="M1119.43 424.523H1063.52V433.051H1119.43V424.523Z" fill="white"/>
<path d="M1118.48 425.471H1064.47V432.104H1118.48V425.471Z" stroke="#373737" stroke-width="2"/>
<path d="M1072.99 425.471H1071.1V432.104H1072.99V425.471Z" fill="#373737"/>
<path d="M1080.57 425.471H1078.68V432.104H1080.57V425.471Z" fill="#373737"/>
<path d="M1088.15 425.471H1086.25V432.104H1088.15V425.471Z" fill="#373737"/>
<path d="M1095.73 425.471H1093.84V432.104H1095.73V425.471Z" fill="#373737"/>
<path d="M1103.32 425.471H1101.42V432.104H1103.32V425.471Z" fill="#373737"/>
<path d="M1110.9 425.471H1109V432.104H1110.9V425.471Z" fill="#373737"/>
<path d="M1150.7 405.571H1126.06V426.418H1150.7V405.571Z" fill="white"/>
<path d="M1149.75 406.519H1127V425.471H1149.75V406.519Z" stroke="#373737" stroke-width="2"/>
<path d="M1145.96 412.204H1144.06V419.785H1145.96V412.204Z" fill="#373737"/>
<path d="M1132.7 426.418H1130.8V432.104H1132.7V426.418Z" fill="#373737"/>
<path d="M1146.9 425.471H1145.01V431.156H1146.9V425.471Z" fill="#373737"/>
<path fill-rule="evenodd" clip-rule="evenodd" d="M1138.38 395.238L1149.52 406.662C1149.7 406.849 1149.7 407.149 1149.51 407.332C1149.42 407.418 1149.3 407.466 1149.18 407.466H1127.53C1127.28 407.466 1127.06 407.255 1127.06 406.992C1127.06 406.868 1127.11 406.749 1127.2 406.661L1138.38 395.238Z" fill="white" stroke="#373737" stroke-width="2"/>
<g style="mix-blend-mode:multiply">
<g style="mix-blend-mode:multiply">
<path fill-rule="evenodd" clip-rule="evenodd" d="M1138.38 395.238L1149.52 406.662C1149.7 406.849 1149.7 407.149 1149.51 407.332C1149.42 407.418 1149.3 407.466 1149.18 407.466H1138.34L1138.38 395.238Z" fill="#F48FB1"/>
</g>
</g>
<path d="M1235.97 440.632H1171.54V575.191H1235.97V440.632Z" fill="white"/>
<path d="M1235.03 441.58H1172.49V574.243H1235.03V441.58Z" stroke="#373737" stroke-width="2"/>
<path d="M1232.19 430.209H1224.61V442.528H1232.19V430.209Z" fill="white"/>
<path d="M1231.24 431.156H1225.56V441.58H1231.24V431.156Z" stroke="#373737" stroke-width="2"/>
<path fill-rule="evenodd" clip-rule="evenodd" d="M1235.03 468.091V458.637L1203.86 417.801L1172.49 458.637V468.113L1203.86 427.277L1235.03 468.091Z" fill="white" stroke="#373737" stroke-width="2"/>
<path d="M1198.08 460.532H1187.65V482.327H1198.08V460.532Z" stroke="#373737" stroke-width="2"/>
<path d="M1198.08 470.008H1187.65V471.903H1198.08V470.008Z" fill="#D8D8D8"/>
<path d="M1197.6 470.481H1188.13V471.429H1197.6V470.481Z" stroke="#373737"/>
<path d="M1194.28 470.008H1192.39V482.327H1194.28V470.008Z" fill="#D8D8D8"/>
<path d="M1193.81 470.481H1192.86V481.852H1193.81V470.481Z" stroke="#373737"/>
<path d="M1219.87 460.532H1209.44V482.327H1219.87V460.532Z" stroke="#373737" stroke-width="2"/>
<path d="M1219.87 470.008H1209.44V471.903H1219.87V470.008Z" fill="#D8D8D8"/>
<path d="M1219.39 470.481H1209.92V471.429H1219.39V470.481Z" stroke="#373737"/>
<path d="M1216.08 470.008H1214.19V482.327H1216.08V470.008Z" fill="#D8D8D8"/>
<path d="M1215.61 470.481H1214.66V481.852H1215.61V470.481Z" stroke="#373737"/>
<path d="M1198.08 501.279H1187.65V523.073H1198.08V501.279Z" stroke="#373737" stroke-width="2"/>
<path d="M1198.08 510.754H1187.65V512.649H1198.08V510.754Z" fill="#D8D8D8"/>
<path d="M1197.6 511.228H1188.13V512.176H1197.6V511.228Z" stroke="#373737"/>
<path d="M1194.28 510.754H1192.39V523.073H1194.28V510.754Z" fill="#D8D8D8"/>
<path d="M1193.81 511.228H1192.86V522.599H1193.81V511.228Z" stroke="#373737"/>
<path d="M1219.87 501.279H1209.44V523.073H1219.87V501.279Z" stroke="#373737" stroke-width="2"/>
<path d="M1219.87 510.754H1209.44V512.649H1219.87V510.754Z" fill="#D8D8D8"/>
<path d="M1219.39 511.228H1209.92V512.176H1219.39V511.228Z" stroke="#373737"/>
<path d="M1216.08 510.754H1214.19V523.073H1216.08V510.754Z" fill="#D8D8D8"/>
<path d="M1215.61 511.228H1214.66V522.599H1215.61V511.228Z" stroke="#373737"/>
<path d="M1198.08 542.024H1187.65V563.819H1198.08V542.024Z" stroke="#373737" stroke-width="2"/>
<path d="M1198.08 551.501H1187.65V553.396H1198.08V551.501Z" fill="#D8D8D8"/>
<path d="M1197.6 551.975H1188.13V552.922H1197.6V551.975Z" stroke="#373737"/>
<path d="M1194.28 551.501H1192.39V563.819H1194.28V551.501Z" fill="#D8D8D8"/>
<path d="M1193.81 551.975H1192.86V563.346H1193.81V551.975Z" stroke="#373737"/>
<path d="M1219.87 542.024H1209.44V563.819H1219.87V542.024Z" stroke="#373737" stroke-width="2"/>
<path d="M1219.87 551.501H1209.44V553.396H1219.87V551.501Z" fill="#D8D8D8"/>
<path d="M1219.39 551.975H1209.92V552.922H1219.39V551.975Z" stroke="#373737"/>
<path d="M1216.08 551.501H1214.19V563.819H1216.08V551.501Z" fill="#D8D8D8"/>
<path d="M1215.61 551.975H1214.66V563.346H1215.61V551.975Z" stroke="#373737"/>
<path d="M1238.82 573.295H1168.7V599.828H1238.82V573.295Z" fill="white"/>
<path d="M1237.87 574.243H1169.65V598.88H1237.87V574.243Z" stroke="#373737" stroke-width="2"/>
<path d="M1446.34 440.633H1381.91V575.191H1446.34V440.633Z" fill="white"/>
<path d="M1445.39 441.58H1382.86V574.243H1445.39V441.58Z" stroke="#373737" stroke-width="2"/>
<path d="M1442.56 430.209H1434.97V442.528H1442.56V430.209Z" fill="white"/>
<path d="M1441.61 431.157H1435.92V441.58H1441.61V431.157Z" stroke="#373737" stroke-width="2"/>
<path fill-rule="evenodd" clip-rule="evenodd" d="M1445.39 468.091V458.637L1414.23 417.801L1382.86 458.637V468.113L1414.23 427.277L1445.39 468.091Z" fill="white" stroke="#373737" stroke-width="2"/>
<path d="M1408.44 460.532H1398.01V482.327H1408.44V460.532Z" stroke="#373737" stroke-width="2"/>
<path d="M1408.44 470.008H1398.01V471.903H1408.44V470.008Z" fill="#D8D8D8"/>
<path d="M1407.96 470.481H1398.49V471.429H1407.96V470.481Z" stroke="#373737"/>
<path d="M1404.65 470.008H1402.76V482.327H1404.65V470.008Z" fill="#D8D8D8"/>
<path d="M1404.18 470.481H1403.23V481.853H1404.18V470.481Z" stroke="#373737"/>
<path d="M1430.24 460.532H1419.81V482.327H1430.24V460.532Z" stroke="#373737" stroke-width="2"/>
<path d="M1430.24 470.008H1419.81V471.903H1430.24V470.008Z" fill="#D8D8D8"/>
<path d="M1429.76 470.481H1420.29V471.429H1429.76V470.481Z" stroke="#373737"/>
<path d="M1426.44 470.008H1424.54V482.327H1426.44V470.008Z" fill="#D8D8D8"/>
<path d="M1425.97 470.481H1425.03V481.853H1425.97V470.481Z" stroke="#373737"/>
<path d="M1408.44 501.279H1398.01V523.073H1408.44V501.279Z" stroke="#373737" stroke-width="2"/>
<path d="M1408.44 510.754H1398.01V512.649H1408.44V510.754Z" fill="#D8D8D8"/>
<path d="M1407.96 511.228H1398.49V512.176H1407.96V511.228Z" stroke="#373737"/>
<path d="M1404.65 510.754H1402.76V523.073H1404.65V510.754Z" fill="#D8D8D8"/>
<path d="M1404.18 511.228H1403.23V522.6H1404.18V511.228Z" stroke="#373737"/>
<path d="M1430.24 501.279H1419.81V523.073H1430.24V501.279Z" stroke="#373737" stroke-width="2"/>
<path d="M1430.24 510.754H1419.81V512.649H1430.24V510.754Z" fill="#D8D8D8"/>
<path d="M1429.76 511.228H1420.29V512.176H1429.76V511.228Z" stroke="#373737"/>
<path d="M1426.44 510.754H1424.54V523.073H1426.44V510.754Z" fill="#D8D8D8"/>
<path d="M1425.97 511.228H1425.03V522.6H1425.97V511.228Z" stroke="#373737"/>
<path d="M1408.44 542.025H1398.01V563.82H1408.44V542.025Z" stroke="#373737" stroke-width="2"/>
<path d="M1408.44 551.501H1398.01V553.396H1408.44V551.501Z" fill="#D8D8D8"/>
<path d="M1407.96 551.975H1398.49V552.923H1407.96V551.975Z" stroke="#373737"/>
<path d="M1404.65 551.501H1402.76V563.82H1404.65V551.501Z" fill="#D8D8D8"/>
<path d="M1404.18 551.975H1403.23V563.346H1404.18V551.975Z" stroke="#373737"/>
<path d="M1430.24 542.025H1419.81V563.82H1430.24V542.025Z" stroke="#373737" stroke-width="2"/>
<path d="M1430.24 551.501H1419.81V553.396H1430.24V551.501Z" fill="#D8D8D8"/>
<path d="M1429.76 551.975H1420.29V552.923H1429.76V551.975Z" stroke="#373737"/>
<path d="M1426.44 551.501H1424.54V563.82H1426.44V551.501Z" fill="#D8D8D8"/>
<path d="M1425.97 551.975H1425.03V563.346H1425.97V551.975Z" stroke="#373737"/>
<path d="M1449.19 573.296H1379.06V599.828H1449.19V573.296Z" fill="white"/>
<path d="M1448.24 574.243H1380.01V598.881H1448.24V574.243Z" stroke="#373737" stroke-width="2"/>
<path d="M1274.84 451.056H1261.57V461.478H1274.84V451.056Z" fill="white"/>
<path d="M1273.89 452.004H1262.51V460.532H1273.89V452.004Z" stroke="#373737" stroke-width="2"/>
<path d="M1269.14 445.37H1267.25V452.951H1269.14V445.37Z" fill="#373737"/>
<path d="M1282.41 450.108H1280.52V459.583H1282.41V450.108Z" fill="#373737"/>
<path d="M1280.52 571.4H1266.3V582.771H1280.52V571.4Z" stroke="#373737" stroke-width="2"/>
<path d="M1281.47 576.138H1265.35V578.033H1281.47V576.138Z" fill="#D8D8D8"/>
<path d="M1280.99 576.611H1265.82V577.56H1280.99V576.611Z" stroke="#373737"/>
<path d="M1314.63 576.138H1298.52V578.033H1314.63V576.138Z" fill="#D8D8D8"/>
<path d="M1314.15 576.611H1299V577.56H1314.15V576.611Z" stroke="#373737"/>
<path d="M1313.68 571.4H1299.47V582.771H1313.68V571.4Z" stroke="#373737" stroke-width="2"/>
<path d="M1369.6 461.479H1248.3V599.828H1369.6V461.479Z" fill="white"/>
<path d="M1368.65 462.427H1249.24V598.881H1368.65V462.427Z" stroke="#373737" stroke-width="2"/>
<path d="M1276.72 461.479H1274.84V598.88H1276.72V461.479Z" fill="#373737"/>
<path d="M1304.2 461.479H1302.32V598.88H1304.2V461.479Z" fill="#373737"/>
<path d="M1331.68 461.479H1329.78V599.828H1331.68V461.479Z" fill="#373737"/>
<path d="M1330.73 561.924H1248.3V563.819H1330.73V561.924Z" fill="#373737"/>
<path d="M1297.57 476.641H1282.41V482.81H1297.57V476.641Z" fill="white"/>
<path d="M1296.62 477.589H1283.35V481.862H1296.62V477.589Z" stroke="#373737" stroke-width="2"/>
<path d="M1297.57 499.384H1282.41V501.278H1297.57V499.384Z" fill="#373737"/>
<path fill-rule="evenodd" clip-rule="evenodd" d="M1284.3 481.379V500.08H1295.19V481.379H1284.3Z" stroke="#373737" stroke-width="2"/>
<path d="M1323.15 476.641H1311.78V482.81H1323.15V476.641Z" fill="white"/>
<path d="M1322.22 477.589H1312.73V481.862H1322.22V477.589Z" stroke="#373737" stroke-width="2"/>
<path d="M1323.15 499.384H1311.78V501.278H1323.15V499.384Z" fill="#373737"/>
<path fill-rule="evenodd" clip-rule="evenodd" d="M1313.68 481.379V500.08H1321.27V481.379H1313.68Z" stroke="#373737" stroke-width="2"/>
<path d="M1268.2 476.641H1256.82V482.81H1268.2V476.641Z" fill="white"/>
<path d="M1267.25 477.589H1257.77V481.862H1267.25V477.589Z" stroke="#373737" stroke-width="2"/>
<path d="M1268.2 499.384H1256.82V501.278H1268.2V499.384Z" fill="#373737"/>
<path fill-rule="evenodd" clip-rule="evenodd" d="M1258.72 481.379V500.08H1266.3V481.379H1258.72Z" stroke="#373737" stroke-width="2"/>
<path d="M1357.27 476.641H1342.11V482.81H1357.27V476.641Z" fill="white"/>
<path d="M1356.33 477.589H1343.06V481.862H1356.33V477.589Z" stroke="#373737" stroke-width="2"/>
<path d="M1357.27 499.384H1342.11V501.278H1357.27V499.384Z" fill="#373737"/>
<path fill-rule="evenodd" clip-rule="evenodd" d="M1344 481.379V500.08H1354.9V481.379H1344Z" stroke="#373737" stroke-width="2"/>
<path d="M1297.57 526.863H1282.41V533.032H1297.57V526.863Z" fill="white"/>
<path d="M1296.62 527.81H1283.35V532.085H1296.62V527.81Z" stroke="#373737" stroke-width="2"/>
<path d="M1297.57 549.605H1282.41V551.5H1297.57V549.605Z" fill="#373737"/>
<path fill-rule="evenodd" clip-rule="evenodd" d="M1284.3 531.601V550.303H1295.19V531.601H1284.3Z" stroke="#373737" stroke-width="2"/>
<path d="M1323.15 526.863H1311.78V533.032H1323.15V526.863Z" fill="white"/>
<path d="M1322.22 527.81H1312.73V532.085H1322.22V527.81Z" stroke="#373737" stroke-width="2"/>
<path d="M1323.15 549.605H1311.78V551.5H1323.15V549.605Z" fill="#373737"/>
<path fill-rule="evenodd" clip-rule="evenodd" d="M1313.68 531.601V550.303H1321.27V531.601H1313.68Z" stroke="#373737" stroke-width="2"/>
<path d="M1268.2 526.863H1256.82V533.032H1268.2V526.863Z" fill="white"/>
<path d="M1267.25 527.81H1257.77V532.085H1267.25V527.81Z" stroke="#373737" stroke-width="2"/>
<path d="M1268.2 549.605H1256.82V551.5H1268.2V549.605Z" fill="#373737"/>
<path fill-rule="evenodd" clip-rule="evenodd" d="M1258.72 531.601V550.303H1266.3V531.601H1258.72Z" stroke="#373737" stroke-width="2"/>
<path d="M1373.38 459.583H1244.51V468.113H1373.38V459.583Z" fill="white"/>
<path d="M1372.43 460.532H1245.46V467.165H1372.43V460.532Z" stroke="#373737" stroke-width="2"/>
<path d="M1373.38 509.806H1244.51V518.334H1373.38V509.806Z" fill="white"/>
<path d="M1372.43 510.754H1245.46V517.387H1372.43V510.754Z" stroke="#373737" stroke-width="2"/>
<path d="M1362.01 527.81H1336.42V598.881H1362.01V527.81Z" stroke="#373737" stroke-width="2"/>
<path d="M1357.27 532.548H1341.16V567.61H1357.27V532.548Z" stroke="#373737" stroke-width="2"/>
<path d="M1362.01 566.662H1337.37V568.557H1362.01V566.662Z" fill="#373737"/>
<path d="M1362.01 571.4H1337.37V573.295H1362.01V571.4Z" fill="#373737"/>
<path d="M1362.01 577.086H1337.37V578.981H1362.01V577.086Z" fill="#373737"/>
<path d="M1362.01 581.824H1337.37V583.719H1362.01V581.824Z" fill="#373737"/>
<path d="M1362.01 587.509H1337.37V589.405H1362.01V587.509Z" fill="#373737"/>
<path d="M1362.01 592.247H1337.37V594.142H1362.01V592.247Z" fill="#373737"/>
<path d="M554.657 597.933H-172.148V599.828H554.657V597.933Z" fill="#373737"/>
<path d="M602.038 597.933H507.277V599.828H602.038V597.933Z" fill="#373737"/>
<path d="M668.37 597.933H620.989V599.828H668.37V597.933Z" fill="#373737"/>
<path d="M706.272 597.933H687.32V599.828H706.272V597.933Z" fill="#373737"/>
<path d="M734.7 597.933H725.224V599.828H734.7V597.933Z" fill="#373737"/>
<path d="M857.888 597.933H838.936V599.828H857.888V597.933Z" fill="#373737"/>
<path d="M805.771 597.933H763.129V599.828H805.771V597.933Z" fill="#373737"/>
<path d="M1609.33 597.933H872.101V599.828H1609.33V597.933Z" fill="#373737"/>
<path fill-rule="evenodd" clip-rule="evenodd" d="M896.291 541.405C898.876 539.32 900.529 536.128 900.529 532.549C900.529 527.862 897.694 523.838 893.644 522.097C894.98 520.591 895.791 518.61 895.791 516.439C895.791 511.729 891.973 507.911 887.263 507.911C882.553 507.911 878.734 511.729 878.734 516.439C878.734 518.294 879.327 520.01 880.331 521.409C875.628 522.416 872.101 526.597 872.101 531.601C872.101 533.406 872.561 535.105 873.369 536.586C871.989 538.167 871.153 540.235 871.153 542.499C871.153 544.44 871.768 546.239 872.815 547.71C871.768 549.181 871.153 550.98 871.153 552.923C871.153 557.894 875.184 561.924 880.156 561.924C881.736 561.924 883.22 561.518 884.511 560.803C886.361 562.106 888.618 562.872 891.053 562.872C897.333 562.872 902.424 557.781 902.424 551.501C902.424 547.11 899.936 543.3 896.291 541.405Z" fill="#10CEA1"/>
<path fill-rule="evenodd" clip-rule="evenodd" d="M892.5 541.405C895.085 539.32 896.738 536.128 896.738 532.549C896.738 527.862 893.903 523.838 889.854 522.097C891.19 520.591 892 518.61 892 516.439C892 511.729 888.182 507.911 883.472 507.911C878.762 507.911 874.944 511.729 874.944 516.439C874.944 518.294 875.535 520.01 876.541 521.409C871.837 522.416 868.31 526.597 868.31 531.601C868.31 533.406 868.77 535.105 869.577 536.586C868.199 538.167 867.363 540.235 867.363 542.499C867.363 544.44 867.978 546.239 869.024 547.71C867.978 549.181 867.363 550.98 867.363 552.923C867.363 557.894 871.394 561.924 876.365 561.924C877.944 561.924 879.429 561.518 880.72 560.803C882.571 562.106 884.827 562.872 887.262 562.872C893.543 562.872 898.634 557.781 898.634 551.501C898.634 547.11 896.144 543.3 892.5 541.405Z" stroke="#373737" stroke-width="2"/>
<path d="M883.472 533.496H881.577V598.881H883.472V533.496Z" fill="#373737"/>
<path fill-rule="evenodd" clip-rule="evenodd" d="M949.299 559.932C950.789 558.311 951.699 556.149 951.699 553.775C951.699 550.72 950.194 548.018 947.884 546.367C947.587 542.873 944.657 540.129 941.086 540.129C937.939 540.129 935.29 542.261 934.501 545.157C931.27 546.306 928.957 549.391 928.957 553.016C928.957 554.461 929.324 555.82 929.97 557.004C928.867 558.27 928.199 559.924 928.199 561.734C928.199 563.486 928.824 565.091 929.863 566.339C929.766 566.811 929.715 567.299 929.715 567.8C929.715 571.777 932.939 575.001 936.916 575.001C938.166 575.001 939.341 574.684 940.365 574.123C940.846 574.203 941.341 574.243 941.844 574.243C946.868 574.243 950.941 570.17 950.941 565.146C950.941 563.206 950.334 561.409 949.299 559.932Z" fill="#10CEA1"/>
<path fill-rule="evenodd" clip-rule="evenodd" d="M946.267 559.932C947.757 558.311 948.667 556.149 948.667 553.775C948.667 550.72 947.161 548.018 944.852 546.367C944.555 542.873 941.624 540.129 938.053 540.129C934.907 540.129 932.257 542.261 931.47 545.157C928.238 546.306 925.924 549.391 925.924 553.016C925.924 554.461 926.291 555.82 926.938 557.004C925.834 558.27 925.166 559.924 925.166 561.734C925.166 563.486 925.791 565.091 926.831 566.339C926.733 566.811 926.682 567.299 926.682 567.8C926.682 571.777 929.907 575.001 933.884 575.001C935.133 575.001 936.309 574.684 937.333 574.123C937.814 574.203 938.308 574.243 938.812 574.243C943.836 574.243 947.909 570.17 947.909 565.146C947.909 563.206 947.301 561.409 946.267 559.932Z" stroke="#373737" stroke-width="2"/>
<path d="M938.432 554.533H936.537V600.018H938.432V554.533Z" fill="#373737"/>
<path d="M566.976 542.972H565.081V599.828H566.976V542.972Z" fill="#373737"/>
<path fill-rule="evenodd" clip-rule="evenodd" d="M558.553 544.451C557.879 545.868 557.5 547.456 557.5 549.132C557.5 555.151 562.378 560.029 568.397 560.029C574.415 560.029 579.295 555.151 579.295 549.132C579.295 547.672 579.008 546.278 578.486 545.006L568.397 504.122L558.553 544.451Z" fill="#10CEA1"/>
<path fill-rule="evenodd" clip-rule="evenodd" d="M555.71 544.451C555.034 545.868 554.657 547.456 554.657 549.132C554.657 555.151 559.536 560.029 565.555 560.029C571.572 560.029 576.451 555.151 576.451 549.132C576.451 547.672 576.165 546.278 575.643 545.006L565.555 504.122L555.71 544.451Z" stroke="#373737" stroke-width="2" stroke-linejoin="round"/>
<path fill-rule="evenodd" clip-rule="evenodd" d="M528.914 549.72C530.777 547.696 531.914 544.994 531.914 542.025C531.914 538.206 530.033 534.828 527.145 532.766C526.775 528.397 523.111 524.968 518.648 524.968C514.714 524.968 511.402 527.632 510.418 531.253C506.378 532.689 503.486 536.545 503.486 541.077C503.486 542.882 503.945 544.581 504.753 546.062C503.375 547.643 502.539 549.711 502.539 551.975C502.539 554.163 503.32 556.17 504.619 557.73C504.497 558.32 504.434 558.93 504.434 559.556C504.434 564.527 508.464 568.557 513.437 568.557C514.997 568.557 516.467 568.159 517.747 567.461C518.348 567.558 518.966 567.61 519.596 567.61C525.876 567.61 530.967 562.519 530.967 556.239C530.967 553.814 530.207 551.567 528.914 549.72Z" fill="#10CEA1"/>
<path fill-rule="evenodd" clip-rule="evenodd" d="M525.124 549.72C526.986 547.696 528.124 544.994 528.124 542.025C528.124 538.206 526.242 534.828 523.354 532.766C522.985 528.397 519.321 524.968 514.857 524.968C510.924 524.968 507.613 527.632 506.628 531.253C502.589 532.689 499.696 536.545 499.696 541.077C499.696 542.882 500.154 544.581 500.962 546.062C499.584 547.643 498.748 549.711 498.748 551.975C498.748 554.163 499.529 556.17 500.829 557.73C500.708 558.32 500.643 558.93 500.643 559.556C500.643 564.527 504.673 568.557 509.646 568.557C511.208 568.557 512.676 568.159 513.956 567.461C514.558 567.558 515.176 567.61 515.805 567.61C522.085 567.61 527.176 562.519 527.176 556.239C527.176 553.814 526.418 551.567 525.124 549.72Z" stroke="#373737" stroke-width="2"/>
<path d="M514.857 542.972H512.962V599.828H514.857V542.972Z" fill="#373737"/>
<g style="mix-blend-mode:multiply">
<g style="mix-blend-mode:multiply">
<path d="M178.462 517.387H172.776V597.933H178.462V517.387Z" fill="#F48FB1"/>
</g>
</g>
<g style="mix-blend-mode:multiply">
<g style="mix-blend-mode:multiply">
<path d="M199.309 497.487H193.623V597.933H199.309V497.487Z" fill="#BF5F82"/>
</g>
</g>
<g style="mix-blend-mode:multiply">
<g style="mix-blend-mode:multiply">
<path d="M385.985 493.698H380.299V572.348H385.985V493.698Z" fill="#F48FB1"/>
</g>
</g>
<g style="mix-blend-mode:multiply">
<g style="mix-blend-mode:multiply">
<path d="M403.042 569.505H397.357V597.933H403.042V569.505Z" fill="#BF5F82"/>
</g>
</g>
<g style="mix-blend-mode:multiply">
<g style="mix-blend-mode:multiply">
<path fill-rule="evenodd" clip-rule="evenodd" d="M211.872 380.972L230.385 397.043H211.872V380.972Z" fill="#F48FB1"/>
</g>
</g>
<g style="mix-blend-mode:multiply">
<g style="mix-blend-mode:multiply">
<path d="M976.337 498.436H970.65V536.339H976.337V498.436Z" fill="#BF5F82"/>
</g>
</g>
<g style="mix-blend-mode:multiply">
<g style="mix-blend-mode:multiply">
<path d="M1159.23 439.685H1153.53V474.746H1159.23V439.685Z" fill="#F48FB1"/>
</g>
</g>
<g style="mix-blend-mode:multiply">
<g style="mix-blend-mode:multiply">
<path d="M1368.65 517.387H1362.95V598.881H1368.65V517.387Z" fill="#F48FB1"/>
</g>
</g>
<g style="mix-blend-mode:multiply">
<g style="mix-blend-mode:multiply">
<path d="M1175.33 574.243H1169.65V597.933H1175.33V574.243Z" fill="#BF5F82"/>
</g>
</g>
<g style="mix-blend-mode:multiply">
<g style="mix-blend-mode:multiply">
<path fill-rule="evenodd" clip-rule="evenodd" d="M1446.34 470.089V574.243H1437.81V459.711L1446.34 470.089Z" fill="#BF5F82"/>
</g>
</g>
<g style="mix-blend-mode:multiply">
<g style="mix-blend-mode:multiply">
<path d="M7.89322 440.632H0.313477V488.011H7.89322V440.632Z" fill="#BF5F82"/>
</g>
</g>
<path d="M1295.77 138.752C1299.95 138.752 1311.59 138.752 1314.77 138.752C1320.41 138.752 1324.96 134.26 1324.96 128.716C1324.96 123.174 1320.41 118.68 1314.77 118.68C1314.51 118.68 1314.25 118.69 1313.99 118.71C1312.99 109.663 1305.22 102.623 1295.77 102.623C1285.94 102.623 1277.91 110.261 1277.47 119.848C1276.04 119.103 1274.42 118.68 1272.7 118.68C1267.08 118.68 1262.51 123.174 1262.51 128.716C1262.51 134.26 1267.08 138.752 1272.7 138.752C1276.9 138.752 1290.32 138.752 1295.77 138.752Z" fill="white"/>
<path fill-rule="evenodd" clip-rule="evenodd" d="M1314.81 117.733C1313.37 108.568 1305.33 101.675 1295.77 101.675C1285.94 101.675 1277.76 108.968 1276.63 118.44C1275.38 117.975 1274.05 117.733 1272.7 117.733C1266.54 117.733 1261.57 122.647 1261.57 128.717C1261.57 134.785 1266.54 139.7 1272.7 139.7H1314.77C1320.92 139.7 1325.91 134.785 1325.91 128.717C1325.91 122.659 1320.94 117.753 1314.81 117.733Z" stroke="#373737" stroke-width="2"/>
<g style="mix-blend-mode:multiply">
<g style="mix-blend-mode:multiply">
<path fill-rule="evenodd" clip-rule="evenodd" d="M1293.87 139.7C1298.05 139.7 1309.7 139.7 1312.89 139.7C1318.51 139.7 1323.06 135.206 1323.06 129.664C1323.06 124.121 1318.51 119.628 1312.89 119.628C1312.62 119.628 1312.35 119.638 1312.1 119.657C1311.1 110.611 1303.32 103.57 1293.87 103.57C1293.87 116.586 1293.87 129.664 1293.87 139.7Z" fill="#F48FB1" fill-opacity="0.15"/>
</g>
</g>
<path fill-rule="evenodd" clip-rule="evenodd" d="M1307.91 140.137C1304.62 139.961 1302.09 137.171 1302.27 133.901C1302.44 130.629 1305.24 128.116 1308.53 128.289C1308.58 127.904 1308.57 127.506 1308.59 127.104C1308.8 123.329 1311.49 120.276 1315.03 119.454C1316.3 108.976 1325.35 101.069 1336.04 101.231C1340.33 93.0364 1349.14 87.6457 1359.03 88.1637C1372.52 88.8707 1382.89 100.319 1382.18 113.733C1382.04 116.512 1381.42 119.157 1380.43 121.598C1385.23 122.877 1388.63 127.348 1388.37 132.473C1388.27 134.366 1387.67 136.116 1386.72 137.611C1386.13 138.557 1385.38 139.4 1384.52 140.111C1384.28 140.313 1383.86 140.451 1383.32 140.53C1383.04 140.58 1382.8 140.605 1382.57 140.605C1382.53 140.605 1382.49 140.604 1382.47 140.604C1382.11 140.618 1381.75 140.616 1381.34 140.6C1357.08 140.496 1332.59 140.345 1307.9 140.148L1307.91 140.137Z" fill="white" stroke="#373737" stroke-width="2" stroke-linejoin="round"/>
<path d="M1255.08 139.729H1272.92H1255.08ZM1379.77 140.607H1397.62H1379.77Z" stroke="#373737" stroke-width="2" stroke-linecap="round" stroke-linejoin="round"/>
<g style="mix-blend-mode:multiply">
<g style="mix-blend-mode:multiply">
<path fill-rule="evenodd" clip-rule="evenodd" d="M1381.28 140.041C1381.71 139.953 1381.99 139.854 1382.11 139.748C1382.91 139.085 1383.61 138.3 1384.16 137.42C1385.05 136.027 1385.59 134.396 1385.68 132.633C1385.94 127.859 1382.76 123.695 1378.3 122.504C1379.23 120.23 1379.78 117.767 1379.92 115.179C1380.58 102.684 1370.92 92.0213 1358.37 91.3628C1349.15 90.8804 1340.94 95.9014 1336.95 103.534C1336.96 111.289 1336.97 123.512 1336.99 140.205C1336.99 140.205 1337 140.205 1337.01 140.205C1337 140.208 1336.99 140.21 1336.97 140.211C1337.1 140.213 1337.23 140.214 1337.34 140.214C1360.9 140.806 1375.18 140.805 1380.18 140.211C1380.22 140.211 1380.25 140.211 1380.29 140.211C1380.58 140.211 1380.91 140.168 1381.28 140.081V140.041Z" fill="#F48FB1" fill-opacity="0.15"/>
</g>
</g>
<path d="M271.327 148.772C286.503 148.772 298.806 136.47 298.806 121.293C298.806 106.116 286.503 93.8123 271.327 93.8123C256.149 93.8123 243.846 106.116 243.846 121.293C243.846 136.47 256.149 148.772 271.327 148.772Z" fill="#FFC1E3"/>
<path fill-rule="evenodd" clip-rule="evenodd" d="M267.35 149.256C266.974 149.226 266.593 149.213 266.209 149.213C258.044 149.213 251.427 157.318 251.427 165.452C255.295 165.452 344.408 165.718 349.976 165.452C349.976 159.402 345.055 154.5 338.985 154.5C337.645 154.5 336.361 154.738 335.175 155.176C332.634 150.713 327.823 147.701 322.307 147.701C321.31 147.701 320.336 147.8 319.395 147.987C318.418 145.509 316.788 143.358 314.713 141.745C315.458 139.587 315.863 137.271 315.863 134.861C315.863 123.181 306.36 113.712 294.637 113.712C282.914 113.712 273.41 123.181 273.41 134.861C273.41 135.778 273.47 136.683 273.584 137.57C269.894 140.178 267.458 144.43 267.35 149.256Z" fill="white" stroke="#373737" stroke-width="2" stroke-linejoin="round"/>
<g style="mix-blend-mode:multiply">
<g style="mix-blend-mode:multiply">
<path fill-rule="evenodd" clip-rule="evenodd" d="M292.454 164.718C316.564 165.147 343.311 165.591 346.203 165.453C346.203 159.737 341.553 155.102 335.815 155.102C334.549 155.102 333.336 155.328 332.215 155.74C329.814 151.523 325.267 148.677 320.053 148.677C319.111 148.677 318.191 148.771 317.301 148.948C316.378 146.605 314.836 144.572 312.877 143.049C313.581 141.009 313.963 138.82 313.963 136.542C313.963 125.503 304.982 116.554 293.903 116.554C293.903 129.663 292.454 148.677 292.454 164.718Z" fill="#F48FB1" fill-opacity="0.15"/>
</g>
</g>
<path d="M241.436 165.52H259.28H241.436ZM345.671 165.52H363.515H345.671Z" stroke="#373737" stroke-width="2" stroke-linecap="round" stroke-linejoin="round"/>
</g>
<defs>
<filter id="filter0_f_1467_20504" x="382.641" y="8.97363" width="688.958" height="688.959" filterUnits="userSpaceOnUse" color-interpolation-filters="sRGB">
<feFlood flood-opacity="0" result="BackgroundImageFix"/>
<feBlend mode="normal" in="SourceGraphic" in2="BackgroundImageFix" result="shape"/>
<feGaussianBlur stdDeviation="50" result="effect1_foregroundBlur_1467_20504"/>
</filter>
<filter id="filter1_f_1467_20504" x="902.701" y="323.606" width="535.605" height="337.968" filterUnits="userSpaceOnUse" color-interpolation-filters="sRGB">
<feFlood flood-opacity="0" result="BackgroundImageFix"/>
<feBlend mode="normal" in="SourceGraphic" in2="BackgroundImageFix" result="shape"/>
<feGaussianBlur stdDeviation="31.735" result="effect1_foregroundBlur_1467_20504"/>
</filter>
<filter id="filter2_f_1467_20504" x="31.0521" y="325.784" width="501.947" height="319.261" filterUnits="userSpaceOnUse" color-interpolation-filters="sRGB">
<feFlood flood-opacity="0" result="BackgroundImageFix"/>
<feBlend mode="normal" in="SourceGraphic" in2="BackgroundImageFix" result="shape"/>
<feGaussianBlur stdDeviation="23.7" result="effect1_foregroundBlur_1467_20504"/>
</filter>
<linearGradient id="paint0_linear_1467_20504" x1="1624.06" y1="400.93" x2="1577.67" y2="400.93" gradientUnits="userSpaceOnUse">
<stop stop-color="#7776AD" stop-opacity="0.219"/>
<stop offset="1" stop-color="#424174"/>
</linearGradient>
<linearGradient id="paint1_linear_1467_20504" x1="-87.0261" y1="400.378" x2="-74.0175" y2="347.52" gradientUnits="userSpaceOnUse">
<stop stop-color="#7776AD" stop-opacity="0"/>
<stop offset="1" stop-color="#424174"/>
</linearGradient>
</defs>
</svg>
