<svg width="18" height="18" viewBox="0 0 18 18" fill="none" xmlns="http://www.w3.org/2000/svg">
<path d="M1 0H17C17.2652 0 17.5196 0.105357 17.7071 0.292893C17.8946 0.48043 18 0.734784 18 1V17C18 17.2652 17.8946 17.5196 17.7071 17.7071C17.5196 17.8946 17.2652 18 17 18H1C0.734784 18 0.48043 17.8946 0.292893 17.7071C0.105357 17.5196 0 17.2652 0 17V1C0 0.734784 0.105357 0.48043 0.292893 0.292893C0.48043 0.105357 0.734784 0 1 0ZM2 2V16H16V2H2ZM4.5 6C4.10218 6 3.72064 5.84196 3.43934 5.56066C3.15804 5.27936 3 4.89782 3 4.5C3 4.10218 3.15804 3.72064 3.43934 3.43934C3.72064 3.15804 4.10218 3 4.5 3C4.89782 3 5.27936 3.15804 5.56066 3.43934C5.84196 3.72064 6 4.10218 6 4.5C6 4.89782 5.84196 5.27936 5.56066 5.56066C5.27936 5.84196 4.89782 6 4.5 6ZM3.5 7H5.5V14.5H3.5V7ZM9 7.43C9.584 6.865 10.266 6.5 11 6.5C13.071 6.5 14.5 8.179 14.5 10.25V14.5H12.5V10.25C12.5 9.78587 12.3156 9.34075 11.9874 9.01256C11.6592 8.68437 11.2141 8.5 10.75 8.5C10.2859 8.5 9.84075 8.68437 9.51256 9.01256C9.18437 9.34075 9 9.78587 9 10.25V14.5H7V7H9V7.43Z" fill="#616161"/>
</svg>
