<svg width="14" height="13" viewBox="0 0 14 13" fill="none" xmlns="http://www.w3.org/2000/svg">
<path d="M3.85609 11.3273C6.76937 11.7248 9.63062 12.1158 12.5486 12.5142C11.5544 10.8591 10.5859 9.24609 9.60953 7.62C7.69656 8.85281 5.80141 10.0739 3.85656 11.3273H3.85609ZM13.3712 2.16562C13.1144 2.55141 12.857 2.93672 12.6006 3.3225C11.7198 4.64766 10.8391 5.97281 9.95922 7.29844C9.91 7.3725 9.84672 7.43109 9.91562 7.54453C10.7659 8.94844 11.6092 10.3566 12.4548 11.7633C12.5884 11.9855 12.723 12.2067 12.8959 12.42C13.0666 9.00562 13.2377 5.59125 13.4087 2.17688C13.3961 2.17313 13.3834 2.16937 13.3712 2.16609V2.16562ZM1.765 6.54281C1.80484 6.58078 1.90375 6.60234 1.95016 6.57984C2.76578 6.17906 3.58656 5.78719 4.38391 5.35313C4.64406 5.21156 4.84422 4.95844 5.06828 4.75266C5.81031 4.07203 6.55141 3.39 7.29203 2.70797C7.3375 2.66625 7.39094 2.62547 7.41812 2.57297C7.68437 2.05313 7.94547 1.53047 8.21641 0.992813C7.89344 0.871406 7.58781 0.752812 7.27797 0.645C7.23625 0.630469 7.16969 0.659531 7.12422 0.684844C6.40703 1.08516 5.67672 1.46437 4.9825 1.90125C4.63516 2.11969 4.35203 2.44219 4.04453 2.7225C3.54859 3.17484 3.05359 3.62859 2.56516 4.08891C2.43531 4.21125 2.31719 4.35047 2.21641 4.49766C1.88219 4.98422 1.55828 5.47781 1.21937 5.985C1.40875 6.18141 1.58125 6.36891 1.76547 6.54328L1.765 6.54281ZM4.74531 5.87813C4.33984 7.59188 3.93625 9.29625 3.51953 11.0564C5.47328 9.79734 7.3825 8.56734 9.27859 7.34578C7.76969 6.85734 6.26547 6.37031 4.74531 5.87859V5.87813ZM12.873 2.18203C11.222 2.45766 9.61047 2.72719 7.97828 2.99953C8.53422 4.35188 9.07891 5.67703 9.63953 7.04016C10.7237 5.41125 11.7864 3.81516 12.8734 2.18203H12.873ZM4.81328 5.5275C6.30016 6.01031 7.75703 6.48328 9.25656 6.96984C8.69969 5.61328 8.16203 4.30406 7.61312 2.96766C6.67797 3.82266 5.75734 4.66453 4.81328 5.5275ZM1.82641 7.54219C1.29906 8.80266 0.79 10.02 0.271562 11.2594C1.26812 11.2298 2.23422 11.2013 3.23312 11.1717C2.76391 9.96141 2.30406 8.77453 1.82641 7.54172V7.54219ZM3.26781 10.3102C3.28 10.3078 3.29219 10.3045 3.30484 10.3022C3.66016 8.82375 4.02109 7.35516 4.38437 5.81859C3.57437 6.23953 2.80187 6.64078 2.00828 7.05375C2.41328 8.10656 2.845 9.21703 3.26828 10.3102H3.26781ZM12.2753 1.9425C11.8023 1.81734 11.3294 1.69172 10.8564 1.56703C10.1762 1.38844 9.49562 1.21172 8.81594 1.03125C8.73109 1.00875 8.66969 0.99375 8.61953 1.09641C8.37953 1.58859 8.13156 2.07703 7.88781 2.56734C7.88031 2.58234 7.88172 2.60203 7.87609 2.64C9.34891 2.41687 10.8119 2.19516 12.2744 1.97344C12.2748 1.96312 12.2748 1.95281 12.2753 1.9425ZM9.53172 0.823125C10.8016 1.17469 12.0719 1.52578 13.3862 1.88953C13.165 1.25953 12.9602 0.675469 12.7492 0.0745312C11.6697 0.314062 10.6037 0.550312 9.53734 0.786563C9.53547 0.79875 9.53359 0.810469 9.53172 0.822656V0.823125ZM3.595 11.6114C3.11734 11.5566 2.6275 11.6072 2.14328 11.6152C1.74531 11.6222 1.34781 11.6372 0.950312 11.6494C0.909062 11.6508 0.868281 11.6587 0.8275 11.7028C4.11578 12.007 7.40406 12.3108 10.6919 12.615C10.6942 12.6005 10.6961 12.5855 10.6984 12.5709C9.64422 12.427 8.59047 12.2831 7.53625 12.1392C6.22281 11.9597 4.91172 11.7628 3.595 11.6109V11.6114ZM0.33625 10.125C0.76 9.14203 1.18187 8.15766 1.6075 7.17562C1.65016 7.07719 1.64687 7.01016 1.56344 6.93094C1.38531 6.76172 1.22031 6.57891 1.02578 6.37687C0.762812 7.67531 0.506406 8.94094 0.25 10.207C0.259375 10.2113 0.269219 10.2159 0.278594 10.2206C0.298281 10.1892 0.322187 10.1592 0.336719 10.1255L0.33625 10.125ZM8.6875 0.563438C9.40187 0.379219 10.127 0.234844 10.8475 0.0740625C10.8939 0.06375 10.9398 0.0482813 10.9858 0.0351563C10.9834 0.0234375 10.9811 0.0117188 10.9787 0C9.96391 0.136406 8.94859 0.273281 7.88219 0.416719C8.17281 0.54375 8.39687 0.638438 8.6875 0.563906V0.563438Z" fill="#616161"/>
</svg>
